<svg width="1120" height="147" viewBox="0 0 1120 147" fill="none" xmlns="http://www.w3.org/2000/svg">
<g clip-path="url(#clip0_8_8943)">
<rect y="34" width="105" height="105" rx="23.772" fill="#146EF5" style="fill:#146EF5;fill:color(display-p3 0.0784 0.4314 0.9608);fill-opacity:1;"/>
<path d="M0 34H105.051V139.051H0V34Z" fill="url(#paint0_linear_8_8943)"/>
<g clip-path="url(#clip1_8_8943)">
<path d="M31.5 107.5C31.5 101.701 36.201 97 42 97H52.5V107.5C52.5 113.299 47.799 118 42 118C36.201 118 31.5 113.299 31.5 107.5Z" fill="#24CB71" style="fill:#24CB71;fill:color(display-p3 0.1412 0.7961 0.4431);fill-opacity:1;"/>
<path d="M52.5 55V76H63C68.799 76 73.5 71.299 73.5 65.5C73.5 59.701 68.799 55 63 55H52.5Z" fill="#FF7237" style="fill:#FF7237;fill:color(display-p3 1.0000 0.4471 0.2157);fill-opacity:1;"/>
<path d="M62.9131 97C68.7121 97 73.4131 92.299 73.4131 86.5C73.4131 80.701 68.7121 76 62.9131 76C57.1141 76 52.4131 80.701 52.4131 86.5C52.4131 92.299 57.1141 97 62.9131 97Z" fill="#00B6FF" style="fill:#00B6FF;fill:color(display-p3 0.0000 0.7137 1.0000);fill-opacity:1;"/>
<path d="M31.5 65.5C31.5 71.299 36.201 76 42 76H52.5V55H42C36.201 55 31.5 59.701 31.5 65.5Z" fill="#FF3737" style="fill:#FF3737;fill:color(display-p3 1.0000 0.2157 0.2157);fill-opacity:1;"/>
<path d="M31.5 86.5C31.5 92.299 36.201 97 42 97H52.5V76H42C36.201 76 31.5 80.701 31.5 86.5Z" fill="#874FFF" style="fill:#874FFF;fill:color(display-p3 0.5294 0.3098 1.0000);fill-opacity:1;"/>
</g>
</g>
<path d="M120.667 86.5C120.667 89.4455 123.054 91.8333 126 91.8333C128.946 91.8333 131.333 89.4455 131.333 86.5C131.333 83.5545 128.946 81.1667 126 81.1667C123.054 81.1667 120.667 83.5545 120.667 86.5ZM178.5 86.5L168.5 80.7265V92.2735L178.5 86.5ZM126 86.5V87.5H169.5V86.5V85.5H126V86.5Z" fill="#1C1A1A" style="fill:#1C1A1A;fill:color(display-p3 0.1118 0.1037 0.1037);fill-opacity:1;"/>
<g clip-path="url(#clip2_8_8943)">
<rect x="199.5" y="34" width="105" height="105" rx="23.772" fill="#146EF5" style="fill:#146EF5;fill:color(display-p3 0.0784 0.4314 0.9608);fill-opacity:1;"/>
<path d="M199.5 34H304.551V139.051H199.5V34Z" fill="url(#paint1_linear_8_8943)"/>
<path d="M271.85 112.145V75.3272H282.062V112.145H271.85ZM276.98 70.5811C275.462 70.5811 274.159 70.0778 273.073 69.071C272.002 68.0483 271.467 66.8258 271.467 65.4036C271.467 63.9973 272.002 62.7908 273.073 61.7841C274.159 60.7614 275.462 60.25 276.98 60.25C278.498 60.25 279.792 60.7614 280.863 61.7841C281.95 62.7908 282.493 63.9973 282.493 65.4036C282.493 66.8258 281.95 68.0483 280.863 69.071C279.792 70.0778 278.498 70.5811 276.98 70.5811Z" fill="#EF9E38" style="fill:#EF9E38;fill:color(display-p3 0.9373 0.6196 0.2196);fill-opacity:1;"/>
<path d="M229.812 112.148H218.689L235.636 63.0566H249.012L265.935 112.148H254.813L242.516 74.2747H242.132L229.812 112.148ZM229.116 92.8516H255.388V100.953H229.116V92.8516Z" fill="#EF9E38" style="fill:#EF9E38;fill:color(display-p3 0.9373 0.6196 0.2196);fill-opacity:1;"/>
</g>
<path d="M320.167 86.5C320.167 89.4455 322.554 91.8333 325.5 91.8333C328.446 91.8333 330.833 89.4455 330.833 86.5C330.833 83.5545 328.446 81.1667 325.5 81.1667C322.554 81.1667 320.167 83.5545 320.167 86.5ZM378 86.5L368 80.7265V92.2735L378 86.5ZM325.5 86.5V87.5H369V86.5V85.5H325.5V86.5Z" fill="#1C1A1A" style="fill:#1C1A1A;fill:color(display-p3 0.1118 0.1037 0.1037);fill-opacity:1;"/>
<g clip-path="url(#clip3_8_8943)">
<rect x="399" y="34" width="105" height="105" rx="23.772" fill="#146EF5" style="fill:#146EF5;fill:color(display-p3 0.0784 0.4314 0.9608);fill-opacity:1;"/>
<path d="M399 34H504.051V139.051H399V34Z" fill="url(#paint2_linear_8_8943)"/>
<path d="M476.777 111.562C472.99 111.562 469.73 110.795 466.997 109.26C464.281 107.71 462.187 105.521 460.717 102.693C459.247 99.8482 458.512 96.4844 458.512 92.6012C458.512 88.8139 459.247 85.4901 460.717 82.6296C462.187 79.7692 464.257 77.5399 466.925 75.9419C469.61 74.3439 472.758 73.5449 476.369 73.5449C478.798 73.5449 481.06 73.9364 483.153 74.7195C485.262 75.4865 487.1 76.6451 488.666 78.1951C490.248 79.7452 491.479 81.6948 492.358 84.0439C493.237 86.377 493.676 89.1096 493.676 92.2417V95.0462H462.587V88.718H484.064C484.064 87.2479 483.744 85.9455 483.105 84.8109C482.466 83.6763 481.579 82.7894 480.444 82.1502C479.326 81.495 478.023 81.1674 476.537 81.1674C474.987 81.1674 473.613 81.527 472.414 82.2461C471.232 82.9492 470.305 83.9 469.634 85.0985C468.963 86.2811 468.619 87.5994 468.603 89.0536V95.0701C468.603 96.8919 468.939 98.4659 469.61 99.7923C470.297 101.119 471.264 102.141 472.51 102.86C473.757 103.58 475.235 103.939 476.945 103.939C478.079 103.939 479.118 103.779 480.061 103.46C481.004 103.14 481.811 102.661 482.482 102.021C483.153 101.382 483.664 100.599 484.016 99.6724L493.46 100.296C492.981 102.565 491.998 104.546 490.512 106.24C489.042 107.918 487.14 109.229 484.807 110.171C482.49 111.098 479.813 111.562 476.777 111.562Z" fill="#9898F7" style="fill:#9898F7;fill:color(display-p3 0.5961 0.5961 0.9686);fill-opacity:1;"/>
<path d="M419.872 110.841H408.75L425.697 61.75H439.072L455.995 110.841H444.873L432.576 72.968H432.193L419.872 110.841ZM419.177 91.5449H445.448V99.6468H419.177V91.5449Z" fill="#9898F7" style="fill:#9898F7;fill:color(display-p3 0.5961 0.5961 0.9686);fill-opacity:1;"/>
</g>
<path d="M519.667 86.5C519.667 89.4455 522.054 91.8333 525 91.8333C527.946 91.8333 530.333 89.4455 530.333 86.5C530.333 83.5545 527.946 81.1667 525 81.1667C522.054 81.1667 519.667 83.5545 519.667 86.5ZM577.5 86.5L567.5 80.7265V92.2735L577.5 86.5ZM525 86.5V87.5H568.5V86.5V85.5H525V86.5Z" fill="#1C1A1A" style="fill:#1C1A1A;fill:color(display-p3 0.1118 0.1037 0.1037);fill-opacity:1;"/>
<g clip-path="url(#clip4_8_8943)">
<rect x="598.5" y="34" width="105" height="105" rx="23.772" fill="#146EF5" style="fill:#146EF5;fill:color(display-p3 0.0784 0.4314 0.9608);fill-opacity:1;"/>
<path d="M598.5 34H703.551V139.051H598.5V34Z" fill="url(#paint3_linear_8_8943)"/>
<g clip-path="url(#clip5_8_8943)">
<path d="M630 107.5C630 101.701 634.701 97 640.5 97H651V107.5C651 113.299 646.299 118 640.5 118C634.701 118 630 113.299 630 107.5Z" fill="#24CB71" style="fill:#24CB71;fill:color(display-p3 0.1412 0.7961 0.4431);fill-opacity:1;"/>
<path d="M651 55V76H661.5C667.299 76 672 71.299 672 65.5C672 59.701 667.299 55 661.5 55H651Z" fill="#FF7237" style="fill:#FF7237;fill:color(display-p3 1.0000 0.4471 0.2157);fill-opacity:1;"/>
<path d="M661.413 97C667.212 97 671.913 92.299 671.913 86.5C671.913 80.701 667.212 76 661.413 76C655.614 76 650.913 80.701 650.913 86.5C650.913 92.299 655.614 97 661.413 97Z" fill="#00B6FF" style="fill:#00B6FF;fill:color(display-p3 0.0000 0.7137 1.0000);fill-opacity:1;"/>
<path d="M630 65.5C630 71.299 634.701 76 640.5 76H651V55H640.5C634.701 55 630 59.701 630 65.5Z" fill="#FF3737" style="fill:#FF3737;fill:color(display-p3 1.0000 0.2157 0.2157);fill-opacity:1;"/>
<path d="M630 86.5C630 92.299 634.701 97 640.5 97H651V76H640.5C634.701 76 630 80.701 630 86.5Z" fill="#874FFF" style="fill:#874FFF;fill:color(display-p3 0.5294 0.3098 1.0000);fill-opacity:1;"/>
</g>
</g>
<defs>
<linearGradient id="paint0_linear_8_8943" x1="52.5256" y1="34" x2="52.5256" y2="139.051" gradientUnits="userSpaceOnUse">
<stop stop-color="#3C3C3C" style="stop-color:#3C3C3C;stop-color:color(display-p3 0.2353 0.2353 0.2353);stop-opacity:1;"/>
<stop offset="1" style="stop-color:black;stop-opacity:1;"/>
</linearGradient>
<linearGradient id="paint1_linear_8_8943" x1="252.026" y1="34" x2="252.026" y2="139.051" gradientUnits="userSpaceOnUse">
<stop stop-color="#400704" style="stop-color:#400704;stop-color:color(display-p3 0.2494 0.0271 0.0165);stop-opacity:1;"/>
<stop offset="1" stop-color="#2E0402" style="stop-color:#2E0402;stop-color:color(display-p3 0.1804 0.0157 0.0078);stop-opacity:1;"/>
</linearGradient>
<linearGradient id="paint2_linear_8_8943" x1="451.526" y1="34" x2="451.526" y2="139.051" gradientUnits="userSpaceOnUse">
<stop stop-color="#08086A" style="stop-color:#08086A;stop-color:color(display-p3 0.0310 0.0310 0.4151);stop-opacity:1;"/>
<stop offset="1" stop-color="#000057" style="stop-color:#000057;stop-color:color(display-p3 0.0000 0.0000 0.3412);stop-opacity:1;"/>
</linearGradient>
<linearGradient id="paint3_linear_8_8943" x1="651.026" y1="34" x2="651.026" y2="139.051" gradientUnits="userSpaceOnUse">
<stop stop-color="#3C3C3C" style="stop-color:#3C3C3C;stop-color:color(display-p3 0.2353 0.2353 0.2353);stop-opacity:1;"/>
<stop offset="1" style="stop-color:black;stop-opacity:1;"/>
</linearGradient>
<clipPath id="clip0_8_8943">
<rect y="34" width="105" height="105" rx="23.772" fill="white" style="fill:white;fill-opacity:1;"/>
</clipPath>
<clipPath id="clip1_8_8943">
<rect width="42" height="63" fill="white" style="fill:white;fill-opacity:1;" transform="translate(31.5 55)"/>
</clipPath>
<clipPath id="clip2_8_8943">
<rect x="199.5" y="34" width="105" height="105" rx="23.772" fill="white" style="fill:white;fill-opacity:1;"/>
</clipPath>
<clipPath id="clip3_8_8943">
<rect x="399" y="34" width="105" height="105" rx="23.772" fill="white" style="fill:white;fill-opacity:1;"/>
</clipPath>
<clipPath id="clip4_8_8943">
<rect x="598.5" y="34" width="105" height="105" rx="23.772" fill="white" style="fill:white;fill-opacity:1;"/>
</clipPath>
<clipPath id="clip5_8_8943">
<rect width="42" height="63" fill="white" style="fill:white;fill-opacity:1;" transform="translate(630 55)"/>
</clipPath>
</defs>
</svg>
