<svg width="1169" height="1080" viewBox="0 0 1169 1080" fill="none" xmlns="http://www.w3.org/2000/svg">
<rect width="383.195" height="59.426" transform="translate(394.39 134.347)" fill="url(#paint0_linear_1227_97288)" fill-opacity="0.7" style=""/>
<path d="M438.124 158.101V169.887H436.341V159.885H436.271L433.452 161.727V160.023L436.392 158.101H438.124ZM442.018 167.585V166.146L447.111 158.101H448.245V160.219H447.525L443.883 165.985V166.077H450.863V167.585H442.018ZM447.606 169.887V167.148L447.617 166.492V158.101H449.303V169.887H447.606ZM454.978 168.425C454.664 168.425 454.393 168.314 454.167 168.091C453.941 167.865 453.827 167.593 453.827 167.274C453.827 166.96 453.941 166.691 454.167 166.469C454.393 166.242 454.664 166.129 454.978 166.129C455.293 166.129 455.563 166.242 455.79 166.469C456.016 166.691 456.129 166.96 456.129 167.274C456.129 167.485 456.075 167.679 455.968 167.855C455.864 168.028 455.726 168.166 455.554 168.27C455.381 168.373 455.189 168.425 454.978 168.425ZM454.978 162.521C454.664 162.521 454.393 162.41 454.167 162.187C453.941 161.961 453.827 161.688 453.827 161.37C453.827 161.055 453.941 160.787 454.167 160.564C454.393 160.338 454.664 160.225 454.978 160.225C455.293 160.225 455.563 160.338 455.79 160.564C456.016 160.787 456.129 161.055 456.129 161.37C456.129 161.581 456.075 161.775 455.968 161.951C455.864 162.124 455.726 162.262 455.554 162.366C455.381 162.469 455.189 162.521 454.978 162.521ZM459.364 169.887V168.598L463.352 164.466C463.778 164.017 464.129 163.624 464.405 163.286C464.685 162.945 464.894 162.621 465.032 162.314C465.17 162.007 465.239 161.681 465.239 161.335C465.239 160.944 465.147 160.607 464.963 160.323C464.779 160.035 464.528 159.814 464.209 159.661C463.891 159.504 463.532 159.425 463.133 159.425C462.711 159.425 462.343 159.511 462.028 159.684C461.714 159.857 461.472 160.1 461.303 160.415C461.135 160.729 461.05 161.098 461.05 161.52H459.353C459.353 160.802 459.518 160.175 459.847 159.638C460.177 159.101 460.63 158.685 461.206 158.389C461.781 158.09 462.435 157.94 463.168 157.94C463.908 157.94 464.56 158.088 465.124 158.383C465.692 158.675 466.135 159.074 466.454 159.58C466.772 160.083 466.931 160.651 466.931 161.284C466.931 161.721 466.849 162.149 466.684 162.567C466.523 162.985 466.241 163.451 465.838 163.965C465.435 164.476 464.875 165.095 464.158 165.824L461.816 168.275V168.362H467.121V169.887H459.364ZM474.358 170.082C473.449 170.079 472.672 169.839 472.028 169.363C471.383 168.887 470.89 168.195 470.549 167.286C470.207 166.376 470.037 165.281 470.037 164C470.037 162.722 470.207 161.631 470.549 160.726C470.894 159.82 471.389 159.13 472.034 158.654C472.682 158.178 473.457 157.94 474.358 157.94C475.26 157.94 476.033 158.18 476.677 158.66C477.322 159.135 477.815 159.826 478.156 160.731C478.502 161.633 478.674 162.722 478.674 164C478.674 165.285 478.504 166.382 478.162 167.291C477.821 168.197 477.328 168.889 476.683 169.369C476.039 169.845 475.264 170.082 474.358 170.082ZM474.358 168.546C475.156 168.546 475.78 168.157 476.229 167.378C476.681 166.599 476.908 165.473 476.908 164C476.908 163.022 476.804 162.195 476.597 161.52C476.394 160.841 476.1 160.327 475.716 159.977C475.337 159.624 474.884 159.448 474.358 159.448C473.564 159.448 472.941 159.839 472.488 160.622C472.035 161.405 471.807 162.531 471.803 164C471.803 164.982 471.905 165.813 472.108 166.492C472.316 167.167 472.609 167.679 472.989 168.028C473.369 168.373 473.825 168.546 474.358 168.546Z" fill="black" style="fill:black;fill-opacity:1;"/>
<rect x="720.2" y="158.523" width="20.7433" height="8.83512" rx="2.16734" fill="black" style="fill:black;fill-opacity:1;"/>
<path d="M744.398 160.571V165.181C744.398 165.181 746.127 164.301 746.127 162.876C746.127 161.451 744.398 160.571 744.398 160.571Z" fill="white" fill-opacity="0.36" style="fill:white;fill-opacity:0.36;"/>
<path d="M722.029 156.316H739.109C740.547 156.316 741.069 156.466 741.595 156.747C742.121 157.029 742.533 157.441 742.815 157.967C743.096 158.493 743.246 159.015 743.246 160.453V165.433C743.246 166.871 743.096 167.393 742.815 167.918C742.533 168.444 742.121 168.857 741.595 169.138C741.069 169.419 740.547 169.569 739.109 169.569H722.029C720.591 169.569 720.069 169.419 719.543 169.138C719.017 168.857 718.605 168.444 718.324 167.918C718.042 167.393 717.893 166.871 717.893 165.433V160.453C717.893 159.015 718.042 158.493 718.324 157.967C718.605 157.441 719.017 157.029 719.543 156.747C720.069 156.466 720.591 156.316 722.029 156.316Z" fill="white" fill-opacity="0.36" style="fill:white;fill-opacity:0.36;"/>
<rect x="668.919" y="163.991" width="3.45722" height="4.60963" rx="1.6255" fill="black" style="fill:black;fill-opacity:1;"/>
<rect x="674.282" y="161.687" width="3.45722" height="6.91445" rx="1.6255" fill="black" style="fill:black;fill-opacity:1;"/>
<rect opacity="0.2" x="679.646" y="159.036" width="3.45722" height="9.56499" rx="1.6255" fill="black" style="fill:black;fill-opacity:1;"/>
<rect opacity="0.2" x="685.01" y="156.271" width="3.45722" height="12.3308" rx="1.6255" fill="black" style="fill:black;fill-opacity:1;"/>
<path opacity="0.2" fill-rule="evenodd" clip-rule="evenodd" d="M703.259 159.238C705.834 159.238 708.31 160.228 710.176 162.002C710.317 162.139 710.542 162.137 710.68 161.998L712.023 160.642C712.093 160.572 712.132 160.476 712.132 160.377C712.131 160.277 712.091 160.182 712.02 160.112C707.122 155.418 699.395 155.418 694.497 160.112C694.426 160.182 694.385 160.277 694.385 160.377C694.384 160.476 694.423 160.572 694.493 160.642L695.837 161.998C695.975 162.137 696.2 162.139 696.34 162.002C698.207 160.228 700.684 159.238 703.259 159.238V159.238Z" fill="black" style="fill:black;fill-opacity:1;"/>
<path fill-rule="evenodd" clip-rule="evenodd" d="M703.26 163.65C704.674 163.65 706.039 164.176 707.087 165.126C707.229 165.26 707.453 165.257 707.591 165.119L708.933 163.763C709.003 163.692 709.043 163.596 709.042 163.495C709.041 163.395 708.999 163.3 708.927 163.23C705.734 160.259 700.788 160.259 697.595 163.23C697.523 163.3 697.481 163.395 697.48 163.496C697.48 163.596 697.519 163.692 697.59 163.763L698.931 165.119C699.069 165.257 699.293 165.26 699.435 165.126C700.483 164.177 701.846 163.651 703.26 163.65V163.65Z" fill="black" style="fill:black;fill-opacity:1;"/>
<path fill-rule="evenodd" clip-rule="evenodd" d="M705.838 166.883C705.91 166.813 705.949 166.716 705.947 166.616C705.945 166.515 705.902 166.42 705.827 166.352C704.345 165.099 702.174 165.099 700.692 166.352C700.617 166.42 700.573 166.515 700.571 166.615C700.569 166.716 700.609 166.813 700.68 166.883L703.002 169.226C703.07 169.295 703.163 169.333 703.259 169.333C703.356 169.333 703.449 169.295 703.517 169.226L705.838 166.883Z" fill="black" style="fill:black;fill-opacity:1;"/>
<rect x="572.667" y="148.69" width="25.6146" height="25.6146" rx="12.8073" fill="black" style="fill:black;fill-opacity:1;"/>
<path d="M709.962 120.002V134.346H461.5V120.002L709.962 120.002Z" fill="black" style="fill:black;fill-opacity:1;"/>
<path d="M393.877 899.716V899.712H379.533L379.533 900.685C379.533 915.793 379.532 928.555 380.899 938.723C382.351 949.521 385.576 959.513 393.637 967.574C401.698 975.635 411.691 978.861 422.489 980.313C432.656 981.68 445.419 981.679 460.526 981.678H461.5H709.962H710.936C726.043 981.679 738.806 981.68 748.973 980.313C759.771 978.861 769.764 975.635 777.825 967.574C785.886 959.513 789.111 949.521 790.563 938.723C791.93 928.555 791.929 915.793 791.929 900.686V899.712V201.969V200.995C791.929 185.888 791.93 173.125 790.563 162.958C789.111 152.16 785.886 142.167 777.825 134.106C769.764 126.045 759.771 122.82 748.973 121.368C738.806 120.001 726.043 120.001 710.936 120.002L709.962 120.002V134.346H709.966C741.841 134.346 757.779 134.346 767.682 144.249L768.138 144.718C777.584 154.655 777.585 170.589 777.585 201.969V899.712V899.716C777.585 931.591 777.585 947.529 767.682 957.432L767.213 957.888C757.907 966.734 743.341 967.297 715.754 967.332H455.708C427.654 967.296 413.064 966.716 403.78 957.432C393.877 947.529 393.877 931.591 393.877 899.716Z" fill="black" style="fill:black;fill-opacity:1;"/>
<path d="M379.533 200.995L379.533 201.969V550.84H393.877V201.969V201.965C393.877 170.09 393.877 154.152 403.78 144.249C413.683 134.346 429.621 134.346 461.496 134.346H461.5V120.002L460.526 120.002C445.419 120.001 432.656 120.001 422.489 121.368C411.691 122.82 401.698 126.045 393.637 134.106C385.576 142.167 382.351 152.16 380.899 162.958C379.532 173.125 379.533 185.888 379.533 200.995Z" fill="black" style="fill:black;fill-opacity:1;"/>
<defs>
<linearGradient id="paint0_linear_1227_97288" x1="191.597" y1="0" x2="191.597" y2="59.4259" gradientUnits="userSpaceOnUse">
<stop stop-color="white" style="stop-color:white;stop-opacity:1;"/>
<stop offset="1" stop-color="white" stop-opacity="0" style="stop-color:none;stop-opacity:0;"/>
</linearGradient>
</defs>
</svg>
