<svg width="1300" height="716" viewBox="0 0 1300 716" fill="none" xmlns="http://www.w3.org/2000/svg">
<g id="head">
<g clip-path="url(#clip0_245_15013)">
<g id="Frame 1430102160">
<path id="SVG Motion" d="M86.5058 139.299H113.278C114.83 143.567 117.869 146.929 122.396 149.387C127.052 151.844 133.195 153.073 140.826 153.073C146.128 153.073 150.202 152.685 153.048 151.909C156.022 151.003 158.027 149.71 159.062 148.029C160.096 146.347 160.614 144.472 160.614 142.403C160.614 139.816 159.708 137.876 157.898 136.583C156.087 135.16 153.242 134.061 149.362 133.285C145.482 132.509 140.373 131.797 134.036 131.151C127.957 130.375 122.137 129.405 116.576 128.241C111.144 126.947 106.358 125.266 102.22 123.197C98.0811 121.127 94.8478 118.476 92.5198 115.243C90.1918 111.88 89.0278 107.741 89.0278 102.827C89.0278 97.9121 90.3211 93.6441 92.9078 90.0228C95.4945 86.2721 99.0511 83.1681 103.578 80.7108C108.234 78.2534 113.601 76.4428 119.68 75.2788C125.888 73.9854 132.419 73.3388 139.274 73.3388C150.138 73.3388 159.062 74.7614 166.046 77.6068C173.159 80.4521 178.462 84.4614 181.954 89.6348C185.446 94.6788 187.192 100.434 187.192 106.901H161.39C160.226 102.374 158.027 99.1408 154.794 97.2008C151.56 95.2608 146.387 94.2908 139.274 94.2908C132.548 94.2908 127.44 95.1961 123.948 97.0068C120.585 98.8174 118.904 101.339 118.904 104.573C118.904 107.159 119.874 109.164 121.814 110.587C123.883 112.009 127.052 113.173 131.32 114.079C135.588 114.855 141.149 115.631 148.004 116.407C153.436 117.312 158.674 118.347 163.718 119.511C168.762 120.545 173.288 122.097 177.298 124.167C181.307 126.107 184.476 128.758 186.804 132.121C189.261 135.354 190.49 139.622 190.49 144.925C190.49 151.262 188.485 156.629 184.476 161.027C180.466 165.295 174.776 168.593 167.404 170.921C160.032 173.119 151.237 174.219 141.02 174.219C131.966 174.219 124.206 173.378 117.74 171.697C111.273 169.886 105.906 167.623 101.638 164.907C97.4991 162.061 94.2658 159.022 91.9378 155.789C89.7391 152.555 88.1871 149.516 87.2818 146.671C86.5058 143.696 86.2471 141.239 86.5058 139.299ZM250.978 155.013H239.532L277.168 75.4728H308.984L258.932 171.697H231.384L182.496 75.4728H214.506L250.978 155.013ZM357.741 157.147C345.842 157.147 335.56 155.595 326.895 152.491C318.229 149.387 311.569 144.731 306.913 138.523C302.386 132.315 300.123 124.749 300.123 115.825C300.123 107.159 302.321 99.6581 306.719 93.3208C311.245 86.9834 317.841 82.0688 326.507 78.5768C335.172 75.0848 345.583 73.3388 357.741 73.3388C360.845 73.3388 363.884 73.4681 366.859 73.7268C369.963 73.9854 372.937 74.4381 375.783 75.0848H429.133V95.0668C422.149 95.3254 415.1 94.6141 407.987 92.9328C400.873 91.2514 394.536 89.3761 388.975 87.3068L388.199 85.7548C392.855 87.6948 397.187 90.2168 401.197 93.3208C405.335 96.2954 408.698 99.7874 411.285 103.797C413.871 107.677 415.165 112.268 415.165 117.571C415.165 125.848 412.901 132.961 408.375 138.911C403.848 144.86 397.317 149.387 388.781 152.491C380.374 155.595 370.027 157.147 357.741 157.147ZM391.885 211.855V207.005C391.885 201.443 390.009 197.628 386.259 195.559C382.508 193.619 377.27 192.649 370.545 192.649H336.013C329.675 192.649 324.373 192.131 320.105 191.097C315.837 190.191 312.474 188.833 310.017 187.023C307.559 185.212 305.813 183.143 304.779 180.815C303.873 178.487 303.421 176.029 303.421 173.443C303.421 168.14 305.167 164.131 308.659 161.415C312.151 158.699 317.001 156.888 323.209 155.983C329.417 154.948 336.465 154.625 344.355 155.013L357.741 157.147C349.205 157.405 342.932 158.117 338.923 159.281C334.913 160.315 332.909 162.449 332.909 165.683C332.909 167.623 333.685 169.11 335.237 170.145C336.789 171.179 338.987 171.697 341.833 171.697H378.111C387.552 171.697 395.441 172.602 401.779 174.413C408.116 176.353 412.837 179.521 415.941 183.919C419.174 188.445 420.791 194.589 420.791 202.349V211.855H391.885ZM357.741 137.747C363.949 137.747 369.187 136.906 373.455 135.225C377.852 133.414 381.215 130.892 383.543 127.659C385.871 124.425 387.035 120.61 387.035 116.213C387.035 111.557 385.871 107.612 383.543 104.379C381.215 101.016 377.917 98.4941 373.649 96.8128C369.381 95.0021 364.078 94.0968 357.741 94.0968C351.662 94.0968 346.359 95.0021 341.833 96.8128C337.435 98.4941 334.073 101.016 331.745 104.379C329.417 107.612 328.253 111.557 328.253 116.213C328.253 120.61 329.417 124.425 331.745 127.659C334.073 130.892 337.435 133.414 341.833 135.225C346.23 136.906 351.533 137.747 357.741 137.747ZM466.679 75.4728H495.779V171.697H466.679V75.4728ZM545.055 73.3388C551.392 73.3388 557.212 74.1148 562.515 75.6668C567.947 77.2188 572.732 79.6761 576.871 83.0388C581.01 86.4014 584.178 90.7341 586.377 96.0368C588.705 101.21 589.869 107.547 589.869 115.049V171.697H560.769V119.705C560.769 111.298 558.7 105.155 554.561 101.275C550.422 97.3948 543.503 95.4548 533.803 95.4548C527.078 95.4548 520.87 96.6834 515.179 99.1408C509.618 101.598 504.962 104.637 501.211 108.259C497.59 111.88 495.326 115.566 494.421 119.317L494.033 110.005C494.68 105.866 496.232 101.663 498.689 97.3948C501.146 93.1268 504.509 89.1821 508.777 85.5608C513.045 81.8101 518.218 78.8354 524.297 76.6368C530.376 74.4381 537.295 73.3388 545.055 73.3388ZM636.817 73.3388C643.154 73.3388 649.039 74.1148 654.471 75.6668C659.903 77.2188 664.624 79.6761 668.633 83.0388C672.772 86.4014 676.005 90.7341 678.333 96.0368C680.661 101.21 681.825 107.547 681.825 115.049V171.697H652.725V119.705C652.725 111.298 650.656 105.155 646.517 101.275C642.378 97.3948 635.459 95.4548 625.759 95.4548C618.904 95.4548 612.632 96.6834 606.941 99.1408C601.38 101.598 596.724 104.637 592.973 108.259C589.352 111.88 587.153 115.566 586.377 119.317L585.989 109.229C586.506 105.349 588.058 101.339 590.645 97.2008C593.361 92.9328 596.918 88.9881 601.315 85.3668C605.712 81.7454 610.886 78.8354 616.835 76.6368C622.784 74.4381 629.445 73.3388 636.817 73.3388ZM752.961 174.219C739.381 174.219 727.547 172.343 717.459 168.593C707.371 164.713 699.611 159.087 694.179 151.715C688.747 144.213 686.031 134.966 686.031 123.973C686.031 112.85 688.747 103.538 694.179 96.0368C699.611 88.4061 707.371 82.7154 717.459 78.9648C727.547 75.2141 739.381 73.3388 752.961 73.3388C766.67 73.3388 778.44 75.2141 788.269 78.9648C798.228 82.7154 805.923 88.4061 811.355 96.0368C816.787 103.538 819.503 112.85 819.503 123.973C819.503 134.966 816.787 144.213 811.355 151.715C805.923 159.087 798.228 164.713 788.269 168.593C778.44 172.343 766.67 174.219 752.961 174.219ZM752.961 153.073C760.204 153.073 766.606 151.973 772.167 149.775C777.728 147.576 782.061 144.278 785.165 139.881C788.398 135.483 790.015 130.181 790.015 123.973C790.015 117.635 788.398 112.268 785.165 107.871C782.061 103.344 777.728 99.9168 772.167 97.5888C766.735 95.2608 760.333 94.0968 752.961 94.0968C745.718 94.0968 739.252 95.2608 733.561 97.5888C728 99.9168 723.602 103.279 720.369 107.677C717.136 112.074 715.519 117.506 715.519 123.973C715.519 130.181 717.071 135.483 720.175 139.881C723.408 144.278 727.806 147.576 733.367 149.775C739.058 151.973 745.589 153.073 752.961 153.073ZM817.518 75.4728H923.442V96.4248H817.518V75.4728ZM842.544 48.7008H871.644V171.697H842.544V48.7008ZM944.588 31.8228V55.2968H911.608V31.8228H944.588ZM913.548 75.4728H942.454V171.697H913.548V75.4728ZM1016.23 174.219C1002.65 174.219 990.819 172.343 980.731 168.593C970.643 164.713 962.883 159.087 957.451 151.715C952.019 144.213 949.303 134.966 949.303 123.973C949.303 112.85 952.019 103.538 957.451 96.0368C962.883 88.4061 970.643 82.7154 980.731 78.9648C990.819 75.2141 1002.65 73.3388 1016.23 73.3388C1029.94 73.3388 1041.71 75.2141 1051.54 78.9648C1061.5 82.7154 1069.19 88.4061 1074.63 96.0368C1080.06 103.538 1082.77 112.85 1082.77 123.973C1082.77 134.966 1080.06 144.213 1074.63 151.715C1069.19 159.087 1061.5 164.713 1051.54 168.593C1041.71 172.343 1029.94 174.219 1016.23 174.219ZM1016.23 153.073C1023.48 153.073 1029.88 151.973 1035.44 149.775C1041 147.576 1045.33 144.278 1048.44 139.881C1051.67 135.483 1053.29 130.181 1053.29 123.973C1053.29 117.635 1051.67 112.268 1048.44 107.871C1045.33 103.344 1041 99.9168 1035.44 97.5888C1030.01 95.2608 1023.6 94.0968 1016.23 94.0968C1008.99 94.0968 1002.52 95.2608 996.833 97.5888C991.271 99.9168 986.874 103.279 983.641 107.677C980.407 112.074 978.791 117.506 978.791 123.973C978.791 130.181 980.343 135.483 983.447 139.881C986.68 144.278 991.077 147.576 996.639 149.775C1002.33 151.973 1008.86 153.073 1016.23 153.073ZM1087.19 75.4728H1116.29V171.697H1087.19V75.4728ZM1165.57 73.3388C1171.9 73.3388 1177.72 74.1148 1183.03 75.6668C1188.46 77.2188 1193.24 79.6761 1197.38 83.0388C1201.52 86.4014 1204.69 90.7341 1206.89 96.0368C1209.22 101.21 1210.38 107.547 1210.38 115.049V171.697H1181.28V119.705C1181.28 111.298 1179.21 105.155 1175.07 101.275C1170.93 97.3948 1164.02 95.4548 1154.32 95.4548C1147.59 95.4548 1141.38 96.6834 1135.69 99.1408C1130.13 101.598 1125.47 104.637 1121.72 108.259C1118.1 111.88 1115.84 115.566 1114.93 119.317L1114.55 110.005C1115.19 105.866 1116.74 101.663 1119.2 97.3948C1121.66 93.1268 1125.02 89.1821 1129.29 85.5608C1133.56 81.8101 1138.73 78.8354 1144.81 76.6368C1150.89 74.4381 1157.81 73.3388 1165.57 73.3388Z" fill="black" style="fill:black;fill-opacity:1;"></path>
<g id="Frame 1430102140">
<path id="Plagin dlya Figma djpanimiruetfllinii xekvrxodin klik" d="M92.418 228.613H105.6V246.761H103.416V230.537H94.602V246.761H92.418V228.613ZM108.235 244.941H110.003C110.229 244.629 110.428 244.256 110.601 243.823C110.775 243.389 110.922 242.869 111.043 242.263C111.165 241.656 111.26 240.937 111.329 240.105C111.399 239.273 111.433 238.293 111.433 237.167V233.345H120.507V246.761H118.427V235.165H113.409V237.219C113.409 238.519 113.357 239.654 113.253 240.625C113.167 241.595 113.037 242.427 112.863 243.121C112.707 243.814 112.517 244.386 112.291 244.837C112.066 245.27 111.823 245.617 111.563 245.877C111.234 246.206 110.87 246.44 110.471 246.579C110.073 246.7 109.596 246.761 109.041 246.761H108.235V244.941ZM134.689 246.761C133.909 246.761 133.345 246.553 132.999 246.137C132.669 245.721 132.461 245.201 132.375 244.577H132.245C131.95 245.409 131.465 246.033 130.789 246.449C130.113 246.865 129.307 247.073 128.371 247.073C126.949 247.073 125.84 246.709 125.043 245.981C124.263 245.253 123.873 244.265 123.873 243.017C123.873 241.751 124.332 240.781 125.251 240.105C126.187 239.429 127.634 239.091 129.593 239.091H132.245V237.765C132.245 236.811 131.985 236.083 131.465 235.581C130.945 235.078 130.147 234.827 129.073 234.827C128.258 234.827 127.573 235.009 127.019 235.373C126.481 235.737 126.031 236.222 125.667 236.829L124.419 235.659C124.783 234.931 125.363 234.315 126.161 233.813C126.958 233.293 127.963 233.033 129.177 233.033C130.806 233.033 132.071 233.431 132.973 234.229C133.874 235.026 134.325 236.135 134.325 237.557V244.941H135.859V246.761H134.689ZM128.709 245.305C129.229 245.305 129.705 245.244 130.139 245.123C130.572 245.001 130.945 244.828 131.257 244.603C131.569 244.377 131.811 244.117 131.985 243.823C132.158 243.528 132.245 243.207 132.245 242.861V240.651H129.489C128.293 240.651 127.417 240.824 126.863 241.171C126.325 241.517 126.057 242.02 126.057 242.679V243.225C126.057 243.883 126.291 244.395 126.759 244.759C127.244 245.123 127.894 245.305 128.709 245.305ZM138.827 233.345H147.303V235.165H140.907V246.761H138.827V233.345ZM150.126 233.345H152.154V240.781L151.946 244.005H152.05L153.714 241.145L159.07 233.345H160.994V246.761H158.966V239.325L159.174 236.101H159.07L157.406 238.961L152.05 246.761H150.126V233.345ZM165.411 233.345H167.491V238.935H174.199V233.345H176.279V246.761H174.199V240.755H167.491V246.761H165.411V233.345ZM184.839 244.941H186.373C186.91 244.074 187.344 242.991 187.673 241.691C188.002 240.391 188.167 238.9 188.167 237.219V233.345H197.241V244.941H199.477V250.401H197.579V246.761H186.737V250.401H184.839V244.941ZM195.161 244.941V235.165H190.143V237.323C190.143 239.108 189.987 240.633 189.675 241.899C189.38 243.147 189.025 244.161 188.609 244.941H195.161ZM200.505 244.941H202.273C202.498 244.629 202.698 244.256 202.871 243.823C203.044 243.389 203.192 242.869 203.313 242.263C203.434 241.656 203.53 240.937 203.599 240.105C203.668 239.273 203.703 238.293 203.703 237.167V233.345H212.777V246.761H210.697V235.165H205.679V237.219C205.679 238.519 205.627 239.654 205.523 240.625C205.436 241.595 205.306 242.427 205.133 243.121C204.977 243.814 204.786 244.386 204.561 244.837C204.336 245.27 204.093 245.617 203.833 245.877C203.504 246.206 203.14 246.44 202.741 246.579C202.342 246.7 201.866 246.761 201.311 246.761H200.505V244.941ZM216.012 244.941H217.494L218.352 242.965C218.543 242.514 218.777 242.176 219.054 241.951C219.331 241.708 219.643 241.561 219.99 241.509V241.405C218.794 241.301 217.893 240.911 217.286 240.235C216.679 239.559 216.376 238.649 216.376 237.505C216.376 236.205 216.766 235.191 217.546 234.463C218.326 233.717 219.401 233.345 220.77 233.345H226.698V246.761H224.618V241.613H221.134L219.73 244.915C219.418 245.643 219.071 246.137 218.69 246.397C218.326 246.639 217.91 246.761 217.442 246.761H216.012V244.941ZM224.618 239.845V235.165H221.082C220.302 235.165 219.695 235.312 219.262 235.607C218.829 235.901 218.612 236.395 218.612 237.089V237.947C218.612 238.64 218.829 239.134 219.262 239.429C219.695 239.706 220.302 239.845 221.082 239.845H224.618ZM237.475 246.761V228.613H248.291V230.537H239.659V236.621H247.537V238.545H239.659V246.761H237.475ZM252.83 230.199C252.379 230.199 252.05 230.095 251.842 229.887C251.651 229.661 251.556 229.375 251.556 229.029V228.691C251.556 228.344 251.651 228.067 251.842 227.859C252.05 227.633 252.379 227.521 252.83 227.521C253.281 227.521 253.601 227.633 253.792 227.859C254 228.067 254.104 228.344 254.104 228.691V229.029C254.104 229.375 254 229.661 253.792 229.887C253.601 230.095 253.281 230.199 252.83 230.199ZM251.79 233.345H253.87V246.761H251.79V233.345ZM269.6 248.243C269.6 249.629 269.054 250.643 267.962 251.285C266.887 251.943 265.267 252.273 263.1 252.273C261.003 252.273 259.495 251.987 258.576 251.415C257.657 250.843 257.198 250.028 257.198 248.971C257.198 248.243 257.389 247.671 257.77 247.255C258.151 246.856 258.671 246.561 259.33 246.371V246.085C258.533 245.703 258.134 245.079 258.134 244.213C258.134 243.537 258.351 243.025 258.784 242.679C259.217 242.315 259.772 242.046 260.448 241.873V241.769C259.651 241.387 259.027 240.841 258.576 240.131C258.143 239.42 257.926 238.597 257.926 237.661C257.926 236.985 258.047 236.361 258.29 235.789C258.533 235.217 258.871 234.731 259.304 234.333C259.755 233.917 260.283 233.596 260.89 233.371C261.514 233.145 262.207 233.033 262.97 233.033C263.923 233.033 264.773 233.206 265.518 233.553V233.319C265.518 232.799 265.639 232.374 265.882 232.045C266.125 231.698 266.523 231.525 267.078 231.525H269.08V233.345H266.532V234.203C267.017 234.619 267.39 235.121 267.65 235.711C267.927 236.283 268.066 236.933 268.066 237.661C268.066 238.337 267.945 238.961 267.702 239.533C267.459 240.105 267.113 240.599 266.662 241.015C266.229 241.413 265.7 241.725 265.076 241.951C264.452 242.176 263.759 242.289 262.996 242.289C262.563 242.289 262.129 242.245 261.696 242.159C261.245 242.28 260.838 242.462 260.474 242.705C260.11 242.93 259.928 243.251 259.928 243.667C259.928 244.065 260.119 244.334 260.5 244.473C260.881 244.611 261.375 244.681 261.982 244.681H264.842C266.506 244.681 267.711 245.001 268.456 245.643C269.219 246.267 269.6 247.133 269.6 248.243ZM267.65 248.399C267.65 247.861 267.442 247.428 267.026 247.099C266.627 246.787 265.908 246.631 264.868 246.631H260.396C259.564 247.012 259.148 247.619 259.148 248.451C259.148 249.04 259.365 249.543 259.798 249.959C260.249 250.375 261.003 250.583 262.06 250.583H263.984C265.145 250.583 266.047 250.401 266.688 250.037C267.329 249.673 267.65 249.127 267.65 248.399ZM262.996 240.625C263.88 240.625 264.582 240.417 265.102 240.001C265.622 239.567 265.882 238.909 265.882 238.025V237.297C265.882 236.413 265.622 235.763 265.102 235.347C264.582 234.913 263.88 234.697 262.996 234.697C262.112 234.697 261.41 234.913 260.89 235.347C260.37 235.763 260.11 236.413 260.11 237.297V238.025C260.11 238.909 260.37 239.567 260.89 240.001C261.41 240.417 262.112 240.625 262.996 240.625ZM272.026 246.761V233.345H274.106V235.529H274.21C274.366 235.182 274.54 234.861 274.73 234.567C274.938 234.255 275.181 233.986 275.458 233.761C275.753 233.535 276.091 233.362 276.472 233.241C276.854 233.102 277.304 233.033 277.824 233.033C278.708 233.033 279.523 233.249 280.268 233.683C281.014 234.099 281.568 234.792 281.932 235.763H281.984C282.227 235.035 282.678 234.402 283.336 233.865C284.012 233.31 284.922 233.033 286.066 233.033C287.436 233.033 288.502 233.483 289.264 234.385C290.044 235.269 290.434 236.525 290.434 238.155V246.761H288.354V238.519C288.354 237.323 288.12 236.421 287.652 235.815C287.184 235.208 286.439 234.905 285.416 234.905C285 234.905 284.602 234.957 284.22 235.061C283.856 235.165 283.527 235.321 283.232 235.529C282.938 235.737 282.704 236.005 282.53 236.335C282.357 236.647 282.27 237.019 282.27 237.453V246.761H280.19V238.519C280.19 237.323 279.956 236.421 279.488 235.815C279.02 235.208 278.292 234.905 277.304 234.905C276.888 234.905 276.49 234.957 276.108 235.061C275.727 235.165 275.389 235.321 275.094 235.529C274.8 235.737 274.557 236.005 274.366 236.335C274.193 236.647 274.106 237.019 274.106 237.453V246.761H272.026ZM304.476 246.761C303.696 246.761 303.132 246.553 302.786 246.137C302.456 245.721 302.248 245.201 302.162 244.577H302.032C301.737 245.409 301.252 246.033 300.576 246.449C299.9 246.865 299.094 247.073 298.158 247.073C296.736 247.073 295.627 246.709 294.83 245.981C294.05 245.253 293.66 244.265 293.66 243.017C293.66 241.751 294.119 240.781 295.038 240.105C295.974 239.429 297.421 239.091 299.38 239.091H302.032V237.765C302.032 236.811 301.772 236.083 301.252 235.581C300.732 235.078 299.934 234.827 298.86 234.827C298.045 234.827 297.36 235.009 296.806 235.373C296.268 235.737 295.818 236.222 295.454 236.829L294.206 235.659C294.57 234.931 295.15 234.315 295.948 233.813C296.745 233.293 297.75 233.033 298.964 233.033C300.593 233.033 301.858 233.431 302.76 234.229C303.661 235.026 304.112 236.135 304.112 237.557V244.941H305.646V246.761H304.476ZM298.496 245.305C299.016 245.305 299.492 245.244 299.926 245.123C300.359 245.001 300.732 244.828 301.044 244.603C301.356 244.377 301.598 244.117 301.772 243.823C301.945 243.528 302.032 243.207 302.032 242.861V240.651H299.276C298.08 240.651 297.204 240.824 296.65 241.171C296.112 241.517 295.844 242.02 295.844 242.679V243.225C295.844 243.883 296.078 244.395 296.546 244.759C297.031 245.123 297.681 245.305 298.496 245.305ZM101.96 284.761C101.18 284.761 100.617 284.553 100.27 284.137C99.9407 283.721 99.7327 283.201 99.646 282.577H99.516C99.2213 283.409 98.736 284.033 98.06 284.449C97.384 284.865 96.578 285.073 95.642 285.073C94.2207 285.073 93.1113 284.709 92.314 283.981C91.534 283.253 91.144 282.265 91.144 281.017C91.144 279.751 91.6033 278.781 92.522 278.105C93.458 277.429 94.9053 277.091 96.864 277.091H99.516V275.765C99.516 274.811 99.256 274.083 98.736 273.581C98.216 273.078 97.4187 272.827 96.344 272.827C95.5293 272.827 94.8447 273.009 94.29 273.373C93.7527 273.737 93.302 274.222 92.938 274.829L91.69 273.659C92.054 272.931 92.6347 272.315 93.432 271.813C94.2293 271.293 95.2347 271.033 96.448 271.033C98.0773 271.033 99.3427 271.431 100.244 272.229C101.145 273.026 101.596 274.135 101.596 275.557V282.941H103.13V284.761H101.96ZM95.98 283.305C96.5 283.305 96.9767 283.244 97.41 283.123C97.8433 283.001 98.216 282.828 98.528 282.603C98.84 282.377 99.0827 282.117 99.256 281.823C99.4293 281.528 99.516 281.207 99.516 280.861V278.651H96.76C95.564 278.651 94.6887 278.824 94.134 279.171C93.5967 279.517 93.328 280.02 93.328 280.679V281.225C93.328 281.883 93.562 282.395 94.03 282.759C94.5153 283.123 95.1653 283.305 95.98 283.305ZM106.099 271.345H108.179V276.935H114.887V271.345H116.967V284.761H114.887V278.755H108.179V284.761H106.099V271.345ZM121.384 271.345H123.412V278.781L123.204 282.005H123.308L124.972 279.145L130.328 271.345H132.252V284.761H130.224V277.325L130.432 274.101H130.328L128.664 276.961L123.308 284.761H121.384V271.345ZM136.669 271.345H139.399L143.481 278.313H143.585L147.641 271.345H150.345V284.761H148.317V273.841H148.187L147.433 275.297L143.507 281.953L139.581 275.297L138.827 273.841H138.697V284.761H136.669V271.345ZM154.773 271.345H156.801V278.781L156.593 282.005H156.697L158.361 279.145L163.717 271.345H165.641V284.761H163.613V277.325L163.821 274.101H163.717L162.053 276.961L156.697 284.761H154.773V271.345ZM170.058 271.345H172.138V273.529H172.242C172.588 272.679 173.091 272.055 173.75 271.657C174.426 271.241 175.232 271.033 176.168 271.033C177 271.033 177.754 271.197 178.43 271.527C179.106 271.856 179.678 272.324 180.146 272.931C180.631 273.537 180.995 274.274 181.238 275.141C181.498 276.007 181.628 276.978 181.628 278.053C181.628 279.127 181.498 280.098 181.238 280.965C180.995 281.831 180.631 282.568 180.146 283.175C179.678 283.781 179.106 284.249 178.43 284.579C177.754 284.908 177 285.073 176.168 285.073C174.348 285.073 173.039 284.241 172.242 282.577H172.138V289.961H170.058V271.345ZM175.596 283.201C176.774 283.201 177.702 282.837 178.378 282.109C179.054 281.363 179.392 280.393 179.392 279.197V276.909C179.392 275.713 179.054 274.751 178.378 274.023C177.702 273.277 176.774 272.905 175.596 272.905C175.128 272.905 174.677 272.974 174.244 273.113C173.828 273.234 173.464 273.407 173.152 273.633C172.84 273.858 172.588 274.135 172.398 274.465C172.224 274.777 172.138 275.115 172.138 275.479V280.471C172.138 280.904 172.224 281.294 172.398 281.641C172.588 281.97 172.84 282.256 173.152 282.499C173.464 282.724 173.828 282.897 174.244 283.019C174.677 283.14 175.128 283.201 175.596 283.201ZM193.281 271.345H195.335L189.329 287.881C189.173 288.279 189.017 288.609 188.861 288.869C188.705 289.146 188.514 289.363 188.289 289.519C188.063 289.675 187.777 289.787 187.431 289.857C187.101 289.926 186.694 289.961 186.209 289.961H185.143V288.141H187.249L188.263 285.281L183.245 271.345H185.325L188.549 280.471L189.173 282.655H189.303L190.031 280.471L193.281 271.345ZM202.904 285.073C201.986 285.073 201.154 284.908 200.408 284.579C199.68 284.249 199.048 283.781 198.51 283.175C197.99 282.551 197.583 281.814 197.288 280.965C197.011 280.098 196.872 279.127 196.872 278.053C196.872 276.995 197.011 276.033 197.288 275.167C197.583 274.3 197.99 273.563 198.51 272.957C199.048 272.333 199.68 271.856 200.408 271.527C201.154 271.197 201.986 271.033 202.904 271.033C203.806 271.033 204.612 271.197 205.322 271.527C206.033 271.856 206.64 272.315 207.142 272.905C207.645 273.477 208.026 274.161 208.286 274.959C208.564 275.756 208.702 276.631 208.702 277.585V278.573H199.056V279.197C199.056 279.769 199.143 280.306 199.316 280.809C199.507 281.294 199.767 281.719 200.096 282.083C200.443 282.447 200.859 282.733 201.344 282.941C201.847 283.149 202.41 283.253 203.034 283.253C203.884 283.253 204.62 283.053 205.244 282.655C205.886 282.256 206.38 281.684 206.726 280.939L208.208 282.005C207.775 282.923 207.099 283.669 206.18 284.241C205.262 284.795 204.17 285.073 202.904 285.073ZM202.904 272.775C202.332 272.775 201.812 272.879 201.344 273.087C200.876 273.277 200.469 273.555 200.122 273.919C199.793 274.283 199.533 274.716 199.342 275.219C199.152 275.704 199.056 276.241 199.056 276.831V277.013H206.466V276.727C206.466 275.531 206.137 274.577 205.478 273.867C204.837 273.139 203.979 272.775 202.904 272.775ZM214.686 273.165H210.11V271.345H221.342V273.165H216.766V284.761H214.686V273.165ZM228.206 282.941H229.974C230.199 282.629 230.399 282.256 230.572 281.823C230.745 281.389 230.893 280.869 231.014 280.263C231.135 279.656 231.231 278.937 231.3 278.105C231.369 277.273 231.404 276.293 231.404 275.167V271.345H240.478V284.761H238.398V273.165H233.38V275.219C233.38 276.519 233.328 277.654 233.224 278.625C233.137 279.595 233.007 280.427 232.834 281.121C232.678 281.814 232.487 282.386 232.262 282.837C232.037 283.27 231.794 283.617 231.534 283.877C231.205 284.206 230.841 284.44 230.442 284.579C230.043 284.7 229.567 284.761 229.012 284.761H228.206V282.941ZM244.909 271.345H246.937V278.781L246.729 282.005H246.833L248.497 279.145L253.853 271.345H255.777V284.761H253.749V277.325L253.957 274.101H253.853L252.189 276.961L246.833 284.761H244.909V271.345ZM260.194 271.345H262.274V276.935H268.982V271.345H271.062V284.761H268.982V278.755H262.274V284.761H260.194V271.345ZM275.48 271.345H277.508V278.781L277.3 282.005H277.404L279.068 279.145L284.424 271.345H286.348V284.761H284.32V277.325L284.528 274.101H284.424L282.76 276.961L277.404 284.761H275.48V271.345ZM290.765 271.345H292.793V278.781L292.585 282.005H292.689L294.353 279.145L299.709 271.345H301.633V284.761H299.605V277.325L299.813 274.101H299.709L298.045 276.961L292.689 284.761H290.765V271.345ZM92.21 309.345H98.97C100.062 309.345 100.92 309.657 101.544 310.281C102.168 310.887 102.48 311.711 102.48 312.751C102.48 314.432 101.605 315.377 99.854 315.585V315.689C100.894 315.775 101.665 316.105 102.168 316.677C102.688 317.231 102.948 317.925 102.948 318.757C102.948 319.294 102.861 319.805 102.688 320.291C102.532 320.776 102.298 321.201 101.986 321.565C101.674 321.929 101.293 322.223 100.842 322.449C100.391 322.657 99.88 322.761 99.308 322.761H92.21V309.345ZM98.684 321.045C99.308 321.045 99.802 320.88 100.166 320.551C100.53 320.221 100.712 319.753 100.712 319.147V318.549C100.712 317.942 100.53 317.474 100.166 317.145C99.802 316.815 99.308 316.651 98.684 316.651H94.29V321.045H98.684ZM98.424 314.961C98.996 314.961 99.438 314.822 99.75 314.545C100.079 314.25 100.244 313.834 100.244 313.297V312.725C100.244 312.187 100.079 311.78 99.75 311.503C99.438 311.208 98.996 311.061 98.424 311.061H94.29V314.961H98.424ZM117.923 323.073C117.021 323.073 116.198 322.908 115.453 322.579C114.707 322.249 114.066 321.781 113.529 321.175C113.009 320.551 112.601 319.814 112.307 318.965C112.012 318.098 111.865 317.127 111.865 316.053C111.865 314.995 112.012 314.033 112.307 313.167C112.601 312.3 113.009 311.563 113.529 310.957C114.066 310.333 114.707 309.856 115.453 309.527C116.198 309.197 117.021 309.033 117.923 309.033C118.824 309.033 119.639 309.197 120.367 309.527C121.112 309.856 121.753 310.333 122.291 310.957C122.828 311.563 123.244 312.3 123.539 313.167C123.833 314.033 123.981 314.995 123.981 316.053C123.981 317.127 123.833 318.098 123.539 318.965C123.244 319.814 122.828 320.551 122.291 321.175C121.753 321.781 121.112 322.249 120.367 322.579C119.639 322.908 118.824 323.073 117.923 323.073ZM117.923 321.227C119.049 321.227 119.968 320.88 120.679 320.187C121.389 319.493 121.745 318.436 121.745 317.015V315.091C121.745 313.669 121.389 312.612 120.679 311.919C119.968 311.225 119.049 310.879 117.923 310.879C116.796 310.879 115.877 311.225 115.167 311.919C114.456 312.612 114.101 313.669 114.101 315.091V317.015C114.101 318.436 114.456 319.493 115.167 320.187C115.877 320.88 116.796 321.227 117.923 321.227ZM125.349 320.941H126.883C127.42 320.074 127.853 318.991 128.183 317.691C128.512 316.391 128.677 314.9 128.677 313.219V309.345H137.751V320.941H139.987V326.401H138.089V322.761H127.247V326.401H125.349V320.941ZM135.671 320.941V311.165H130.653V313.323C130.653 315.108 130.497 316.633 130.185 317.899C129.89 319.147 129.535 320.161 129.119 320.941H135.671ZM142.864 309.345H144.892V316.781L144.684 320.005H144.788L146.452 317.145L151.808 309.345H153.732V322.761H151.704V315.325L151.912 312.101H151.808L150.144 314.961L144.788 322.761H142.864V309.345ZM158.149 309.345H160.229V314.935H166.937V309.345H169.017V322.761H166.937V316.755H160.229V322.761H158.149V309.345ZM179.579 309.345H181.659V314.961H184.337L186.937 310.853C187.128 310.541 187.31 310.289 187.483 310.099C187.656 309.891 187.83 309.735 188.003 309.631C188.176 309.527 188.358 309.457 188.549 309.423C188.74 309.371 188.956 309.345 189.199 309.345H190.421V311.165H188.809L186.703 314.493C186.564 314.718 186.443 314.9 186.339 315.039C186.235 315.177 186.131 315.299 186.027 315.403C185.923 315.489 185.81 315.567 185.689 315.637C185.568 315.689 185.42 315.741 185.247 315.793V315.897C185.611 315.949 185.923 316.07 186.183 316.261C186.46 316.434 186.746 316.781 187.041 317.301L189.095 320.941H190.629V322.761H189.121C188.67 322.761 188.254 322.648 187.873 322.423C187.509 322.18 187.154 321.747 186.807 321.123L184.337 316.729H181.659V322.761H179.579V309.345ZM191.872 320.941H193.64C193.865 320.629 194.065 320.256 194.238 319.823C194.411 319.389 194.559 318.869 194.68 318.263C194.801 317.656 194.897 316.937 194.966 316.105C195.035 315.273 195.07 314.293 195.07 313.167V309.345H204.144V322.761H202.064V311.165H197.046V313.219C197.046 314.519 196.994 315.654 196.89 316.625C196.803 317.595 196.673 318.427 196.5 319.121C196.344 319.814 196.153 320.386 195.928 320.837C195.703 321.27 195.46 321.617 195.2 321.877C194.871 322.206 194.507 322.44 194.108 322.579C193.709 322.7 193.233 322.761 192.678 322.761H191.872V320.941ZM208.575 309.345H210.603V316.781L210.395 320.005H210.499L212.163 317.145L217.519 309.345H219.443V322.761H217.415V315.325L217.623 312.101H217.519L215.855 314.961L210.499 322.761H208.575V309.345ZM223.86 309.345H225.94V314.961H228.618L231.218 310.853C231.409 310.541 231.591 310.289 231.764 310.099C231.938 309.891 232.111 309.735 232.284 309.631C232.458 309.527 232.64 309.457 232.83 309.423C233.021 309.371 233.238 309.345 233.48 309.345H234.702V311.165H233.09L230.984 314.493C230.846 314.718 230.724 314.9 230.62 315.039C230.516 315.177 230.412 315.299 230.308 315.403C230.204 315.489 230.092 315.567 229.97 315.637C229.849 315.689 229.702 315.741 229.528 315.793V315.897C229.892 315.949 230.204 316.07 230.464 316.261C230.742 316.434 231.028 316.781 231.322 317.301L233.376 320.941H234.91V322.761H233.402C232.952 322.761 232.536 322.648 232.154 322.423C231.79 322.18 231.435 321.747 231.088 321.123L228.618 316.729H225.94V322.761H223.86V309.345Z" fill="black" style="fill:black;fill-opacity:1;"></path>
</g>
</g>
<g id="Desktop _DavV_PA_PLU04">
<g id="Group 17869">
<g id="Mask group">
<mask id="mask0_245_15013" style="mask-type:alpha" maskUnits="userSpaceOnUse" x="681" y="213" width="279" height="510">
<rect id="Rectangle 5811" x="681.002" y="245.363" width="204.527" height="483.222" transform="rotate(-9.09171 681.002 245.363)" fill="#D9D9D9" style="fill:#D9D9D9;fill:color(display-p3 0.8510 0.8510 0.8510);fill-opacity:1;"></rect>
</mask>
<g mask="url(#mask0_245_15013)">
<g id="Vector 205332">
<path d="M-724.324 676.811L-588.208 869.555L-665.049 552.949L-490.004 853.84L-520.862 468.989L-359.62 832.975L-316.108 475.486L-167.538 842.069L-108.757 494.656L-9.32355 803.094L28.4396 420.35L149.157 751.558L215.817 442.716L287.152 696.471L345.846 391.18L432.429 686.88L527.63 392.818L587.47 681.416L614.695 442.617L705.841 404.132C709.695 398.584 722.304 386.816 741.905 384.135C766.406 380.783 813.389 386.353 846.723 374.19C873.39 364.46 894.793 349.806 902.161 343.695L935.716 311.581L1006.21 581.403L996.391 256.917L1064.93 585.663L1088.38 202.364L1167.66 555.567L1193.35 225.398L1329.8 509.134L1371.7 187.754L1457.35 470.515L1586.79 223.324L1604.33 496.5L1649.41 511.479" stroke="#FF3B3B" style="stroke: color(display-p3 1 0.2322 0.2322); stroke-opacity: 1; stroke-dashoffset: 9814.03px; stroke-dasharray: 7851.23px, 1962.81px; animation: 5.65663s linear 0s infinite normal forwards running id_anim_stroke-property3;" stroke-width="6" class="id_anim_stroke-property3" data-duration="5.656632528407499" data-offset="0"></path>
<path d="M-724.324 676.811L-588.208 869.555L-665.049 552.949L-490.004 853.84L-520.862 468.989L-359.62 832.975L-316.108 475.486L-167.538 842.069L-108.757 494.656L-9.32355 803.094L28.4396 420.35L149.157 751.558L215.817 442.716L287.152 696.471L345.846 391.18L432.429 686.88L527.63 392.818L587.47 681.416L614.695 442.617L705.841 404.132C709.695 398.584 722.304 386.816 741.905 384.135C766.406 380.783 813.389 386.353 846.723 374.19C873.39 364.46 894.793 349.806 902.161 343.695L935.716 311.581L1006.21 581.403L996.391 256.917L1064.93 585.663L1088.38 202.364L1167.66 555.567L1193.35 225.398L1329.8 509.134L1371.7 187.754L1457.35 470.515L1586.79 223.324L1604.33 496.5L1649.41 511.479" stroke="#FFEB3B" style="stroke: color(display-p3 1 0.9232 0.2322); stroke-opacity: 1; stroke-dashoffset: 9814.03px; stroke-dasharray: 7851.23px, 1962.81px; animation: 6.20489s linear 0s infinite normal forwards running id_anim_stroke-property4;" stroke-width="6" class="id_anim_stroke-property4" data-duration="6.204892845998984" data-offset="0"></path>
<path d="M-724.324 676.811L-588.208 869.555L-665.049 552.949L-490.004 853.84L-520.862 468.989L-359.62 832.975L-316.108 475.486L-167.538 842.069L-108.757 494.656L-9.32355 803.094L28.4396 420.35L149.157 751.558L215.817 442.716L287.152 696.471L345.846 391.18L432.429 686.88L527.63 392.818L587.47 681.416L614.695 442.617L705.841 404.132C709.695 398.584 722.304 386.816 741.905 384.135C766.406 380.783 813.389 386.353 846.723 374.19C873.39 364.46 894.793 349.806 902.161 343.695L935.716 311.581L1006.21 581.403L996.391 256.917L1064.93 585.663L1088.38 202.364L1167.66 555.567L1193.35 225.398L1329.8 509.134L1371.7 187.754L1457.35 470.515L1586.79 223.324L1604.33 496.5L1649.41 511.479" stroke="black" style="stroke: black; stroke-opacity: 1; stroke-dashoffset: 9814.03px; stroke-dasharray: 7851.23px, 1962.81px; animation: 5.62945s linear 0s infinite normal forwards running id_anim_stroke-property5;" stroke-width="6" class="id_anim_stroke-property5" data-duration="5.6294540196540765" data-offset="0"></path>
</g>
</g>
</g>
<path id="Vector 205331" d="M-132 707.438C-132 707.438 -127.5 709.5 -123.645 707.438C7.95997 669.307 31.3712 563.134 106.228 543.757C121.209 541.36 130.81 551.379 134.015 564.493C136.124 573.125 129.599 586.678 129.599 586.678C129.599 586.678 135.909 573.757 134.17 565.462C131.368 552.095 119.803 542.154 106.317 544.312C71.9177 549.817 49.6373 609.717 54.8757 642.452C57.1169 656.457 66.2703 671.676 80.11 668.573C150.972 652.68 205.871 412.576 199.325 389.446C197.869 384.304 195.867 375.533 190.625 377.751C155.449 392.628 139.762 579.069 144.891 621.788C147.267 641.582 154.356 656.122 167.129 654.078C205.412 647.952 207.273 531.571 263.311 522.603C268.932 521.704 276.238 521.598 277.137 527.219C278.935 538.456 199.684 565.933 209.406 616.016C212.241 630.621 222.606 646.29 236.948 642.336C284.908 629.115 302.838 556.255 299.974 538.36C299.493 535.35 298.035 531.842 295.025 532.323C281.709 534.454 278.781 590.832 281.6 608.446C283.515 620.412 289.754 631.467 301.863 631.948C331.07 633.109 386.106 521.875 382.532 499.542C381.844 495.241 378.142 491.064 373.988 492.374C362.07 496.132 361.733 504.693 363.224 514.012C366.887 536.901 394.222 558.371 399.49 591.288C402.265 608.628 397.516 628.735 376.677 633.633C368.822 635.479 361.528 627.87 360.253 619.903C354.749 585.504 516.246 478.144 499.021 370.508C499.021 370.508 496.557 355.113 486.016 356.8C448.842 362.749 444.099 610.469 444.099 610.469C444.099 610.469 465.313 501.234 501.932 495.374C510.647 493.979 516.977 502.838 517.623 511.641C519.066 531.326 510.278 561.753 515.804 578.509C519.853 590.783 529.165 597.994 544.146 595.597C582.983 589.382 711.19 476.682 706.041 444.502C705.353 440.201 701.743 438.302 697.496 437.334C688.702 435.328 683.843 448.023 685.268 456.931C688.969 480.056 719.824 512.857 721.423 537.069C722.771 557.484 719.782 576.595 695.725 582.721C687.304 584.865 679.076 578.252 677.703 569.672C673.974 546.369 814.143 412.408 810.323 317.421C810.12 312.359 809.489 305.036 804.486 305.837C776.745 310.276 765.453 470.844 771.069 530.832C772.222 543.144 777.572 556.588 789.934 556.265C823.934 555.376 863.236 463.162 861.903 426.388C861.695 420.632 856.383 415.891 850.696 416.801C841.264 418.311 838.122 430.099 839.089 440.282C840.482 454.957 855.338 464.426 869.894 462.097C890.422 458.812 912.466 443.66 909.219 423.369C907.621 413.382 877.862 486.998 884.676 518.911C886.849 529.09 892.841 539.797 903.119 538.152C933.634 533.269 988.182 411.871 988.182 411.871C988.182 411.871 949.811 460.12 959.289 494.452C963.646 510.239 972.536 524.155 988.851 522.726C1028.13 519.285 1042.29 458.409 1038.92 437.325C1036.47 422.027 1024.93 405.623 1010.09 410.073C1000.56 412.931 992.782 419.848 993.886 429.736C995.04 440.069 1005.36 443.786 1015.68 445.027C1068.48 451.373 1146.28 304.63 1140.25 266.901C1139.14 259.988 1135.27 252.021 1128.42 253.43C1090.95 261.132 1077.27 506.301 1077.27 506.301C1077.27 506.301 1091.93 395.268 1136.63 382.994C1145.19 380.643 1154.15 389.014 1153.81 397.885C1152.15 440.829 1096.66 449.708 1096.66 449.708C1096.66 449.708 1119.15 501.306 1152.44 495.979C1201.26 488.166 1255.21 402.144 1251.39 378.286C1250.24 371.084 1243.52 365.021 1236.5 367.012C1195.13 378.754 1197.31 442.137 1199.08 453.234C1202.64 475.427 1214.02 483.217 1231.22 483.371C1268.26 483.703 1348.98 375.529 1443.7 353.203C1463 350 1482 353.203 1482 353.203" stroke="#FF3B3B" style="stroke: color(display-p3 1 0.2322 0.2322); stroke-opacity: 1; stroke-dashoffset: 6420.36px; stroke-dasharray: 5136.29px, 1284.07px; animation: 5.35236s linear 0s infinite normal forwards running id_anim_stroke-property6;" stroke-width="6" stroke-linecap="round" class="id_anim_stroke-property6" data-duration="5.352361442055553" data-offset="0"></path>
<path id="Vector 205332_2" d="M-142 702.5C-142 702.5 -134.5 710.583 -123.645 707.438C7.95982 669.307 31.3712 563.134 106.228 543.757C121.209 541.36 130.81 551.379 134.015 564.493C136.124 573.125 129.599 586.678 129.599 586.678C129.599 586.678 135.909 573.757 134.17 565.462C131.368 552.095 119.803 542.154 106.317 544.312C71.9178 549.817 49.6372 609.717 54.8756 642.452C57.1168 656.457 66.2703 671.676 80.11 668.573C150.972 652.68 205.871 412.576 199.325 389.446C197.869 384.304 195.868 375.533 190.625 377.751C155.449 392.628 139.762 579.069 144.891 621.788C147.267 641.582 154.356 656.122 167.129 654.078C205.412 647.952 207.273 531.571 263.311 522.603C268.932 521.704 276.238 521.598 277.137 527.219C278.936 538.456 199.685 565.933 209.406 616.016C212.241 630.621 222.606 646.29 236.948 642.336C284.908 629.115 302.838 556.255 299.974 538.36C299.493 535.35 298.035 531.842 295.025 532.323C281.709 534.454 278.782 590.832 281.6 608.446C283.515 620.412 289.754 631.467 301.863 631.948C331.07 633.109 386.106 521.875 382.532 499.542C381.843 495.241 378.141 491.064 373.987 492.374C362.07 496.132 361.733 504.693 363.224 514.012C366.887 536.901 394.222 558.371 399.489 591.288C402.264 608.628 397.516 628.735 376.676 633.633C368.822 635.479 361.528 627.87 360.253 619.903C354.748 585.504 516.245 478.144 499.02 370.508C499.02 370.508 496.557 355.113 486.015 356.8C448.842 362.749 444.099 610.469 444.099 610.469C444.099 610.469 465.312 501.234 501.931 495.374C510.647 493.979 516.977 502.838 517.622 511.641C519.065 531.326 510.277 561.753 515.804 578.509C519.852 590.783 529.165 597.994 544.145 595.597C582.983 589.382 711.19 476.682 706.04 444.502C705.352 440.201 701.742 438.303 697.496 437.334C688.701 435.328 683.842 448.023 685.268 456.931C688.968 480.056 719.824 512.857 721.422 537.069C722.77 557.484 719.781 576.595 695.724 582.721C687.304 584.865 679.076 578.252 677.703 569.672C673.974 546.369 814.143 412.408 810.323 317.421C810.12 312.359 809.488 305.036 804.486 305.837C776.745 310.276 765.452 470.844 771.068 530.832C772.221 543.144 777.571 556.588 789.933 556.265C823.933 555.376 863.236 463.162 861.903 426.388C861.695 420.632 856.383 415.891 850.695 416.801C841.263 418.311 838.122 430.099 839.089 440.282C840.482 454.957 855.338 464.426 869.894 462.097C890.422 458.812 912.466 443.66 909.219 423.369C907.621 413.382 877.862 486.998 884.676 518.911C886.849 529.09 892.841 539.797 903.119 538.152C933.634 533.269 988.182 411.871 988.182 411.871C988.182 411.871 949.811 460.12 959.289 494.452C963.646 510.239 972.536 524.155 988.851 522.726C1028.13 519.285 1042.29 458.409 1038.92 437.325C1036.47 422.027 1024.93 405.623 1010.09 410.073C1000.56 412.931 992.782 419.848 993.886 429.736C995.04 440.069 1005.36 443.786 1015.68 445.027C1068.48 451.373 1146.28 304.63 1140.25 266.901C1139.14 259.988 1135.27 252.02 1128.42 253.43C1090.95 261.132 1077.27 506.301 1077.27 506.301C1077.27 506.301 1091.93 395.268 1136.63 382.994C1145.19 380.643 1154.15 389.014 1153.81 397.885C1152.15 440.829 1096.66 449.708 1096.66 449.708C1096.66 449.708 1119.15 501.306 1152.44 495.979C1201.26 488.166 1255.21 402.144 1251.39 378.286C1250.24 371.084 1243.52 365.021 1236.5 367.012C1195.13 378.754 1197.31 442.137 1199.08 453.234C1202.64 475.427 1214.02 483.217 1231.22 483.371C1268.26 483.703 1348.98 375.529 1443.7 353.203C1538.41 330.877 1655.91 477.435 1655.91 477.435" stroke="#FFEB3B" style="stroke: color(display-p3 1 0.9232 0.2322); stroke-opacity: 1; stroke-dashoffset: 6649.76px; stroke-dasharray: 5319.81px, 1329.95px; animation: 5.68993s linear 0s infinite normal forwards running id_anim_stroke-property7;" stroke-width="6" stroke-linecap="round" class="id_anim_stroke-property7" data-duration="5.689931603556033" data-offset="0"></path>
<path id="Vector 205333" d="M-354.498 694.305C-354.498 694.305 -255.249 745.569 -123.645 707.438C7.9598 669.307 31.3709 563.134 106.228 543.758C121.208 541.36 130.81 551.379 134.015 564.493C136.124 573.125 129.598 586.679 129.598 586.679C129.598 586.679 135.909 573.757 134.17 565.462C131.367 552.095 119.803 542.154 106.317 544.312C71.9175 549.817 49.6371 609.717 54.8755 642.452C57.1167 656.457 66.2701 671.676 80.1098 668.573C150.972 652.681 205.871 412.576 199.324 389.446C197.869 384.304 195.867 375.533 190.624 377.751C155.449 392.628 139.762 579.07 144.89 621.788C147.267 641.582 154.356 656.122 167.129 654.078C205.412 647.952 207.273 531.571 263.311 522.604C268.932 521.704 276.238 521.598 277.137 527.219C278.935 538.456 199.684 565.934 209.406 616.016C212.241 630.621 222.606 646.29 236.948 642.336C284.908 629.115 302.838 556.255 299.974 538.36C299.493 535.35 298.035 531.842 295.025 532.323C281.709 534.454 278.781 590.832 281.6 608.446C283.515 620.413 289.754 631.467 301.863 631.948C331.069 633.109 386.106 521.875 382.532 499.542C381.844 495.241 378.141 491.064 373.987 492.374C362.07 496.132 361.733 504.693 363.224 514.012C366.887 536.901 394.222 558.371 399.49 591.288C402.265 608.628 397.516 628.735 376.676 633.633C368.822 635.479 361.528 627.87 360.253 619.903C354.748 585.504 516.245 478.144 499.021 370.508C499.021 370.508 496.557 355.113 486.015 356.8C448.842 362.749 444.099 610.469 444.099 610.469C444.099 610.469 465.313 501.234 501.931 495.374C510.647 493.979 516.977 502.838 517.622 511.641C519.065 531.326 510.278 561.754 515.804 578.509C519.852 590.783 529.165 597.995 544.145 595.597C582.983 589.382 711.19 476.682 706.041 444.502C705.352 440.201 701.742 438.303 697.496 437.334C688.701 435.328 683.843 448.023 685.268 456.931C688.969 480.056 719.824 512.857 721.423 537.069C722.77 557.484 719.781 576.596 695.724 582.721C687.304 584.866 679.076 578.252 677.703 569.672C673.974 546.37 814.143 412.408 810.323 317.421C810.12 312.36 809.488 305.036 804.486 305.837C776.745 310.276 765.452 470.844 771.069 530.832C772.221 543.144 777.572 556.588 789.934 556.265C823.933 555.376 863.235 463.163 861.903 426.389C861.694 420.633 856.382 415.891 850.695 416.801C841.263 418.311 838.122 430.099 839.088 440.282C840.481 454.957 855.337 464.427 869.893 462.097C890.422 458.812 912.466 443.66 909.218 423.369C907.62 413.382 877.861 486.998 884.675 518.911C886.849 529.09 892.84 539.797 903.118 538.152C933.634 533.269 988.181 411.871 988.181 411.871C988.181 411.871 949.811 460.12 959.288 494.453C963.646 510.239 972.536 524.155 988.85 522.726C1028.13 519.285 1042.29 458.409 1038.92 437.325C1036.47 422.027 1024.93 405.623 1010.09 410.073C1000.56 412.931 992.782 419.848 993.886 429.736C995.039 440.069 1005.36 443.786 1015.68 445.027C1068.48 451.373 1146.28 304.63 1140.25 266.902C1139.14 259.988 1135.27 252.021 1128.42 253.431C1090.95 261.133 1077.27 506.301 1077.27 506.301C1077.27 506.301 1091.93 395.268 1136.63 382.994C1145.19 380.643 1154.15 389.014 1153.81 397.885C1152.15 440.829 1096.66 449.708 1096.66 449.708C1096.66 449.708 1119.15 501.306 1152.44 495.979C1201.26 488.166 1255.21 402.144 1251.39 378.286C1250.24 371.084 1243.52 365.021 1236.5 367.013C1195.13 378.754 1197.31 442.137 1199.08 453.234C1202.64 475.427 1214.02 483.217 1231.22 483.371C1268.26 483.703 1348.98 375.53 1443.69 353.203C1538.41 330.877 1655.91 477.435 1655.91 477.435" stroke="black" style="stroke: black; stroke-opacity: 1; stroke-dashoffset: 6865.82px; stroke-dasharray: 5492.65px, 1373.16px; animation: 5.65917s linear 0s infinite normal forwards running id_anim_stroke-property8;" stroke-width="6" stroke-linecap="round" class="id_anim_stroke-property8" data-duration="5.659165653923992" data-offset="0"></path>
</g>
</g>
</g>
</g>
<defs>
<clipPath id="clip0_245_15013">
<rect width="1300" height="715.761" rx="46.516" fill="white" style="fill:white;fill-opacity:1;"></rect>
</clipPath>
</defs>
<style>
        @keyframes id_anim_stroke-property3{
        
            0%{
                stroke-dashoffset: 9814.033203125px; 
        stroke-dasharray: 7851.2265625px, 1962.8066406249995px;
            }
        
            100%{
                stroke-dashoffset: 0px; 
        stroke-dasharray: 7851.2265625px, 1962.8066406249995px;
            }
        
        }
         
        @keyframes id_anim_stroke-property4{
        
            0%{
                stroke-dashoffset: 9814.033203125px; 
        stroke-dasharray: 7851.2265625px, 1962.8066406249995px;
            }
        
            100%{
                stroke-dashoffset: 0px; 
        stroke-dasharray: 7851.2265625px, 1962.8066406249995px;
            }
        
        }
         
        @keyframes id_anim_stroke-property5{
        
            0%{
                stroke-dashoffset: 9814.033203125px; 
        stroke-dasharray: 7851.2265625px, 1962.8066406249995px;
            }
        
            100%{
                stroke-dashoffset: 0px; 
        stroke-dasharray: 7851.2265625px, 1962.8066406249995px;
            }
        
        }
         
        @keyframes id_anim_stroke-property6{
        
            0%{
                stroke-dashoffset: 6420.36376953125px; 
        stroke-dasharray: 5136.291015625px, 1284.0727539062498px;
            }
        
            100%{
                stroke-dashoffset: 0px; 
        stroke-dasharray: 5136.291015625px, 1284.0727539062498px;
            }
        
        }
         
        @keyframes id_anim_stroke-property7{
        
            0%{
                stroke-dashoffset: 6649.76416015625px; 
        stroke-dasharray: 5319.811328125001px, 1329.9528320312497px;
            }
        
            100%{
                stroke-dashoffset: 0px; 
        stroke-dasharray: 5319.811328125001px, 1329.9528320312497px;
            }
        
        }
         
        @keyframes id_anim_stroke-property8{
        
            0%{
                stroke-dashoffset: 6865.81689453125px; 
        stroke-dasharray: 5492.653515625px, 1373.1633789062496px;
            }
        
            100%{
                stroke-dashoffset: 0px; 
        stroke-dasharray: 5492.653515625px, 1373.1633789062496px;
            }
        
        }
        </style></svg>
