<svg width="1137" height="910" viewBox="0 0 1137 910" fill="none" xmlns="http://www.w3.org/2000/svg">
<g id="Frame 1430102043">
<g id="line-stroke">
<g id="Group 473">
<g id="Group 475" opacity="0.35">
<path id="Vector 1659" d="M450.203 477.201C450.491 477.752 451.171 477.964 451.721 477.676L460.691 472.978C461.241 472.69 461.453 472.01 461.165 471.46C460.877 470.909 460.197 470.697 459.647 470.985L451.674 475.161L447.498 467.188C447.21 466.638 446.53 466.425 445.98 466.713C445.429 467.002 445.217 467.681 445.505 468.232L450.203 477.201ZM610.453 397.442C611.072 397.385 611.527 396.837 611.469 396.218C611.412 395.599 610.864 395.145 610.245 395.202L610.349 396.322L610.453 397.442ZM456.595 466.284C456.872 465.728 456.646 465.052 456.09 464.775C455.534 464.498 454.858 464.724 454.581 465.28L455.588 465.782L456.595 466.284ZM468.279 445.847C467.853 446.299 467.874 447.011 468.326 447.437C468.778 447.863 469.49 447.842 469.916 447.39L469.098 446.618L468.279 445.847ZM487.737 432.501C488.254 432.155 488.392 431.456 488.047 430.94C487.701 430.424 487.002 430.285 486.486 430.631L487.112 431.566L487.737 432.501ZM507.195 419.177C506.63 419.436 506.382 420.104 506.641 420.669C506.9 421.234 507.567 421.482 508.132 421.223L507.663 420.2L507.195 419.177ZM529.957 412.771C530.548 412.578 530.87 411.943 530.678 411.353C530.485 410.762 529.85 410.439 529.259 410.632L529.608 411.701L529.957 412.771ZM551.993 404.316C551.388 404.458 551.013 405.063 551.155 405.668C551.297 406.273 551.902 406.648 552.507 406.506L552.25 405.411L551.993 404.316ZM575.512 401.916C576.125 401.813 576.538 401.234 576.436 400.621C576.333 400.008 575.753 399.594 575.141 399.697L575.326 400.807L575.512 401.916ZM598.491 396.423C597.874 396.494 597.431 397.052 597.502 397.669C597.573 398.286 598.131 398.729 598.748 398.658L598.62 397.541L598.491 396.423ZM451.199 476.679L452.273 477.015C453.403 473.4 454.833 469.817 456.595 466.284L455.588 465.782L454.581 465.28C452.765 468.921 451.29 472.616 450.125 476.344L451.199 476.679ZM469.098 446.618L469.916 447.39C474.824 442.187 480.721 437.196 487.737 432.501L487.112 431.566L486.486 430.631C479.341 435.412 473.312 440.51 468.279 445.847L469.098 446.618ZM507.663 420.2L508.132 421.223C514.731 418.198 521.989 415.369 529.957 412.771L529.608 411.701L529.259 410.632C521.217 413.255 513.879 416.113 507.195 419.177L507.663 420.2ZM552.25 405.411L552.507 406.506C559.711 404.814 567.371 403.279 575.512 401.916L575.326 400.807L575.141 399.697C566.955 401.067 559.247 402.612 551.993 404.316L552.25 405.411ZM598.62 397.541L598.748 398.658C602.56 398.219 606.461 397.814 610.453 397.442L610.349 396.322L610.245 395.202C606.237 395.575 602.319 395.982 598.491 396.423L598.62 397.541Z" fill="black" style="fill:black;fill-opacity:1;"></path>
<path id="Vector 1658" d="M676.432 392.671C675.993 393.11 675.993 393.822 676.432 394.262L683.592 401.421C684.031 401.86 684.743 401.86 685.182 401.421C685.622 400.982 685.622 400.269 685.182 399.83L678.819 393.466L685.182 387.102C685.622 386.663 685.622 385.95 685.182 385.511C684.743 385.072 684.031 385.072 683.592 385.511L676.432 392.671ZM974.736 117.151C974.125 117.035 973.536 117.435 973.42 118.045C973.303 118.656 973.704 119.245 974.314 119.361L974.525 118.256L974.736 117.151ZM688.92 394.507C689.541 394.499 690.038 393.988 690.029 393.366C690.02 392.745 689.509 392.249 688.888 392.258L688.904 393.383L688.92 394.507ZM711.958 391.598C711.337 391.624 710.856 392.149 710.882 392.77C710.909 393.391 711.434 393.872 712.055 393.845L712.006 392.722L711.958 391.598ZM735.256 392.51C735.875 392.466 736.342 391.927 736.297 391.307C736.252 390.688 735.713 390.222 735.094 390.266L735.175 391.388L735.256 392.51ZM758.186 388.255C757.568 388.318 757.118 388.871 757.181 389.489C757.244 390.107 757.796 390.557 758.414 390.494L758.3 389.375L758.186 388.255ZM781.455 387.791C782.07 387.709 782.503 387.144 782.422 386.528C782.34 385.912 781.774 385.479 781.159 385.561L781.307 386.676L781.455 387.791ZM803.994 382.173C803.381 382.274 802.965 382.853 803.066 383.466C803.167 384.079 803.745 384.494 804.358 384.394L804.176 383.284L803.994 382.173ZM827.201 380.271C827.811 380.151 828.207 379.559 828.087 378.95C827.967 378.34 827.376 377.943 826.766 378.064L826.984 379.167L827.201 380.271ZM849.44 373.209C848.835 373.349 848.457 373.954 848.598 374.559C848.738 375.164 849.342 375.541 849.947 375.401L849.694 374.305L849.44 373.209ZM872.492 369.777C873.092 369.616 873.448 368.999 873.287 368.399C873.126 367.799 872.509 367.443 871.909 367.604L872.2 368.69L872.492 369.777ZM894.147 361.22C893.553 361.402 893.219 362.031 893.401 362.625C893.583 363.219 894.212 363.553 894.806 363.371L894.477 362.296L894.147 361.22ZM916.86 356.149C917.446 355.944 917.756 355.303 917.551 354.716C917.347 354.13 916.705 353.82 916.119 354.025L916.489 355.087L916.86 356.149ZM937.785 345.973C937.207 346.202 936.924 346.855 937.152 347.433C937.38 348.011 938.034 348.294 938.612 348.066L938.198 347.019L937.785 345.973ZM960.01 339.063C960.577 338.809 960.831 338.144 960.578 337.577C960.324 337.01 959.658 336.756 959.091 337.009L959.551 338.036L960.01 339.063ZM979.965 327.061C979.411 327.342 979.19 328.019 979.471 328.574C979.753 329.128 980.43 329.349 980.984 329.068L980.474 328.064L979.965 327.061ZM1001.43 317.984C1001.97 317.673 1002.15 316.984 1001.84 316.447C1001.53 315.909 1000.84 315.726 1000.3 316.037L1000.86 317.011L1001.43 317.984ZM1019.94 303.824C1019.42 304.169 1019.28 304.868 1019.63 305.384C1019.97 305.901 1020.67 306.039 1021.19 305.694L1020.56 304.759L1019.94 303.824ZM1040.03 292.052C1040.51 291.668 1040.6 290.96 1040.21 290.472C1039.83 289.984 1039.12 289.9 1038.63 290.284L1039.33 291.168L1040.03 292.052ZM1056 275.261C1055.55 275.691 1055.54 276.403 1055.97 276.852C1056.4 277.3 1057.11 277.316 1057.56 276.886L1056.78 276.074L1056 275.261ZM1073.43 259.696C1073.82 259.212 1073.75 258.504 1073.26 258.115C1072.78 257.725 1072.07 257.802 1071.68 258.286L1072.56 258.991L1073.43 259.696ZM1084.4 239.34C1084.11 239.888 1084.31 240.57 1084.86 240.864C1085.41 241.159 1086.09 240.954 1086.38 240.407L1085.39 239.874L1084.4 239.34ZM1094.76 218.478C1094.89 217.871 1094.51 217.271 1093.9 217.137C1093.29 217.004 1092.69 217.387 1092.56 217.994L1093.66 218.236L1094.76 218.478ZM1093.26 195.423C1093.36 196.035 1093.95 196.446 1094.56 196.341C1095.17 196.235 1095.58 195.653 1095.48 195.041L1094.37 195.232L1093.26 195.423ZM1086.83 173.236C1086.49 172.714 1085.79 172.565 1085.27 172.902C1084.75 173.239 1084.6 173.935 1084.94 174.457L1085.88 173.847L1086.83 173.236ZM1069.8 157.602C1070.27 158.003 1070.98 157.943 1071.38 157.468C1071.79 156.994 1071.73 156.284 1071.25 155.883L1070.53 156.743L1069.8 157.602ZM1051.88 142.705C1051.34 142.403 1050.66 142.599 1050.36 143.142C1050.05 143.685 1050.25 144.37 1050.79 144.672L1051.34 143.689L1051.88 142.705ZM1030.09 134.95C1030.66 135.179 1031.32 134.898 1031.55 134.32C1031.78 133.743 1031.5 133.089 1030.92 132.859L1030.5 133.904L1030.09 134.95ZM1008.93 125.32C1008.34 125.144 1007.71 125.485 1007.54 126.081C1007.36 126.677 1007.7 127.303 1008.3 127.478L1008.61 126.399L1008.93 125.32ZM985.942 121.753C986.549 121.887 987.149 121.504 987.284 120.898C987.418 120.291 987.035 119.69 986.428 119.556L986.185 120.654L985.942 121.753ZM677.228 393.466V394.591C681.142 394.591 685.039 394.563 688.92 394.507L688.904 393.383L688.888 392.258C685.018 392.313 681.131 392.341 677.228 392.341V393.466ZM712.006 392.722L712.055 393.845C719.866 393.51 727.601 393.063 735.256 392.51L735.175 391.388L735.094 390.266C727.46 390.818 719.747 391.263 711.958 391.598L712.006 392.722ZM758.3 389.375L758.414 390.494C766.187 389.7 773.869 388.798 781.455 387.791L781.307 386.676L781.159 385.561C773.595 386.564 765.936 387.464 758.186 388.255L758.3 389.375ZM804.176 383.284L804.358 384.394C812.085 383.125 819.701 381.749 827.201 380.271L826.984 379.167L826.766 378.064C819.289 379.537 811.697 380.909 803.994 382.173L804.176 383.284ZM849.694 374.305L849.947 375.401C857.599 373.63 865.116 371.753 872.492 369.777L872.2 368.69L871.909 367.604C864.559 369.573 857.067 371.444 849.44 373.209L849.694 374.305ZM894.477 362.296L894.806 363.371C902.327 361.064 909.681 358.654 916.86 356.149L916.489 355.087L916.119 354.025C908.967 356.52 901.64 358.921 894.147 361.22L894.477 362.296ZM938.198 347.019L938.612 348.066C945.96 345.161 953.096 342.157 960.01 339.063L959.551 338.036L959.091 337.009C952.208 340.089 945.103 343.08 937.785 345.973L938.198 347.019ZM980.474 328.064L980.984 329.068C988.085 325.463 994.905 321.764 1001.43 317.984L1000.86 317.011L1000.3 316.037C993.814 319.795 987.031 323.475 979.965 327.061L980.474 328.064ZM1020.56 304.759L1021.19 305.694C1027.87 301.224 1034.16 296.669 1040.03 292.052L1039.33 291.168L1038.63 290.284C1032.82 294.863 1026.58 299.384 1019.94 303.824L1020.56 304.759ZM1056.78 276.074L1057.56 276.886C1063.49 271.205 1068.8 265.462 1073.43 259.696L1072.56 258.991L1071.68 258.286C1067.11 263.969 1061.87 269.639 1056 275.261L1056.78 276.074ZM1085.39 239.874L1086.38 240.407C1090.34 233.054 1093.16 225.718 1094.76 218.478L1093.66 218.236L1092.56 217.994C1091.01 225.003 1088.28 232.143 1084.4 239.34L1085.39 239.874ZM1094.37 195.232L1095.48 195.041C1094.17 187.489 1091.32 180.186 1086.83 173.236L1085.88 173.847L1084.94 174.457C1089.27 181.163 1092.01 188.183 1093.26 195.423L1094.37 195.232ZM1070.53 156.743L1071.25 155.883C1065.74 151.232 1059.3 146.827 1051.88 142.705L1051.34 143.689L1050.79 144.672C1058.1 148.732 1064.42 153.057 1069.8 157.602L1070.53 156.743ZM1030.5 133.904L1030.92 132.859C1024.15 130.166 1016.83 127.648 1008.93 125.32L1008.61 126.399L1008.3 127.478C1016.13 129.789 1023.39 132.285 1030.09 134.95L1030.5 133.904ZM986.185 120.654L986.428 119.556C982.637 118.717 978.74 117.915 974.736 117.151L974.525 118.256L974.314 119.361C978.297 120.121 982.173 120.919 985.942 121.753L986.185 120.654Z" fill="black" style="fill:black;fill-opacity:1;"></path>
<path id="Vector 1657" d="M845.499 108.646C845.938 108.206 845.938 107.494 845.499 107.055L838.339 99.8954C837.9 99.4561 837.187 99.4561 836.748 99.8954C836.309 100.335 836.309 101.047 836.748 101.486L843.112 107.85L836.748 114.214C836.309 114.654 836.309 115.366 836.748 115.805C837.187 116.245 837.9 116.245 838.339 115.805L845.499 108.646ZM392.695 276.649C392.219 277.048 392.157 277.757 392.556 278.234C392.955 278.71 393.665 278.772 394.141 278.373L393.418 277.511L392.695 276.649ZM402.752 271.253C403.233 270.86 403.305 270.152 402.913 269.67C402.52 269.189 401.811 269.117 401.33 269.509L402.041 270.381L402.752 271.253ZM418.89 255.586C418.398 255.966 418.306 256.672 418.686 257.164C419.065 257.656 419.771 257.748 420.263 257.369L419.577 256.477L418.89 255.586ZM438.155 243.978C438.657 243.613 438.769 242.909 438.404 242.407C438.038 241.904 437.335 241.793 436.832 242.158L437.493 243.068L438.155 243.978ZM455.15 229.246C454.637 229.596 454.505 230.296 454.856 230.809C455.206 231.322 455.906 231.454 456.419 231.103L455.784 230.174L455.15 229.246ZM475.051 218.765C475.574 218.43 475.726 217.734 475.39 217.211C475.055 216.688 474.359 216.536 473.836 216.871L474.443 217.818L475.051 218.765ZM492.882 205.058C492.349 205.377 492.176 206.068 492.495 206.601C492.815 207.134 493.506 207.307 494.039 206.987L493.46 206.022L492.882 205.058ZM513.375 195.79C513.918 195.487 514.112 194.801 513.809 194.259C513.506 193.717 512.82 193.523 512.278 193.826L512.827 194.808L513.375 195.79ZM532.011 183.198C531.46 183.484 531.244 184.163 531.53 184.714C531.816 185.266 532.495 185.481 533.047 185.195L532.529 184.197L532.011 183.198ZM553.042 175.224C553.602 174.955 553.839 174.284 553.57 173.723C553.302 173.163 552.63 172.926 552.07 173.195L552.556 174.209L553.042 175.224ZM572.437 163.837C571.868 164.087 571.61 164.751 571.86 165.319C572.111 165.888 572.775 166.146 573.343 165.896L572.89 164.866L572.437 163.837ZM593.936 157.23C594.512 156.999 594.792 156.344 594.56 155.767C594.329 155.191 593.674 154.911 593.097 155.143L593.516 156.186L593.936 157.23ZM614.032 147.13C613.448 147.342 613.147 147.988 613.36 148.571C613.572 149.155 614.218 149.456 614.802 149.244L614.417 148.187L614.032 147.13ZM635.918 141.954C636.508 141.761 636.831 141.125 636.638 140.535C636.445 139.944 635.809 139.622 635.219 139.815L635.568 140.884L635.918 141.954ZM656.644 133.209C656.047 133.382 655.703 134.006 655.877 134.603C656.05 135.2 656.674 135.543 657.27 135.37L656.957 134.29L656.644 133.209ZM678.823 129.51C679.425 129.357 679.789 128.745 679.636 128.143C679.483 127.54 678.871 127.176 678.269 127.329L678.546 128.42L678.823 129.51ZM700.095 122.177C699.488 122.31 699.104 122.909 699.236 123.516C699.369 124.123 699.968 124.508 700.575 124.375L700.335 123.276L700.095 122.177ZM722.468 119.981C723.079 119.869 723.484 119.283 723.372 118.671C723.26 118.06 722.674 117.656 722.062 117.768L722.265 118.874L722.468 119.981ZM744.181 114.097C743.567 114.189 743.142 114.761 743.234 115.375C743.325 115.99 743.898 116.414 744.512 116.323L744.347 115.21L744.181 114.097ZM766.659 113.406C767.277 113.335 767.72 112.777 767.649 112.16C767.578 111.543 767.02 111.1 766.403 111.171L766.531 112.288L766.659 113.406ZM788.707 108.985C788.088 109.035 787.627 109.578 787.677 110.198C787.728 110.817 788.27 111.278 788.89 111.228L788.799 110.106L788.707 108.985ZM811.199 109.782C811.82 109.752 812.298 109.225 812.268 108.604C812.238 107.984 811.711 107.505 811.09 107.535L811.145 108.659L811.199 109.782ZM833.479 106.815C832.857 106.825 832.362 107.337 832.372 107.958C832.382 108.579 832.893 109.075 833.515 109.065L833.497 107.94L833.479 106.815ZM393.418 277.511L394.141 278.373C396.994 275.981 399.865 273.607 402.752 271.253L402.041 270.381L401.33 269.509C398.435 271.87 395.556 274.25 392.695 276.649L393.418 277.511ZM419.577 256.477L420.263 257.369C426.16 252.825 432.124 248.36 438.155 243.978L437.493 243.068L436.832 242.158C430.784 246.552 424.804 251.03 418.89 255.586L419.577 256.477ZM455.784 230.174L456.419 231.103C462.564 226.903 468.775 222.789 475.051 218.765L474.443 217.818L473.836 216.871C467.541 220.907 461.312 225.033 455.15 229.246L455.784 230.174ZM493.46 206.022L494.039 206.987C500.42 203.161 506.865 199.427 513.375 195.79L512.827 194.808L512.278 193.826C505.748 197.474 499.282 201.22 492.882 205.058L493.46 206.022ZM532.529 184.197L533.047 185.195C539.649 181.772 546.314 178.447 553.042 175.224L552.556 174.209L552.07 173.195C545.32 176.428 538.634 179.763 532.011 183.198L532.529 184.197ZM572.89 164.866L573.343 165.896C580.146 162.902 587.01 160.013 593.936 157.23L593.516 156.186L593.097 155.143C586.149 157.934 579.262 160.833 572.437 163.837L572.89 164.866ZM614.417 148.187L614.802 149.244C621.781 146.704 628.819 144.273 635.918 141.954L635.568 140.884L635.219 139.815C628.097 142.142 621.034 144.581 614.032 147.13L614.417 148.187ZM656.957 134.29L657.27 135.37C664.397 133.303 671.581 131.349 678.823 129.51L678.546 128.42L678.269 127.329C671.003 129.174 663.794 131.135 656.644 133.209L656.957 134.29ZM700.335 123.276L700.575 124.375C707.818 122.794 715.115 121.328 722.468 119.981L722.265 118.874L722.062 117.768C714.685 119.12 707.362 120.591 700.095 122.177L700.335 123.276ZM744.347 115.21L744.512 116.323C751.842 115.232 759.224 114.259 766.659 113.406L766.531 112.288L766.403 111.171C758.943 112.027 751.535 113.003 744.181 114.097L744.347 115.21ZM788.799 110.106L788.89 111.228C796.276 110.627 803.712 110.144 811.199 109.782L811.145 108.659L811.09 107.535C803.579 107.898 796.118 108.383 788.707 108.985L788.799 110.106ZM833.497 107.94L833.515 109.065C837.232 109.005 840.962 108.975 844.703 108.975V107.85V106.725C840.95 106.725 837.208 106.755 833.479 106.815L833.497 107.94Z" fill="black" style="fill:black;fill-opacity:1;"></path>
<path id="Vector 1656" d="M61.8528 853.758C61.7521 854.371 62.1675 854.95 62.7806 855.05C63.3938 855.151 63.9724 854.735 64.073 854.122L62.9629 853.94L61.8528 853.758ZM294.641 375.959C294.597 375.339 294.059 374.872 293.439 374.916L283.339 375.628C282.72 375.671 282.253 376.209 282.296 376.829C282.34 377.449 282.878 377.916 283.498 377.872L292.475 377.239L293.108 386.217C293.152 386.837 293.69 387.304 294.31 387.26C294.929 387.216 295.396 386.678 295.353 386.059L294.641 375.959ZM65.9637 843.134C66.0737 842.523 65.6672 841.938 65.0557 841.828C64.4442 841.718 63.8593 842.124 63.7492 842.736L64.8565 842.935L65.9637 843.134ZM68.0398 820.748C67.9121 821.356 68.3014 821.953 68.9094 822.081C69.5175 822.208 70.114 821.819 70.2417 821.211L69.1408 820.98L68.0398 820.748ZM75.1409 799.407C75.2854 798.803 74.9126 798.196 74.3083 798.051C73.704 797.907 73.097 798.279 72.9526 798.884L74.0468 799.145L75.1409 799.407ZM78.4469 777.169C78.2867 777.769 78.6435 778.386 79.2438 778.546C79.8441 778.706 80.4606 778.349 80.6208 777.749L79.5339 777.459L78.4469 777.169ZM86.6533 756.234C86.8284 755.638 86.4872 755.013 85.8911 754.838C85.295 754.663 84.6697 755.004 84.4945 755.6L85.5739 755.917L86.6533 756.234ZM91.0722 734.178C90.8827 734.769 91.2088 735.403 91.8005 735.592C92.3922 735.782 93.0255 735.456 93.215 734.864L92.1436 734.521L91.0722 734.178ZM100.275 713.674C100.478 713.086 100.167 712.446 99.5795 712.243C98.9923 712.039 98.3516 712.351 98.1484 712.938L99.2115 713.306L100.275 713.674ZM105.719 691.844C105.503 692.427 105.799 693.074 106.382 693.291C106.964 693.507 107.612 693.21 107.828 692.628L106.774 692.236L105.719 691.844ZM115.845 671.774C116.075 671.197 115.792 670.543 115.215 670.314C114.638 670.084 113.984 670.366 113.754 670.944L114.8 671.359L115.845 671.774ZM122.248 650.223C122.006 650.795 122.274 651.455 122.846 651.697C123.418 651.939 124.078 651.671 124.32 651.099L123.284 650.661L122.248 650.223ZM133.247 630.598C133.501 630.031 133.247 629.365 132.68 629.111C132.114 628.857 131.448 629.111 131.194 629.678L132.22 630.138L133.247 630.598ZM140.57 609.344C140.304 609.906 140.543 610.576 141.104 610.843C141.666 611.109 142.337 610.869 142.603 610.308L141.586 609.826L140.57 609.344ZM152.388 590.219C152.666 589.663 152.441 588.987 151.885 588.709C151.33 588.431 150.654 588.656 150.376 589.212L151.382 589.715L152.388 590.219ZM160.609 569.283C160.319 569.833 160.53 570.513 161.08 570.803C161.629 571.092 162.31 570.881 162.599 570.332L161.604 569.807L160.609 569.283ZM173.225 550.668C173.527 550.124 173.33 549.44 172.787 549.138C172.243 548.837 171.558 549.034 171.257 549.577L172.241 550.122L173.225 550.668ZM182.315 530.107C182.002 530.644 182.184 531.333 182.721 531.645C183.258 531.958 183.947 531.776 184.26 531.239L183.287 530.673L182.315 530.107ZM195.705 512.042C196.029 511.511 195.862 510.819 195.332 510.495C194.801 510.171 194.109 510.339 193.785 510.869L194.745 511.455L195.705 512.042ZM205.664 491.876C205.329 492.399 205.482 493.095 206.005 493.43C206.528 493.765 207.224 493.612 207.559 493.089L206.612 492.482L205.664 491.876ZM219.813 474.401C220.159 473.885 220.021 473.186 219.505 472.84C218.99 472.494 218.291 472.631 217.944 473.147L218.878 473.774L219.813 474.401ZM230.627 454.689C230.269 455.198 230.392 455.899 230.9 456.257C231.408 456.614 232.11 456.492 232.467 455.984L231.547 455.337L230.627 454.689ZM245.524 437.846C245.893 437.346 245.786 436.641 245.286 436.273C244.786 435.904 244.081 436.011 243.713 436.511L244.619 437.178L245.524 437.846ZM257.201 418.626C256.822 419.118 256.913 419.824 257.404 420.204C257.896 420.584 258.603 420.493 258.982 420.001L258.092 419.313L257.201 418.626ZM272.837 402.468C273.228 401.984 273.153 401.276 272.67 400.885C272.187 400.495 271.479 400.569 271.088 401.053L271.962 401.76L272.837 402.468ZM285.373 383.803C284.972 384.277 285.03 384.987 285.504 385.388C285.978 385.79 286.688 385.732 287.09 385.258L286.232 384.53L285.373 383.803ZM62.9629 853.94L64.073 854.122C64.6714 850.478 65.3016 846.814 65.9637 843.134L64.8565 842.935L63.7492 842.736C63.0852 846.427 62.453 850.102 61.8528 853.758L62.9629 853.94ZM69.1408 820.98L70.2417 821.211C71.7576 813.998 73.3908 806.728 75.1409 799.407L74.0468 799.145L72.9526 798.884C71.1978 806.224 69.56 813.515 68.0398 820.748L69.1408 820.98ZM79.5339 777.459L80.6208 777.749C82.5243 770.616 84.5353 763.443 86.6533 756.234L85.5739 755.917L84.4945 755.6C82.3713 762.826 80.3552 770.018 78.4469 777.169L79.5339 777.459ZM92.1436 734.521L93.215 734.864C95.4686 727.826 97.822 720.76 100.275 713.674L99.2115 713.306L98.1484 712.938C95.6901 720.041 93.3312 727.123 91.0722 734.178L92.1436 734.521ZM106.774 692.236L107.828 692.628C110.407 685.69 113.08 678.738 115.845 671.774L114.8 671.359L113.754 670.944C110.982 677.922 108.304 684.891 105.719 691.844L106.774 692.236ZM123.284 650.661L124.32 651.099C127.207 644.269 130.183 637.433 133.247 630.598L132.22 630.138L131.194 629.678C128.123 636.528 125.141 643.378 122.248 650.223L123.284 650.661ZM141.586 609.826L142.603 610.308C145.78 603.606 149.042 596.908 152.388 590.219L151.382 589.715L150.376 589.212C147.023 595.915 143.754 602.628 140.57 609.344L141.586 609.826ZM161.604 569.807L162.599 570.332C166.06 563.763 169.602 557.207 173.225 550.668L172.241 550.122L171.257 549.577C167.627 556.13 164.077 562.7 160.609 569.283L161.604 569.807ZM183.287 530.673L184.26 531.239C187.996 524.818 191.812 518.417 195.705 512.042L194.745 511.455L193.785 510.869C189.883 517.258 186.06 523.672 182.315 530.107L183.287 530.673ZM206.612 492.482L207.559 493.089C211.568 486.83 215.652 480.599 219.813 474.401L218.878 473.774L217.944 473.147C213.775 479.359 209.681 485.603 205.664 491.876L206.612 492.482ZM231.547 455.337L232.467 455.984C236.745 449.901 241.098 443.853 245.524 437.846L244.619 437.178L243.713 436.511C239.276 442.532 234.914 448.593 230.627 454.689L231.547 455.337ZM258.092 419.313L258.982 420.001C263.528 414.112 268.146 408.266 272.837 402.468L271.962 401.76L271.088 401.053C266.386 406.865 261.757 412.724 257.201 418.626L258.092 419.313ZM286.232 384.53L287.09 385.258C289.498 382.418 291.924 379.59 294.368 376.775L293.519 376.038L292.669 375.3C290.219 378.122 287.787 380.956 285.373 383.803L286.232 384.53Z" fill="black" style="fill:black;fill-opacity:1;"></path>
</g>
<path id="Vector 1653" d="M18.0029 808.961C68.5828 500.855 346.772 62.8713 799.743 62.8713C1252.71 62.8713 1026.79 348.488 632.268 348.488C325.978 348.488 401.286 501.979 440.064 540.774" stroke="#D9FD51" style="stroke: color(display-p3 0.851 0.9922 0.3176); stroke-opacity: 1; stroke-dashoffset: 2323.77px; stroke-dasharray: 1859.02px, 464.754px; animation: 5s linear 0s infinite normal forwards running id_anim_stroke-property4;" stroke-width="36" stroke-linecap="round" class="id_anim_stroke-property4" data-duration="5" data-offset="0"></path>
<path id="Vector 1654 (Stroke)" fill-rule="evenodd" clip-rule="evenodd" d="M258.605 320.939C126.222 468.827 44.0997 655.202 18.8356 809.098L17.1719 808.824C42.4876 654.614 124.75 467.944 257.349 319.814C389.958 171.673 572.963 62.0281 799.744 62.0281C913.021 62.0281 984.069 79.8744 1020.65 106.82C1038.97 120.314 1048.7 136.127 1050.68 153.145C1052.65 170.145 1046.88 188.198 1034.51 206.158C1009.79 242.06 958.535 277.843 888.878 304.648C819.194 331.463 730.998 349.332 632.268 349.332C555.753 349.332 503.157 358.92 467.896 373.854C432.656 388.78 414.776 409.022 407.565 430.353C400.344 451.712 403.766 474.321 411.451 494.056C419.136 513.792 431.048 530.561 440.661 540.177L439.469 541.37C429.692 531.589 417.65 514.624 409.88 494.669C402.11 474.714 398.577 451.676 405.968 429.813C413.369 407.922 431.667 387.367 467.239 372.301C502.791 357.243 555.64 347.645 632.268 347.645C730.801 347.645 818.791 329.811 888.272 303.074C957.78 276.326 1008.67 240.704 1033.12 205.201C1045.34 187.459 1050.91 169.811 1049 153.34C1047.09 136.887 1037.69 121.461 1019.65 108.178C983.528 81.5706 912.953 63.7148 799.744 63.7148C573.555 63.7148 390.978 173.062 258.605 320.939Z" fill="black" style="fill:black;fill-opacity:1;"></path>
<g id="vector">
<g id="Frame 1430101515">
<circle id="Ellipse 46" cx="3.375" cy="3.375" r="3.375" transform="matrix(-4.36724e-08 1 1 4.37504e-08 667.674 59.4963)" fill="black" style="fill:black;fill-opacity:1;"></circle>
</g>
<path id="Vector 1047 (Stroke)" fill-rule="evenodd" clip-rule="evenodd" d="M791.189 62.8713C791.189 62.4053 790.823 62.0276 790.371 62.0276L675.242 62.0276C674.79 62.0276 674.424 62.4053 674.424 62.8713C674.424 63.3373 674.79 63.7151 675.242 63.7151L790.371 63.7151C790.823 63.7151 791.189 63.3373 791.189 62.8713Z" fill="black" style="fill:black;fill-opacity:1;"></path>
<g id="Frame 1430101517">
<path id="Ellipse 35" d="M797.377 69.0588C800.794 69.0588 803.564 66.2886 803.564 62.8713C803.564 59.4541 800.794 56.6838 797.377 56.6838C793.96 56.6838 791.189 59.4541 791.189 62.8713C791.189 66.2886 793.96 69.0588 797.377 69.0588Z" fill="white" style="fill:white;fill-opacity:1;"></path>
<path id="Ellipse 35 (Stroke)" fill-rule="evenodd" clip-rule="evenodd" d="M801.877 62.8713C801.877 65.3566 799.862 67.3713 797.377 67.3713C794.892 67.3713 792.877 65.3566 792.877 62.8713C792.877 60.3861 794.892 58.3713 797.377 58.3713C799.862 58.3713 801.877 60.3861 801.877 62.8713ZM803.564 62.8713C803.564 66.2886 800.794 69.0588 797.377 69.0588C793.96 69.0588 791.189 66.2886 791.189 62.8713C791.189 59.4541 793.96 56.6838 797.377 56.6838C800.794 56.6838 803.564 59.4541 803.564 62.8713Z" fill="black" style="fill:black;fill-opacity:1;"></path>
<circle id="Ellipse 45" cx="1.76786" cy="1.76786" r="1.76786" transform="matrix(-4.36724e-08 1 1 4.37504e-08 795.607 61.1033)" fill="#7AA6F1" style="fill:#7AA6F1;fill:color(display-p3 0.4784 0.6510 0.9451);fill-opacity:1;"></circle>
</g>
<path id="Vector 1048 (Stroke)" fill-rule="evenodd" clip-rule="evenodd" d="M923.939 62.8713C923.939 62.4053 923.562 62.0276 923.096 62.0276L804.408 62.0276C803.942 62.0276 803.564 62.4053 803.564 62.8713C803.564 63.3373 803.942 63.7151 804.408 63.7151L923.096 63.7151C923.562 63.7151 923.939 63.3373 923.939 62.8713Z" fill="black" style="fill:black;fill-opacity:1;"></path>
<g id="Frame 1430101516">
<circle id="Ellipse 47" cx="3.375" cy="3.375" r="3.375" transform="matrix(-4.36724e-08 1 1 4.37504e-08 923.939 59.4963)" fill="black" style="fill:black;fill-opacity:1;"></circle>
</g>
</g>
<g id="vector_2">
<g id="Frame 1430101515_2">
<circle id="Ellipse 46_2" cx="3.375" cy="3.375" r="3.375" transform="matrix(-4.36928e-08 1 1 4.373e-08 508.066 345.113)" fill="black" style="fill:black;fill-opacity:1;"></circle>
</g>
<path id="Vector 1047 (Stroke)_2" fill-rule="evenodd" clip-rule="evenodd" d="M633.387 348.488C633.387 348.022 633.015 347.644 632.556 347.644L515.648 347.644C515.189 347.644 514.816 348.022 514.816 348.488C514.816 348.954 515.189 349.332 515.648 349.332L632.556 349.332C633.015 349.332 633.387 348.954 633.387 348.488Z" fill="black" style="fill:black;fill-opacity:1;"></path>
<g id="Frame 1430101517_2">
<path id="Ellipse 35_2" d="M639.574 354.676C642.991 354.676 645.762 351.905 645.762 348.488C645.762 345.071 642.991 342.301 639.574 342.301C636.157 342.301 633.387 345.071 633.387 348.488C633.387 351.905 636.157 354.676 639.574 354.676Z" fill="white" style="fill:white;fill-opacity:1;"></path>
<path id="Ellipse 35_2 (Stroke)" fill-rule="evenodd" clip-rule="evenodd" d="M644.074 348.488C644.074 350.973 642.06 352.988 639.574 352.988C637.089 352.988 635.074 350.973 635.074 348.488C635.074 346.003 637.089 343.988 639.574 343.988C642.06 343.988 644.074 346.003 644.074 348.488ZM645.762 348.488C645.762 351.905 642.991 354.676 639.574 354.676C636.157 354.676 633.387 351.905 633.387 348.488C633.387 345.071 636.157 342.301 639.574 342.301C642.991 342.301 645.762 345.071 645.762 348.488Z" fill="black" style="fill:black;fill-opacity:1;"></path>
<circle id="Ellipse 45_2" cx="1.76786" cy="1.76786" r="1.76786" transform="matrix(-4.36928e-08 1 1 4.373e-08 637.805 346.72)" fill="#7AA6F1" style="fill:#7AA6F1;fill:color(display-p3 0.4784 0.6510 0.9451);fill-opacity:1;"></circle>
</g>
<path id="Vector 1048 (Stroke)_2" fill-rule="evenodd" clip-rule="evenodd" d="M764.332 348.488C764.332 348.022 763.96 347.644 763.501 347.644L646.593 347.644C646.134 347.644 645.762 348.022 645.762 348.488C645.762 348.954 646.134 349.332 646.593 349.332L763.501 349.332C763.96 349.332 764.332 348.954 764.332 348.488Z" fill="black" style="fill:black;fill-opacity:1;"></path>
<g id="Frame 1430101516_2">
<circle id="Ellipse 47_2" cx="3.375" cy="3.375" r="3.375" transform="matrix(-4.36928e-08 1 1 4.373e-08 764.332 345.113)" fill="black" style="fill:black;fill-opacity:1;"></circle>
</g>
</g>
<g id="vector_3">
<g id="Frame 1430101515_3">
<circle id="Ellipse 46_3" cx="3.375" cy="3.375" r="3.375" transform="matrix(-0.706956 0.707257 0.706956 0.707257 390.128 487.729)" fill="black" style="fill:black;fill-opacity:1;"></circle>
</g>
<path id="Vector 1047 (Stroke)_3" fill-rule="evenodd" clip-rule="evenodd" d="M432.468 534.861C432.797 534.531 432.805 534.005 432.486 533.685L393.689 494.872C393.37 494.552 392.843 494.56 392.514 494.89C392.185 495.219 392.177 495.746 392.496 496.065L431.293 534.878C431.612 535.198 432.139 535.19 432.468 534.861Z" fill="black" style="fill:black;fill-opacity:1;"></path>
<g id="Frame 1430101517_3">
<path id="Ellipse 35_3" d="M432.468 543.613C434.884 546.03 438.801 546.03 441.217 543.613C443.633 541.196 443.633 537.277 441.217 534.861C438.801 532.444 434.884 532.444 432.468 534.861C430.053 537.277 430.053 541.196 432.468 543.613Z" fill="white" style="fill:white;fill-opacity:1;"></path>
<path id="Ellipse 35_3 (Stroke)" fill-rule="evenodd" clip-rule="evenodd" d="M440.024 542.419C438.267 544.177 435.418 544.177 433.661 542.419C431.904 540.662 431.904 537.812 433.661 536.054C435.418 534.296 438.267 534.296 440.024 536.054C441.781 537.812 441.781 540.662 440.024 542.419ZM441.217 543.613C438.801 546.03 434.884 546.03 432.468 543.613C430.053 541.196 430.053 537.277 432.468 534.861C434.884 532.444 438.801 532.444 441.217 534.861C443.633 537.277 443.633 541.196 441.217 543.613Z" fill="black" style="fill:black;fill-opacity:1;"></path>
<circle id="Ellipse 45_3" cx="1.76786" cy="1.76786" r="1.76786" transform="matrix(-0.706956 0.707257 0.706956 0.707257 436.843 536.736)" fill="#7AA6F1" style="fill:#7AA6F1;fill:color(display-p3 0.4784 0.6510 0.9451);fill-opacity:1;"></circle>
</g>
<path id="Vector 1048 (Stroke)_3" fill-rule="evenodd" clip-rule="evenodd" d="M481.17 583.584C481.5 583.254 481.507 582.728 481.188 582.408L442.391 543.595C442.072 543.275 441.546 543.283 441.216 543.613C440.887 543.942 440.879 544.469 441.198 544.789L479.995 583.602C480.315 583.921 480.841 583.913 481.17 583.584Z" fill="black" style="fill:black;fill-opacity:1;"></path>
<g id="Frame 1430101516_3">
<circle id="Ellipse 47_3" cx="3.375" cy="3.375" r="3.375" transform="matrix(-0.706956 0.707257 0.706956 0.707257 483.557 581.197)" fill="black" style="fill:black;fill-opacity:1;"></circle>
</g>
</g>
<g id="mouse" filter="url(#filter0_d_8_2989)">
<path id="Vector 1044" d="M970.029 119.095L982.393 106.726L974.666 98.9951C975.696 95.9028 976.521 88.4812 971.575 83.5335C966.629 78.5859 943.756 72.1951 932.938 69.6182C934.998 79.9259 940.356 101.778 945.301 106.726C950.247 111.674 958.696 111.88 962.302 111.364L970.029 119.095Z" fill="white" style="fill:white;fill-opacity:1;"></path>
<path id="Vector 1044 (Stroke)" fill-rule="evenodd" clip-rule="evenodd" d="M933.312 71.4427C935.594 82.3073 940.631 102.054 945.301 106.726C950.247 111.674 958.696 111.88 962.302 111.364L970.029 119.095L982.393 106.726L974.666 98.9951C975.696 95.9028 976.521 88.4812 971.575 83.5335C966.89 78.8469 946.12 72.8655 934.746 70.0572C934.667 70.0377 934.589 70.0183 934.51 69.999C933.962 69.8643 933.437 69.7372 932.938 69.6182C933.033 70.0942 933.135 70.5948 933.244 71.1172C933.266 71.2248 933.289 71.3333 933.312 71.4427ZM935.439 73.3138C936.497 78.1113 937.971 84.1029 939.652 89.6963C940.751 93.3513 941.929 96.8049 943.125 99.6322C944.349 102.522 945.507 104.546 946.494 105.533C948.641 107.681 951.625 108.867 954.619 109.437C957.606 110.005 960.432 109.928 962.064 109.695L962.898 109.575L970.029 116.71L980.009 106.726L972.737 99.4507L973.066 98.4617C973.512 97.123 973.942 94.7328 973.684 92.1264C973.427 89.5381 972.508 86.8519 970.383 84.7262C969.388 83.7313 967.292 82.5089 964.289 81.1762C961.351 79.8725 957.748 78.549 953.93 77.2886C948.11 75.3672 941.858 73.6145 936.833 72.3227L956.716 92.2141L955.524 93.4068L935.439 73.3138Z" fill="black" style="fill:black;fill-opacity:1;"></path>
<path id="Ellipse 45_4" d="M963.847 94.3567C963.847 97.7724 961.08 100.541 957.665 100.541C954.251 100.541 951.483 97.7724 951.483 94.3567C951.483 90.9411 954.251 88.1721 957.665 88.1721C961.08 88.1721 963.847 90.9411 963.847 94.3567Z" fill="black" style="fill:black;fill-opacity:1;"></path>
</g>
</g>
<g id="Frame 1430102042">
<rect x="655.172" y="563.133" width="481.571" height="291.864" rx="16" fill="white" style="fill:white;fill-opacity:1;"></rect>
<g id="Frame">
<path id="Vector" d="M1016.17 607.133C1016.17 608.789 1017.52 610.133 1019.17 610.133C1020.83 610.133 1022.17 608.789 1022.17 607.133C1022.17 605.477 1020.83 604.133 1019.17 604.133C1017.52 604.133 1016.17 605.477 1016.17 607.133ZM1028.17 607.133C1028.17 608.789 1029.52 610.133 1031.17 610.133C1032.83 610.133 1034.17 608.789 1034.17 607.133C1034.17 605.477 1032.83 604.133 1031.17 604.133C1029.52 604.133 1028.17 605.477 1028.17 607.133ZM1031.17 622.133C1029.52 622.133 1028.17 620.789 1028.17 619.133C1028.17 617.477 1029.52 616.133 1031.17 616.133C1032.83 616.133 1034.17 617.477 1034.17 619.133C1034.17 620.789 1032.83 622.133 1031.17 622.133ZM1016.17 619.133C1016.17 620.789 1017.52 622.133 1019.17 622.133C1020.83 622.133 1022.17 620.789 1022.17 619.133C1022.17 617.477 1020.83 616.133 1019.17 616.133C1017.52 616.133 1016.17 617.477 1016.17 619.133Z" fill="black" style="fill:black;fill-opacity:1;"></path>
</g>
<g id="Frame_2">
<path id="Vector_2" d="M1088.17 612.133V602.133H1090.17V612.133H1100.17V614.133H1090.17V624.133H1088.17V614.133H1078.17V612.133H1088.17Z" fill="black" style="fill:black;fill-opacity:1;"></path>
</g>
<g id="Frame_3" clip-path="url(#clip0_8_2989)">
<path id="Vector_3" d="M885.172 729.133H909.172V731.133H885.172V729.133ZM885.172 737.133H909.172V741.133H885.172V737.133ZM909.172 747.133H885.172V753.133H909.172V747.133Z" fill="black" style="fill:black;fill-opacity:1;"></path>
</g>
<g id="Frame_4">
<path id="Vector_4" d="M699.172 799.133H759.172V797.133H699.172C694.752 797.133 691.172 800.713 691.172 805.133C691.172 809.553 694.752 813.133 699.172 813.133H759.172V811.133H699.172C695.858 811.133 693.172 808.447 693.172 805.133C693.172 801.819 695.858 799.133 699.172 799.133Z" fill="black" style="fill:black;fill-opacity:1;"></path>
</g>
<g id="Frame_5">
<path id="Vector_5" d="M943.172 799.133H883.172V797.133H943.172C947.592 797.133 951.172 800.713 951.172 805.133C951.172 809.553 947.592 813.133 943.172 813.133H883.172V811.133H943.172C946.486 811.133 949.172 808.447 949.172 805.133C949.172 801.819 946.486 799.133 943.172 799.133Z" fill="black" style="fill:black;fill-opacity:1;"></path>
</g>
<g id="Frame_6">
<path id="Vector_6" fill-rule="evenodd" clip-rule="evenodd" d="M776.465 807.841L770.465 801.841L771.881 800.425L777.173 805.719L782.465 800.425L783.881 801.841L777.881 807.841L777.173 808.547L776.465 807.841Z" fill="#B2B2B1" style="fill:#B2B2B1;fill:color(display-p3 0.6980 0.6980 0.6941);fill-opacity:1;"></path>
</g>
<g id="Frame_7">
<path id="Vector_7" fill-rule="evenodd" clip-rule="evenodd" d="M776.465 743.841L770.465 737.841L771.881 736.425L777.173 741.719L782.465 736.425L783.881 737.841L777.881 743.841L777.173 744.547L776.465 743.841Z" fill="#B2B2B1" style="fill:#B2B2B1;fill:color(display-p3 0.6980 0.6980 0.6941);fill-opacity:1;"></path>
</g>
<g id="Frame_8">
<path id="Vector_8" fill-rule="evenodd" clip-rule="evenodd" d="M968.465 807.841L962.465 801.841L963.881 800.425L969.173 805.719L974.465 800.425L975.881 801.841L969.881 807.841L969.173 808.547L968.465 807.841Z" fill="#B2B2B1" style="fill:#B2B2B1;fill:color(display-p3 0.6980 0.6980 0.6941);fill-opacity:1;"></path>
</g>
<g id="Frame_9">
<path id="Vector_9" d="M1080.17 805.133C1080.17 806.789 1078.83 808.133 1077.17 808.133C1075.52 808.133 1074.17 806.789 1074.17 805.133C1074.17 803.477 1075.52 802.133 1077.17 802.133C1078.83 802.133 1080.17 803.477 1080.17 805.133ZM1092.17 805.133C1092.17 806.789 1090.83 808.133 1089.17 808.133C1087.52 808.133 1086.17 806.789 1086.17 805.133C1086.17 803.477 1087.52 802.133 1089.17 802.133C1090.83 802.133 1092.17 803.477 1092.17 805.133ZM1101.17 808.133C1102.83 808.133 1104.17 806.789 1104.17 805.133C1104.17 803.477 1102.83 802.133 1101.17 802.133C1099.52 802.133 1098.17 803.477 1098.17 805.133C1098.17 806.789 1099.52 808.133 1101.17 808.133Z" fill="black" style="fill:black;fill-opacity:1;"></path>
</g>
<path id="Stroke" d="M699.242 609.734C699.18 609.104 698.911 608.615 698.438 608.266C697.964 607.917 697.32 607.742 696.508 607.742C695.956 607.742 695.49 607.82 695.109 607.977C694.729 608.128 694.438 608.339 694.234 608.609C694.036 608.88 693.938 609.188 693.938 609.531C693.927 609.818 693.987 610.068 694.117 610.281C694.253 610.495 694.438 610.68 694.672 610.836C694.906 610.987 695.177 611.12 695.484 611.234C695.792 611.344 696.12 611.437 696.469 611.516L697.906 611.859C698.604 612.016 699.245 612.224 699.828 612.484C700.411 612.745 700.917 613.065 701.344 613.445C701.771 613.826 702.102 614.273 702.336 614.789C702.576 615.305 702.698 615.896 702.703 616.562C702.698 617.542 702.448 618.391 701.953 619.109C701.464 619.823 700.755 620.378 699.828 620.773C698.906 621.164 697.794 621.359 696.492 621.359C695.201 621.359 694.076 621.161 693.117 620.766C692.164 620.37 691.419 619.784 690.883 619.008C690.352 618.227 690.073 617.26 690.047 616.109H693.32C693.357 616.646 693.51 617.094 693.781 617.453C694.057 617.807 694.424 618.076 694.883 618.258C695.346 618.435 695.87 618.523 696.453 618.523C697.026 618.523 697.523 618.44 697.945 618.273C698.372 618.107 698.703 617.875 698.938 617.578C699.172 617.281 699.289 616.94 699.289 616.555C699.289 616.195 699.182 615.893 698.969 615.648C698.76 615.404 698.453 615.195 698.047 615.023C697.646 614.852 697.154 614.695 696.57 614.555L694.828 614.117C693.479 613.789 692.414 613.276 691.633 612.578C690.852 611.88 690.464 610.94 690.469 609.758C690.464 608.789 690.721 607.943 691.242 607.219C691.768 606.495 692.49 605.93 693.406 605.523C694.323 605.117 695.365 604.914 696.531 604.914C697.719 604.914 698.755 605.117 699.641 605.523C700.531 605.93 701.224 606.495 701.719 607.219C702.214 607.943 702.469 608.781 702.484 609.734H699.242ZM711.299 609.133V611.633H704.072V609.133H711.299ZM705.713 606.258H709.041V617.445C709.041 617.753 709.088 617.992 709.182 618.164C709.275 618.331 709.406 618.448 709.572 618.516C709.744 618.583 709.942 618.617 710.166 618.617C710.322 618.617 710.479 618.604 710.635 618.578C710.791 618.547 710.911 618.523 710.994 618.508L711.518 620.984C711.351 621.036 711.117 621.096 710.814 621.164C710.512 621.237 710.145 621.281 709.713 621.297C708.911 621.328 708.208 621.221 707.604 620.977C707.005 620.732 706.538 620.352 706.205 619.836C705.872 619.32 705.708 618.669 705.713 617.883V606.258ZM713.467 621.133V609.133H716.693V611.227H716.818C717.037 610.482 717.404 609.919 717.92 609.539C718.436 609.154 719.029 608.961 719.701 608.961C719.868 608.961 720.048 608.971 720.24 608.992C720.433 609.013 720.602 609.042 720.748 609.078V612.031C720.592 611.984 720.376 611.943 720.1 611.906C719.824 611.87 719.571 611.852 719.342 611.852C718.852 611.852 718.415 611.958 718.029 612.172C717.649 612.38 717.347 612.672 717.123 613.047C716.904 613.422 716.795 613.854 716.795 614.344V621.133H713.467ZM727.332 621.367C726.118 621.367 725.069 621.109 724.184 620.594C723.303 620.073 722.624 619.349 722.145 618.422C721.665 617.49 721.426 616.409 721.426 615.18C721.426 613.94 721.665 612.857 722.145 611.93C722.624 610.997 723.303 610.273 724.184 609.758C725.069 609.237 726.118 608.977 727.332 608.977C728.546 608.977 729.592 609.237 730.473 609.758C731.358 610.273 732.04 610.997 732.52 611.93C732.999 612.857 733.238 613.94 733.238 615.18C733.238 616.409 732.999 617.49 732.52 618.422C732.04 619.349 731.358 620.073 730.473 620.594C729.592 621.109 728.546 621.367 727.332 621.367ZM727.348 618.789C727.9 618.789 728.361 618.633 728.73 618.32C729.1 618.003 729.379 617.57 729.566 617.023C729.759 616.477 729.855 615.854 729.855 615.156C729.855 614.458 729.759 613.836 729.566 613.289C729.379 612.742 729.1 612.31 728.73 611.992C728.361 611.674 727.9 611.516 727.348 611.516C726.79 611.516 726.322 611.674 725.941 611.992C725.566 612.31 725.283 612.742 725.09 613.289C724.902 613.836 724.809 614.458 724.809 615.156C724.809 615.854 724.902 616.477 725.09 617.023C725.283 617.57 725.566 618.003 725.941 618.32C726.322 618.633 726.79 618.789 727.348 618.789ZM738.418 617.68L738.426 613.687H738.91L742.754 609.133H746.574L741.41 615.164H740.621L738.418 617.68ZM735.402 621.133V605.133H738.73V621.133H735.402ZM742.902 621.133L739.371 615.906L741.59 613.555L746.801 621.133H742.902ZM753.182 621.367C751.947 621.367 750.885 621.117 749.994 620.617C749.109 620.112 748.426 619.398 747.947 618.477C747.468 617.549 747.229 616.453 747.229 615.187C747.229 613.953 747.468 612.87 747.947 611.938C748.426 611.005 749.101 610.279 749.971 609.758C750.846 609.237 751.872 608.977 753.049 608.977C753.84 608.977 754.577 609.104 755.26 609.359C755.947 609.609 756.546 609.987 757.057 610.492C757.572 610.997 757.973 611.633 758.26 612.398C758.546 613.159 758.689 614.049 758.689 615.07V615.984H748.557V613.922H755.557C755.557 613.443 755.452 613.018 755.244 612.648C755.036 612.279 754.747 611.99 754.377 611.781C754.012 611.568 753.588 611.461 753.104 611.461C752.598 611.461 752.15 611.578 751.76 611.812C751.374 612.042 751.072 612.352 750.854 612.742C750.635 613.128 750.523 613.557 750.518 614.031V615.992C750.518 616.586 750.627 617.099 750.846 617.531C751.07 617.964 751.385 618.297 751.791 618.531C752.197 618.766 752.679 618.883 753.236 618.883C753.606 618.883 753.945 618.831 754.252 618.727C754.559 618.622 754.822 618.466 755.041 618.258C755.26 618.049 755.426 617.794 755.541 617.492L758.619 617.695C758.463 618.435 758.143 619.081 757.658 619.633C757.179 620.18 756.559 620.607 755.799 620.914C755.044 621.216 754.171 621.367 753.182 621.367Z" fill="black" style="fill:black;fill-opacity:1;"></path>
<path id="36" d="M936.234 749.352C935.203 749.352 934.284 749.174 933.477 748.82C932.674 748.466 932.036 747.974 931.563 747.344C931.094 746.708 930.839 745.971 930.797 745.133H932.766C932.807 745.648 932.984 746.094 933.297 746.469C933.609 746.839 934.018 747.125 934.523 747.328C935.029 747.531 935.589 747.633 936.203 747.633C936.891 747.633 937.5 747.513 938.031 747.273C938.563 747.034 938.979 746.701 939.281 746.273C939.583 745.846 939.734 745.352 939.734 744.789C939.734 744.201 939.589 743.682 939.297 743.234C939.005 742.781 938.578 742.427 938.016 742.172C937.453 741.917 936.766 741.789 935.953 741.789H934.672V740.07H935.953C936.589 740.07 937.146 739.956 937.625 739.727C938.109 739.497 938.487 739.174 938.758 738.758C939.034 738.341 939.172 737.852 939.172 737.289C939.172 736.747 939.052 736.276 938.813 735.875C938.573 735.474 938.234 735.161 937.797 734.937C937.365 734.714 936.854 734.602 936.266 734.602C935.714 734.602 935.193 734.703 934.703 734.906C934.219 735.104 933.823 735.393 933.516 735.773C933.208 736.148 933.042 736.602 933.016 737.133H931.141C931.172 736.294 931.424 735.56 931.898 734.93C932.372 734.294 932.992 733.799 933.758 733.445C934.529 733.091 935.375 732.914 936.297 732.914C937.286 732.914 938.135 733.115 938.844 733.516C939.552 733.911 940.096 734.435 940.477 735.086C940.857 735.737 941.047 736.44 941.047 737.195C941.047 738.096 940.81 738.865 940.336 739.5C939.867 740.135 939.229 740.576 938.422 740.82V740.945C939.432 741.112 940.221 741.542 940.789 742.234C941.357 742.922 941.641 743.773 941.641 744.789C941.641 745.659 941.404 746.44 940.93 747.133C940.461 747.82 939.82 748.362 939.008 748.758C938.195 749.154 937.271 749.352 936.234 749.352ZM950.148 749.352C949.492 749.341 948.836 749.216 948.18 748.977C947.523 748.737 946.924 748.333 946.383 747.766C945.841 747.193 945.406 746.419 945.078 745.445C944.75 744.466 944.586 743.237 944.586 741.758C944.586 740.341 944.719 739.086 944.984 737.992C945.25 736.893 945.635 735.969 946.141 735.219C946.646 734.464 947.255 733.891 947.969 733.5C948.688 733.109 949.497 732.914 950.398 732.914C951.294 732.914 952.091 733.094 952.789 733.453C953.492 733.807 954.065 734.302 954.508 734.937C954.951 735.573 955.237 736.305 955.367 737.133H953.461C953.284 736.414 952.94 735.818 952.43 735.344C951.919 734.87 951.242 734.633 950.398 734.633C949.159 734.633 948.182 735.172 947.469 736.25C946.76 737.328 946.404 738.841 946.398 740.789H946.523C946.815 740.346 947.161 739.969 947.562 739.656C947.969 739.339 948.417 739.094 948.906 738.922C949.396 738.75 949.914 738.664 950.461 738.664C951.378 738.664 952.216 738.893 952.977 739.352C953.737 739.805 954.346 740.432 954.805 741.234C955.263 742.031 955.492 742.945 955.492 743.977C955.492 744.966 955.271 745.872 954.828 746.695C954.385 747.513 953.763 748.164 952.961 748.648C952.164 749.128 951.227 749.362 950.148 749.352ZM950.148 747.633C950.805 747.633 951.393 747.469 951.914 747.141C952.44 746.812 952.854 746.372 953.156 745.82C953.464 745.268 953.617 744.654 953.617 743.977C953.617 743.315 953.469 742.714 953.172 742.172C952.88 741.625 952.477 741.19 951.961 740.867C951.451 740.544 950.867 740.383 950.211 740.383C949.716 740.383 949.255 740.482 948.828 740.68C948.401 740.872 948.026 741.138 947.703 741.477C947.385 741.815 947.135 742.203 946.953 742.641C946.771 743.073 946.68 743.529 946.68 744.008C946.68 744.643 946.828 745.237 947.125 745.789C947.427 746.341 947.839 746.786 948.359 747.125C948.885 747.464 949.482 747.633 950.148 747.633Z" fill="black" style="fill:black;fill-opacity:1;"></path>
<path id="Center" d="M703.984 738.133H702.047C701.932 737.576 701.732 737.086 701.445 736.664C701.164 736.242 700.82 735.888 700.414 735.602C700.013 735.31 699.568 735.091 699.078 734.945C698.589 734.799 698.078 734.727 697.547 734.727C696.578 734.727 695.701 734.971 694.914 735.461C694.133 735.951 693.51 736.672 693.047 737.625C692.589 738.578 692.359 739.747 692.359 741.133C692.359 742.518 692.589 743.687 693.047 744.641C693.51 745.594 694.133 746.315 694.914 746.805C695.701 747.294 696.578 747.539 697.547 747.539C698.078 747.539 698.589 747.466 699.078 747.32C699.568 747.174 700.013 746.958 700.414 746.672C700.82 746.38 701.164 746.023 701.445 745.602C701.732 745.174 701.932 744.685 702.047 744.133H703.984C703.839 744.951 703.573 745.682 703.188 746.328C702.802 746.974 702.323 747.523 701.75 747.977C701.177 748.424 700.534 748.766 699.82 749C699.112 749.234 698.354 749.352 697.547 749.352C696.182 749.352 694.969 749.018 693.906 748.352C692.844 747.685 692.008 746.737 691.398 745.508C690.789 744.279 690.484 742.82 690.484 741.133C690.484 739.445 690.789 737.987 691.398 736.758C692.008 735.529 692.844 734.581 693.906 733.914C694.969 733.247 696.182 732.914 697.547 732.914C698.354 732.914 699.112 733.031 699.82 733.266C700.534 733.5 701.177 733.844 701.75 734.297C702.323 734.745 702.802 735.292 703.188 735.937C703.573 736.578 703.839 737.31 703.984 738.133ZM711.896 749.383C710.74 749.383 709.743 749.128 708.904 748.617C708.071 748.102 707.428 747.383 706.975 746.461C706.527 745.534 706.303 744.456 706.303 743.227C706.303 741.997 706.527 740.914 706.975 739.977C707.428 739.034 708.058 738.299 708.865 737.773C709.678 737.242 710.626 736.977 711.709 736.977C712.334 736.977 712.951 737.081 713.561 737.289C714.17 737.497 714.725 737.836 715.225 738.305C715.725 738.768 716.123 739.383 716.42 740.148C716.717 740.914 716.865 741.857 716.865 742.977V743.758H707.615V742.164H714.99C714.99 741.487 714.855 740.883 714.584 740.352C714.318 739.82 713.938 739.401 713.443 739.094C712.954 738.786 712.376 738.633 711.709 738.633C710.975 738.633 710.339 738.815 709.803 739.18C709.271 739.539 708.863 740.008 708.576 740.586C708.29 741.164 708.146 741.784 708.146 742.445V743.508C708.146 744.414 708.303 745.182 708.615 745.812C708.933 746.437 709.373 746.914 709.936 747.242C710.498 747.565 711.152 747.727 711.896 747.727C712.381 747.727 712.818 747.659 713.209 747.523C713.605 747.383 713.946 747.174 714.232 746.898C714.519 746.617 714.74 746.268 714.896 745.852L716.678 746.352C716.49 746.956 716.175 747.487 715.732 747.945C715.29 748.398 714.743 748.753 714.092 749.008C713.441 749.258 712.709 749.383 711.896 749.383ZM721.514 741.914V749.133H719.67V737.133H721.451V739.008H721.607C721.889 738.398 722.316 737.909 722.889 737.539C723.462 737.164 724.201 736.977 725.107 736.977C725.92 736.977 726.631 737.143 727.24 737.477C727.85 737.805 728.324 738.305 728.662 738.977C729.001 739.643 729.17 740.487 729.17 741.508V749.133H727.326V741.633C727.326 740.69 727.081 739.956 726.592 739.43C726.102 738.898 725.43 738.633 724.576 738.633C723.988 738.633 723.462 738.76 722.998 739.016C722.54 739.271 722.178 739.643 721.912 740.133C721.646 740.622 721.514 741.216 721.514 741.914ZM737.758 737.133V738.695H731.539V737.133H737.758ZM733.352 734.258H735.195V745.695C735.195 746.216 735.271 746.607 735.422 746.867C735.578 747.122 735.776 747.294 736.016 747.383C736.26 747.466 736.518 747.508 736.789 747.508C736.992 747.508 737.159 747.497 737.289 747.477C737.419 747.451 737.523 747.43 737.602 747.414L737.977 749.07C737.852 749.117 737.677 749.164 737.453 749.211C737.229 749.263 736.945 749.289 736.602 749.289C736.081 749.289 735.57 749.177 735.07 748.953C734.576 748.729 734.164 748.388 733.836 747.93C733.513 747.471 733.352 746.893 733.352 746.195V734.258ZM745.434 749.383C744.277 749.383 743.28 749.128 742.441 748.617C741.608 748.102 740.965 747.383 740.512 746.461C740.064 745.534 739.84 744.456 739.84 743.227C739.84 741.997 740.064 740.914 740.512 739.977C740.965 739.034 741.595 738.299 742.402 737.773C743.215 737.242 744.163 736.977 745.246 736.977C745.871 736.977 746.488 737.081 747.098 737.289C747.707 737.497 748.262 737.836 748.762 738.305C749.262 738.768 749.66 739.383 749.957 740.148C750.254 740.914 750.402 741.857 750.402 742.977V743.758H741.152V742.164H748.527C748.527 741.487 748.392 740.883 748.121 740.352C747.855 739.82 747.475 739.401 746.98 739.094C746.491 738.786 745.913 738.633 745.246 738.633C744.512 738.633 743.876 738.815 743.34 739.18C742.809 739.539 742.4 740.008 742.113 740.586C741.827 741.164 741.684 741.784 741.684 742.445V743.508C741.684 744.414 741.84 745.182 742.152 745.812C742.47 746.437 742.91 746.914 743.473 747.242C744.035 747.565 744.689 747.727 745.434 747.727C745.918 747.727 746.355 747.659 746.746 747.523C747.142 747.383 747.483 747.174 747.77 746.898C748.056 746.617 748.277 746.268 748.434 745.852L750.215 746.352C750.027 746.956 749.712 747.487 749.27 747.945C748.827 748.398 748.28 748.753 747.629 749.008C746.978 749.258 746.246 749.383 745.434 749.383ZM753.207 749.133V737.133H754.988V738.945H755.113C755.332 738.352 755.728 737.87 756.301 737.5C756.874 737.13 757.52 736.945 758.238 736.945C758.374 736.945 758.543 736.948 758.746 736.953C758.949 736.958 759.103 736.966 759.207 736.977V738.852C759.145 738.836 759.001 738.812 758.777 738.781C758.559 738.745 758.327 738.727 758.082 738.727C757.499 738.727 756.978 738.849 756.52 739.094C756.066 739.333 755.707 739.667 755.441 740.094C755.181 740.516 755.051 740.997 755.051 741.539V749.133H753.207Z" fill="black" style="fill:black;fill-opacity:1;"></path>
<g id="Group 1578">
<g id="Frame_10">
<path id="Vector_10" d="M1025.17 681.133C1027.38 681.133 1029.17 679.343 1029.17 677.133C1029.17 674.923 1027.38 673.133 1025.17 673.133C1022.96 673.133 1021.17 674.923 1021.17 677.133C1021.17 679.343 1022.96 681.133 1025.17 681.133Z" fill="black" style="fill:black;fill-opacity:1;"></path>
<path id="Vector_11" fill-rule="evenodd" clip-rule="evenodd" d="M1025.17 669.133C1030.93 669.133 1035.93 672.375 1038.44 677.133C1035.93 681.891 1030.93 685.133 1025.17 685.133C1019.42 685.133 1014.42 681.891 1011.9 677.133C1014.42 672.375 1019.42 669.133 1025.17 669.133ZM1025.17 683.133C1020.57 683.133 1016.53 680.745 1014.22 677.133C1016.53 673.521 1020.57 671.133 1025.17 671.133C1029.77 671.133 1033.82 673.521 1036.13 677.133C1033.82 680.745 1029.77 683.133 1025.17 683.133Z" fill="black" style="fill:black;fill-opacity:1;"></path>
</g>
<g id="Frame_11">
<path id="Vector_12" d="M1099.78 678.08H1077.79V676.08H1099.78V678.08Z" fill="black" style="fill:black;fill-opacity:1;"></path>
</g>
<path id="D9FD51" d="M744.047 685.133H739.109V669.133H744.266C745.818 669.133 747.146 669.453 748.25 670.094C749.354 670.729 750.201 671.643 750.789 672.836C751.378 674.023 751.672 675.445 751.672 677.102C751.672 678.768 751.375 680.203 750.781 681.406C750.188 682.604 749.323 683.526 748.188 684.172C747.052 684.812 745.672 685.133 744.047 685.133ZM741.047 683.414H743.922C745.245 683.414 746.341 683.159 747.211 682.648C748.081 682.138 748.729 681.411 749.156 680.469C749.583 679.526 749.797 678.404 749.797 677.102C749.797 675.81 749.586 674.698 749.164 673.766C748.742 672.828 748.112 672.109 747.273 671.609C746.435 671.104 745.391 670.852 744.141 670.852H741.047V683.414ZM759.734 668.914C760.391 668.919 761.047 669.044 761.703 669.289C762.359 669.534 762.958 669.94 763.5 670.508C764.042 671.07 764.477 671.839 764.805 672.812C765.133 673.786 765.297 675.008 765.297 676.477C765.297 677.898 765.161 679.161 764.891 680.266C764.625 681.365 764.24 682.292 763.734 683.047C763.234 683.802 762.625 684.375 761.906 684.766C761.193 685.156 760.385 685.352 759.484 685.352C758.589 685.352 757.789 685.174 757.086 684.82C756.388 684.461 755.815 683.964 755.367 683.328C754.924 682.687 754.641 681.945 754.516 681.102H756.422C756.594 681.836 756.935 682.443 757.445 682.922C757.961 683.396 758.641 683.633 759.484 683.633C760.719 683.633 761.693 683.094 762.406 682.016C763.125 680.937 763.484 679.414 763.484 677.445H763.359C763.068 677.883 762.721 678.26 762.32 678.578C761.919 678.896 761.474 679.141 760.984 679.313C760.495 679.484 759.974 679.57 759.422 679.57C758.505 679.57 757.664 679.344 756.898 678.891C756.138 678.432 755.529 677.805 755.07 677.008C754.617 676.206 754.391 675.289 754.391 674.258C754.391 673.279 754.609 672.383 755.047 671.57C755.49 670.753 756.109 670.102 756.906 669.617C757.708 669.133 758.651 668.898 759.734 668.914ZM759.734 670.633C759.078 670.633 758.487 670.797 757.961 671.125C757.44 671.448 757.026 671.885 756.719 672.437C756.417 672.984 756.266 673.591 756.266 674.258C756.266 674.924 756.411 675.531 756.703 676.078C757 676.62 757.404 677.052 757.914 677.375C758.43 677.693 759.016 677.852 759.672 677.852C760.167 677.852 760.628 677.755 761.055 677.562C761.482 677.365 761.854 677.096 762.172 676.758C762.495 676.414 762.747 676.026 762.93 675.594C763.112 675.156 763.203 674.701 763.203 674.227C763.203 673.602 763.052 673.016 762.75 672.469C762.453 671.922 762.042 671.479 761.516 671.141C760.995 670.802 760.401 670.633 759.734 670.633ZM768.65 685.133V669.133H778.244V670.852H770.588V676.258H777.525V677.977H770.588V685.133H768.65ZM786.5 685.133H781.563V669.133H786.719C788.271 669.133 789.599 669.453 790.703 670.094C791.807 670.729 792.654 671.643 793.242 672.836C793.831 674.023 794.125 675.445 794.125 677.102C794.125 678.768 793.828 680.203 793.234 681.406C792.641 682.604 791.776 683.526 790.641 684.172C789.505 684.812 788.125 685.133 786.5 685.133ZM783.5 683.414H786.375C787.698 683.414 788.794 683.159 789.664 682.648C790.534 682.138 791.182 681.411 791.609 680.469C792.036 679.526 792.25 678.404 792.25 677.102C792.25 675.81 792.039 674.698 791.617 673.766C791.195 672.828 790.565 672.109 789.727 671.609C788.888 671.104 787.844 670.852 786.594 670.852H783.5V683.414ZM802.094 685.352C801.177 685.352 800.352 685.169 799.617 684.805C798.883 684.44 798.294 683.94 797.852 683.305C797.409 682.669 797.167 681.945 797.125 681.133H799C799.073 681.857 799.401 682.456 799.984 682.93C800.573 683.398 801.276 683.633 802.094 683.633C802.75 683.633 803.333 683.479 803.844 683.172C804.359 682.865 804.763 682.443 805.055 681.906C805.352 681.365 805.5 680.753 805.5 680.07C805.5 679.372 805.346 678.75 805.039 678.203C804.737 677.651 804.32 677.216 803.789 676.898C803.258 676.581 802.651 676.419 801.969 676.414C801.479 676.409 800.977 676.484 800.461 676.641C799.945 676.792 799.521 676.987 799.188 677.227L797.375 677.008L798.344 669.133H806.656V670.852H799.969L799.406 675.57H799.5C799.828 675.31 800.24 675.094 800.734 674.922C801.229 674.75 801.745 674.664 802.281 674.664C803.26 674.664 804.133 674.898 804.898 675.367C805.669 675.831 806.273 676.466 806.711 677.273C807.154 678.081 807.375 679.003 807.375 680.039C807.375 681.06 807.146 681.971 806.687 682.773C806.234 683.57 805.609 684.201 804.813 684.664C804.016 685.122 803.109 685.352 802.094 685.352ZM816.104 669.133V685.133H814.166V671.164H814.072L810.166 673.758V671.789L814.166 669.133H816.104Z" fill="black" style="fill:black;fill-opacity:1;"></path>
<path id="100%" d="M890.453 669.133V685.133H888.516V671.164H888.422L884.516 673.758V671.789L888.516 669.133H890.453ZM900.273 685.352C899.096 685.352 898.094 685.031 897.266 684.391C896.438 683.745 895.805 682.81 895.367 681.586C894.93 680.357 894.711 678.872 894.711 677.133C894.711 675.404 894.93 673.927 895.367 672.703C895.81 671.474 896.445 670.536 897.273 669.891C898.107 669.24 899.107 668.914 900.273 668.914C901.44 668.914 902.438 669.24 903.266 669.891C904.099 670.536 904.734 671.474 905.172 672.703C905.615 673.927 905.836 675.404 905.836 677.133C905.836 678.872 905.617 680.357 905.18 681.586C904.742 682.81 904.109 683.745 903.281 684.391C902.453 685.031 901.451 685.352 900.273 685.352ZM900.273 683.633C901.44 683.633 902.346 683.07 902.992 681.945C903.638 680.82 903.961 679.216 903.961 677.133C903.961 675.747 903.813 674.568 903.516 673.594C903.224 672.62 902.802 671.878 902.25 671.367C901.703 670.857 901.044 670.602 900.273 670.602C899.117 670.602 898.214 671.172 897.563 672.312C896.911 673.448 896.586 675.055 896.586 677.133C896.586 678.518 896.732 679.695 897.023 680.664C897.315 681.633 897.734 682.37 898.281 682.875C898.833 683.38 899.497 683.633 900.273 683.633ZM914.023 685.352C912.846 685.352 911.844 685.031 911.016 684.391C910.188 683.745 909.555 682.81 909.117 681.586C908.68 680.357 908.461 678.872 908.461 677.133C908.461 675.404 908.68 673.927 909.117 672.703C909.56 671.474 910.195 670.536 911.023 669.891C911.857 669.24 912.857 668.914 914.023 668.914C915.19 668.914 916.188 669.24 917.016 669.891C917.849 670.536 918.484 671.474 918.922 672.703C919.365 673.927 919.586 675.404 919.586 677.133C919.586 678.872 919.367 680.357 918.93 681.586C918.492 682.81 917.859 683.745 917.031 684.391C916.203 685.031 915.201 685.352 914.023 685.352ZM914.023 683.633C915.19 683.633 916.096 683.07 916.742 681.945C917.388 680.82 917.711 679.216 917.711 677.133C917.711 675.747 917.563 674.568 917.266 673.594C916.974 672.62 916.552 671.878 916 671.367C915.453 670.857 914.794 670.602 914.023 670.602C912.867 670.602 911.964 671.172 911.313 672.312C910.661 673.448 910.336 675.055 910.336 677.133C910.336 678.518 910.482 679.695 910.773 680.664C911.065 681.633 911.484 682.37 912.031 682.875C912.583 683.38 913.247 683.633 914.023 683.633ZM930.711 682.133V681.289C930.711 680.706 930.831 680.172 931.07 679.687C931.315 679.198 931.669 678.807 932.133 678.516C932.602 678.219 933.169 678.07 933.836 678.07C934.513 678.07 935.081 678.219 935.539 678.516C935.997 678.807 936.344 679.198 936.578 679.687C936.813 680.172 936.93 680.706 936.93 681.289V682.133C936.93 682.716 936.81 683.253 936.57 683.742C936.336 684.227 935.987 684.617 935.523 684.914C935.065 685.206 934.503 685.352 933.836 685.352C933.159 685.352 932.589 685.206 932.125 684.914C931.661 684.617 931.31 684.227 931.07 683.742C930.831 683.253 930.711 682.716 930.711 682.133ZM932.305 681.289V682.133C932.305 682.617 932.419 683.052 932.648 683.437C932.878 683.818 933.273 684.008 933.836 684.008C934.383 684.008 934.768 683.818 934.992 683.437C935.221 683.052 935.336 682.617 935.336 682.133V681.289C935.336 680.805 935.227 680.372 935.008 679.992C934.789 679.607 934.398 679.414 933.836 679.414C933.289 679.414 932.896 679.607 932.656 679.992C932.422 680.372 932.305 680.805 932.305 681.289ZM922.742 672.977V672.133C922.742 671.549 922.862 671.016 923.102 670.531C923.346 670.042 923.701 669.651 924.164 669.359C924.633 669.062 925.201 668.914 925.867 668.914C926.544 668.914 927.112 669.062 927.57 669.359C928.029 669.651 928.375 670.042 928.609 670.531C928.844 671.016 928.961 671.549 928.961 672.133V672.977C928.961 673.56 928.841 674.096 928.602 674.586C928.367 675.07 928.018 675.461 927.555 675.758C927.096 676.049 926.534 676.195 925.867 676.195C925.19 676.195 924.62 676.049 924.156 675.758C923.693 675.461 923.341 675.07 923.102 674.586C922.862 674.096 922.742 673.56 922.742 672.977ZM924.336 672.133V672.977C924.336 673.461 924.451 673.896 924.68 674.281C924.909 674.661 925.305 674.852 925.867 674.852C926.414 674.852 926.799 674.661 927.023 674.281C927.253 673.896 927.367 673.461 927.367 672.977V672.133C927.367 671.648 927.258 671.216 927.039 670.836C926.82 670.451 926.43 670.258 925.867 670.258C925.32 670.258 924.927 670.451 924.688 670.836C924.453 671.216 924.336 671.648 924.336 672.133ZM923.336 685.133L934.336 669.133H936.117L925.117 685.133H923.336Z" fill="black" style="fill:black;fill-opacity:1;"></path>
<rect id="Rectangle 5712" x="689.172" y="661.133" width="32" height="32" rx="2" fill="#E0FC6F" style="fill:#E0FC6F;fill:color(display-p3 0.8784 0.9882 0.4353);fill-opacity:1;"></rect>
</g>
</g>
</g>
</g>
<defs>
<filter id="filter0_d_8_2989" x="920.562" y="66.2432" width="74.2061" height="74.2271" filterUnits="userSpaceOnUse" color-interpolation-filters="sRGB">
<feFlood flood-opacity="0" result="BackgroundImageFix"></feFlood>
<feColorMatrix in="SourceAlpha" type="matrix" values="0 0 0 0 0 0 0 0 0 0 0 0 0 0 0 0 0 0 127 0" result="hardAlpha"></feColorMatrix>
<feOffset dy="9"></feOffset>
<feGaussianBlur stdDeviation="6.1875"></feGaussianBlur>
<feComposite in2="hardAlpha" operator="out"></feComposite>
<feColorMatrix type="matrix" values="0 0 0 0 0 0 0 0 0 0 0 0 0 0 0 0 0 0 0.25 0"></feColorMatrix>
<feBlend mode="normal" in2="BackgroundImageFix" result="effect1_dropShadow_8_2989"></feBlend>
<feBlend mode="normal" in="SourceGraphic" in2="effect1_dropShadow_8_2989" result="shape"></feBlend>
</filter>
<clipPath id="clip0_8_2989">
<rect width="24" height="24" fill="white" style="fill:white;fill-opacity:1;" transform="translate(885.172 729.133)"></rect>
</clipPath>
</defs>
<style>
        @keyframes id_anim_stroke-property4{
        
            0%{
                stroke-dashoffset: 2323.77001953125px; 
        stroke-dasharray: 1859.0160156250001px, 464.7540039062499px;
            }
        
            100%{
                stroke-dashoffset: 0px; 
        stroke-dasharray: 1859.0160156250001px, 464.7540039062499px;
            }
        
        }
        </style></svg>
