<svg width="386" height="78" viewBox="0 0 386 78" fill="none" xmlns="http://www.w3.org/2000/svg">
<path d="M0 38.4C0 24.9587 0 18.2381 2.61584 13.1042C4.9168 8.58834 8.58834 4.9168 13.1042 2.61584C18.2381 0 24.9587 0 38.4 0H347.6C361.041 0 367.762 0 372.896 2.61584C377.412 4.9168 381.083 8.58834 383.384 13.1042C386 18.2381 386 24.9587 386 38.4V39.4581C386 52.8994 386 59.62 383.384 64.7539C381.083 69.2698 377.412 72.9413 372.896 75.2423C367.762 77.8581 361.041 77.8581 347.6 77.8581H38.4C24.9587 77.8581 18.2381 77.8581 13.1042 75.2423C8.58834 72.9413 4.9168 69.2698 2.61584 64.7539C0 59.62 0 52.8994 0 39.4581V38.4Z" fill="white" style="fill:white;fill-opacity:1;"/>
<path d="M16 34.3432C16 27.9225 16 24.7121 17.2496 22.2597C18.3487 20.1026 20.1026 18.3487 22.2597 17.2496C24.7121 16 27.9225 16 34.3432 16H298.154C304.574 16 307.785 16 310.237 17.2496C312.394 18.3487 314.148 20.1026 315.247 22.2597C316.497 24.7121 316.497 27.9225 316.497 34.3432V43.5149C316.497 49.9356 316.497 53.146 315.247 55.5984C314.148 57.7556 312.394 59.5094 310.237 60.6086C307.785 61.8581 304.574 61.8581 298.154 61.8581H34.3433C27.9225 61.8581 24.7121 61.8581 22.2597 60.6086C20.1026 59.5094 18.3487 57.7556 17.2496 55.5984C16 53.146 16 49.9356 16 43.5149V34.3432Z" fill="#F0F0F0" style="fill:#F0F0F0;fill:color(display-p3 0.9412 0.9412 0.9412);fill-opacity:1;"/>
<path d="M40.3436 33.5068V43.9291H39.0815V34.6264H33.8297V43.9291H32.5676V33.5068H40.3436ZM45.9021 44.0919C45.1964 44.0919 44.5772 43.924 44.0446 43.5881C43.5153 43.2522 43.1014 42.7824 42.8029 42.1785C42.5077 41.5746 42.3601 40.8689 42.3601 40.0614C42.3601 39.2472 42.5077 38.5364 42.8029 37.9291C43.1014 37.3218 43.5153 36.8503 44.0446 36.5144C44.5772 36.1785 45.1964 36.0106 45.9021 36.0106C46.6078 36.0106 47.2252 36.1785 47.7545 36.5144C48.2871 36.8503 48.701 37.3218 48.9962 37.9291C49.2948 38.5364 49.444 39.2472 49.444 40.0614C49.444 40.8689 49.2948 41.5746 48.9962 42.1785C48.701 42.7824 48.2871 43.2522 47.7545 43.5881C47.2252 43.924 46.6078 44.0919 45.9021 44.0919ZM45.9021 43.0131C46.4381 43.0131 46.8792 42.8757 47.2252 42.6008C47.5713 42.326 47.8274 41.9647 47.9937 41.5169C48.1599 41.0691 48.243 40.5839 48.243 40.0614C48.243 39.539 48.1599 39.0521 47.9937 38.6009C47.8274 38.1497 47.5713 37.7849 47.2252 37.5067C46.8792 37.2285 46.4381 37.0894 45.9021 37.0894C45.366 37.0894 44.925 37.2285 44.5789 37.5067C44.2329 37.7849 43.9767 38.1497 43.8105 38.6009C43.6442 39.0521 43.5611 39.539 43.5611 40.0614C43.5611 40.5839 43.6442 41.0691 43.8105 41.5169C43.9767 41.9647 44.2329 42.326 44.5789 42.6008C44.925 42.8757 45.366 43.0131 45.9021 43.0131ZM52.4784 42.1581L56.2442 36.1124H57.6284V43.9291H56.4274V37.8833L52.6819 43.9291H51.2773V36.1124H52.4784V42.1581ZM63.0037 44.0919C62.2709 44.0919 61.6399 43.9189 61.1106 43.5728C60.5813 43.2268 60.1742 42.7501 59.8892 42.1428C59.6042 41.5355 59.4618 40.8417 59.4618 40.0614C59.4618 39.2675 59.6076 38.567 59.8994 37.9597C60.1946 37.349 60.6051 36.8723 61.1309 36.5297C61.6602 36.1836 62.2777 36.0106 62.9834 36.0106C63.533 36.0106 64.0283 36.1124 64.4693 36.3159C64.9104 36.5195 65.2717 36.8045 65.5533 37.1709C65.8349 37.5373 66.0096 37.9648 66.0775 38.4533H64.8765C64.7849 38.0971 64.5813 37.7815 64.2658 37.5067C63.9537 37.2285 63.533 37.0894 63.0037 37.0894C62.5355 37.0894 62.125 37.2116 61.7722 37.4559C61.4227 37.6967 61.1496 38.0377 60.9528 38.4787C60.7595 38.9164 60.6628 39.4304 60.6628 40.0207C60.6628 40.6246 60.7578 41.1505 60.9477 41.5983C61.1411 42.0461 61.4125 42.3939 61.762 42.6416C62.1148 42.8892 62.5287 43.0131 63.0037 43.0131C63.3158 43.0131 63.5991 42.9588 63.8536 42.8502C64.108 42.7416 64.3235 42.5856 64.4999 42.382C64.6763 42.1785 64.8018 41.9342 64.8765 41.6492H66.0775C66.0096 42.1106 65.8417 42.5262 65.5737 42.896C65.309 43.2624 64.9579 43.5542 64.5202 43.7713C64.086 43.9851 63.5805 44.0919 63.0037 44.0919ZM67.8332 43.9291V36.1124H69.0342V39.5118H69.8281L72.6372 36.1124H74.1843L71.0291 39.8782L74.225 43.9291H72.6779L70.1131 40.6314H69.0342V43.9291H67.8332ZM78.828 46.4532V42.8095H79.4997C79.7304 42.5991 79.9476 42.3023 80.1511 41.9189C80.3581 41.5322 80.5328 41.0165 80.6753 40.3719C80.8212 39.7239 80.9179 38.9011 80.9654 37.9037L81.1893 33.5068H87.3775V42.8095H88.5785V46.4329H87.3775V43.9291H80.029V46.4532H78.828ZM81.0061 42.8095H86.1765V34.6264H82.3292L82.1664 37.9037C82.1257 38.6636 82.0544 39.3524 81.9526 39.9698C81.8509 40.5839 81.7203 41.1284 81.5608 41.6034C81.4013 42.075 81.2164 42.477 81.0061 42.8095ZM91.0353 44.0716V42.8909H91.6867C91.9377 42.8909 92.1481 42.8417 92.3177 42.7433C92.4907 42.6449 92.6332 42.5177 92.7452 42.3617C92.8605 42.2056 92.9555 42.0427 93.0302 41.8731L93.193 41.4864L89.59 33.5068H90.9538L93.824 39.98L96.45 33.5068H97.7935L94.1905 42.2395C94.048 42.5652 93.8851 42.8672 93.7019 43.1454C93.5221 43.4236 93.2761 43.6475 92.964 43.8171C92.6553 43.9868 92.2363 44.0716 91.707 44.0716H91.0353ZM104.497 42.1581L108.263 36.1124H109.647V43.9291H108.446V37.8833L104.701 43.9291H103.296V36.1124H104.497V42.1581ZM111.155 43.9291V42.8095H111.44C111.674 42.8095 111.869 42.7637 112.025 42.6721C112.181 42.5771 112.306 42.4126 112.401 42.1785C112.5 41.941 112.575 41.6119 112.625 41.1912C112.68 40.7671 112.719 40.2277 112.742 39.5729L112.885 36.1124H118.096V43.9291H116.895V37.2319H114.025L113.903 40.0207C113.876 40.6619 113.818 41.2268 113.73 41.7154C113.645 42.2005 113.514 42.6076 113.338 42.9367C113.165 43.2658 112.934 43.5135 112.646 43.6797C112.357 43.846 111.996 43.9291 111.562 43.9291H111.155ZM121.501 42.1581L125.267 36.1124H126.651V43.9291H125.45V37.8833L121.704 43.9291H120.3V36.1124H121.501V42.1581ZM133.654 46.8603C133.451 46.8603 133.269 46.8434 133.11 46.8095C132.951 46.7789 132.84 46.7484 132.779 46.7179L133.085 45.6593C133.376 45.734 133.634 45.7611 133.858 45.7408C134.082 45.7204 134.28 45.6203 134.453 45.4405C134.63 45.2641 134.791 44.9774 134.937 44.5805L135.161 43.9698L132.27 36.1124H133.573L135.731 42.3413H135.812L137.97 36.1124H139.273L135.955 45.069C135.805 45.4727 135.621 45.8069 135.4 46.0716C135.179 46.3396 134.923 46.538 134.632 46.667C134.343 46.7959 134.018 46.8603 133.654 46.8603ZM143.754 44.0919C143.021 44.0919 142.39 43.9189 141.861 43.5728C141.331 43.2268 140.924 42.7501 140.639 42.1428C140.354 41.5355 140.212 40.8417 140.212 40.0614C140.212 39.2675 140.358 38.567 140.649 37.9597C140.944 37.349 141.355 36.8723 141.881 36.5297C142.41 36.1836 143.028 36.0106 143.733 36.0106C144.283 36.0106 144.778 36.1124 145.219 36.3159C145.66 36.5195 146.022 36.8045 146.303 37.1709C146.585 37.5373 146.76 37.9648 146.827 38.4533H145.626C145.535 38.0971 145.331 37.7815 145.016 37.5067C144.704 37.2285 144.283 37.0894 143.754 37.0894C143.285 37.0894 142.875 37.2116 142.522 37.4559C142.173 37.6967 141.9 38.0377 141.703 38.4787C141.509 38.9164 141.413 39.4304 141.413 40.0207C141.413 40.6246 141.508 41.1505 141.698 41.5983C141.891 42.0461 142.162 42.3939 142.512 42.6416C142.865 42.8892 143.279 43.0131 143.754 43.0131C144.066 43.0131 144.349 42.9588 144.603 42.8502C144.858 42.7416 145.073 42.5856 145.25 42.382C145.426 42.1785 145.552 41.9342 145.626 41.6492H146.827C146.76 42.1106 146.592 42.5262 146.324 42.896C146.059 43.2624 145.708 43.5542 145.27 43.7713C144.836 43.9851 144.33 44.0919 143.754 44.0919ZM147.967 37.2319V36.1124H154.318V37.2319H151.754V43.9291H150.553V37.2319H147.967ZM156.07 46.8603V36.1124H157.231V37.3541H157.373C157.461 37.2184 157.583 37.0453 157.74 36.835C157.899 36.6213 158.126 36.4313 158.421 36.265C158.72 36.0954 159.124 36.0106 159.633 36.0106C160.291 36.0106 160.871 36.1751 161.373 36.5042C161.875 36.8333 162.267 37.2998 162.549 37.9037C162.83 38.5076 162.971 39.22 162.971 40.0411C162.971 40.8689 162.83 41.5864 162.549 42.1937C162.267 42.7976 161.877 43.2658 161.378 43.5983C160.879 43.9274 160.304 44.0919 159.653 44.0919C159.151 44.0919 158.749 44.0088 158.447 43.8426C158.145 43.6729 157.913 43.4812 157.75 43.2675C157.587 43.0504 157.461 42.8706 157.373 42.7281H157.271V46.8603H156.07ZM157.251 40.0207C157.251 40.611 157.337 41.1318 157.511 41.583C157.684 42.0309 157.936 42.382 158.269 42.6365C158.601 42.8875 159.008 43.0131 159.49 43.0131C159.992 43.0131 160.411 42.8807 160.747 42.6161C161.086 42.3481 161.341 41.9885 161.51 41.5372C161.684 41.0826 161.77 40.5771 161.77 40.0207C161.77 39.4711 161.685 38.9758 161.516 38.5347C161.349 38.0903 161.097 37.7391 160.757 37.4813C160.421 37.2201 159.999 37.0894 159.49 37.0894C159.002 37.0894 158.591 37.2133 158.259 37.4609C157.926 37.7052 157.675 38.0479 157.505 38.4889C157.336 38.9266 157.251 39.4372 157.251 40.0207ZM167.979 44.0919C167.273 44.0919 166.654 43.924 166.121 43.5881C165.592 43.2522 165.178 42.7824 164.879 42.1785C164.584 41.5746 164.437 40.8689 164.437 40.0614C164.437 39.2472 164.584 38.5364 164.879 37.9291C165.178 37.3218 165.592 36.8503 166.121 36.5144C166.654 36.1785 167.273 36.0106 167.979 36.0106C168.684 36.0106 169.302 36.1785 169.831 36.5144C170.364 36.8503 170.778 37.3218 171.073 37.9291C171.371 38.5364 171.521 39.2472 171.521 40.0614C171.521 40.8689 171.371 41.5746 171.073 42.1785C170.778 42.7824 170.364 43.2522 169.831 43.5881C169.302 43.924 168.684 44.0919 167.979 44.0919ZM167.979 43.0131C168.515 43.0131 168.956 42.8757 169.302 42.6008C169.648 42.326 169.904 41.9647 170.07 41.5169C170.236 41.0691 170.32 40.5839 170.32 40.0614C170.32 39.539 170.236 39.0521 170.07 38.6009C169.904 38.1497 169.648 37.7849 169.302 37.5067C168.956 37.2285 168.515 37.0894 167.979 37.0894C167.443 37.0894 167.002 37.2285 166.655 37.5067C166.309 37.7849 166.053 38.1497 165.887 38.6009C165.721 39.0521 165.638 39.539 165.638 40.0614C165.638 40.5839 165.721 41.0691 165.887 41.5169C166.053 41.9647 166.309 42.326 166.655 42.6008C167.002 42.8757 167.443 43.0131 167.979 43.0131ZM174.555 42.1581L178.321 36.1124H179.705V43.9291H178.504V37.8833L174.758 43.9291H173.354V36.1124H174.555V42.1581ZM177.527 33.5068H178.646C178.646 34.0564 178.456 34.5059 178.076 34.8554C177.697 35.2048 177.181 35.3795 176.529 35.3795C175.888 35.3795 175.378 35.2048 174.998 34.8554C174.621 34.5059 174.433 34.0564 174.433 33.5068H175.552C175.552 33.7714 175.625 34.0038 175.771 34.204C175.92 34.4041 176.173 34.5042 176.529 34.5042C176.886 34.5042 177.14 34.4041 177.293 34.204C177.449 34.0038 177.527 33.7714 177.527 33.5068ZM185.08 44.0919C184.347 44.0919 183.716 43.9189 183.187 43.5728C182.658 43.2268 182.251 42.7501 181.966 42.1428C181.681 41.5355 181.538 40.8417 181.538 40.0614C181.538 39.2675 181.684 38.567 181.976 37.9597C182.271 37.349 182.682 36.8723 183.207 36.5297C183.737 36.1836 184.354 36.0106 185.06 36.0106C185.609 36.0106 186.105 36.1124 186.546 36.3159C186.987 36.5195 187.348 36.8045 187.63 37.1709C187.911 37.5373 188.086 37.9648 188.154 38.4533H186.953C186.861 38.0971 186.658 37.7815 186.342 37.5067C186.03 37.2285 185.609 37.0894 185.08 37.0894C184.612 37.0894 184.202 37.2116 183.849 37.4559C183.499 37.6967 183.226 38.0377 183.029 38.4787C182.836 38.9164 182.739 39.4304 182.739 40.0207C182.739 40.6246 182.834 41.1505 183.024 41.5983C183.218 42.0461 183.489 42.3939 183.839 42.6416C184.191 42.8892 184.605 43.0131 185.08 43.0131C185.392 43.0131 185.676 42.9588 185.93 42.8502C186.185 42.7416 186.4 42.5856 186.576 42.382C186.753 42.1785 186.878 41.9342 186.953 41.6492H188.154C188.086 42.1106 187.918 42.5262 187.65 42.896C187.386 43.2624 187.034 43.5542 186.597 43.7713C186.163 43.9851 185.657 44.0919 185.08 44.0919ZM189.294 37.2319V36.1124H195.645V37.2319H193.08V43.9291H191.879V37.2319H189.294ZM197.397 43.9291V36.1124H200.593C201.434 36.1124 202.103 36.3023 202.598 36.6823C203.093 37.0623 203.341 37.5644 203.341 38.1887C203.341 38.6636 203.2 39.0317 202.919 39.293C202.637 39.5508 202.276 39.7256 201.835 39.8172C202.123 39.8579 202.403 39.9596 202.674 40.1225C202.949 40.2853 203.176 40.5093 203.356 40.7942C203.536 41.0758 203.626 41.4219 203.626 41.8324C203.626 42.2327 203.524 42.5907 203.321 42.9062C203.117 43.2217 202.825 43.4711 202.445 43.6543C202.065 43.8375 201.611 43.9291 201.081 43.9291H197.397ZM198.537 42.8299H201.081C201.495 42.8299 201.819 42.7315 202.053 42.5347C202.287 42.3379 202.405 42.0699 202.405 41.7306C202.405 41.3269 202.287 41.0097 202.053 40.779C201.819 40.5449 201.495 40.4278 201.081 40.4278H198.537V42.8299ZM198.537 39.3897H200.593C200.915 39.3897 201.192 39.3456 201.422 39.2574C201.653 39.1658 201.829 39.0368 201.952 38.8706C202.077 38.701 202.14 38.5008 202.14 38.2701C202.14 37.941 202.002 37.6832 201.728 37.4966C201.453 37.3066 201.075 37.2116 200.593 37.2116H198.537V39.3897ZM207.744 44.1123C207.249 44.1123 206.799 44.019 206.396 43.8324C205.992 43.6424 205.671 43.3693 205.434 43.0131C205.196 42.6534 205.078 42.2192 205.078 41.7103C205.078 41.2624 205.166 40.8994 205.342 40.6212C205.519 40.3396 205.754 40.1191 206.05 39.9596C206.345 39.8002 206.67 39.6814 207.027 39.6034C207.386 39.522 207.748 39.4575 208.111 39.41C208.586 39.349 208.971 39.3032 209.266 39.2726C209.564 39.2387 209.781 39.1827 209.917 39.1047C210.056 39.0267 210.126 38.891 210.126 38.6976V38.6569C210.126 38.1547 209.988 37.7646 209.714 37.4864C209.442 37.2082 209.03 37.0691 208.477 37.0691C207.904 37.0691 207.454 37.1946 207.128 37.4457C206.803 37.6967 206.574 37.9648 206.441 38.2497L205.301 37.8426C205.505 37.3676 205.776 36.9978 206.116 36.7332C206.458 36.4652 206.832 36.2786 207.235 36.1734C207.642 36.0649 208.043 36.0106 208.436 36.0106C208.687 36.0106 208.976 36.0411 209.301 36.1022C209.63 36.1598 209.948 36.2803 210.253 36.4635C210.562 36.6467 210.818 36.9232 211.021 37.293C211.225 37.6628 211.327 38.1581 211.327 38.779V43.9291H210.126V42.8706H210.065C209.983 43.0402 209.848 43.2217 209.658 43.4151C209.468 43.6085 209.215 43.773 208.899 43.9087C208.584 44.0444 208.199 44.1123 207.744 44.1123ZM207.927 43.0334C208.402 43.0334 208.803 42.9401 209.128 42.7535C209.457 42.5669 209.705 42.326 209.871 42.0309C210.041 41.7357 210.126 41.4253 210.126 41.0996V40.0004C210.075 40.0614 209.963 40.1174 209.79 40.1683C209.62 40.2158 209.424 40.2582 209.2 40.2955C208.979 40.3294 208.764 40.36 208.553 40.3871C208.346 40.4109 208.178 40.4312 208.049 40.4482C207.737 40.4889 207.446 40.5551 207.174 40.6467C206.906 40.7349 206.689 40.8689 206.523 41.0487C206.36 41.2251 206.279 41.466 206.279 41.7713C206.279 42.1886 206.433 42.5042 206.742 42.7179C207.054 42.9282 207.449 43.0334 207.927 43.0334Z" fill="black" fill-opacity="0.51" style="fill:black;fill-opacity:0.51;"/>
<path d="M342.483 16.5H351.657C354.876 16.5 357.26 16.5002 359.146 16.6543C361.027 16.808 362.37 17.1125 363.514 17.6953C365.577 18.7465 367.254 20.4233 368.306 22.4863C368.889 23.6303 369.192 24.9737 369.346 26.8545C369.5 28.741 369.501 31.1246 369.501 34.3428V43.5146C369.501 46.7332 369.5 49.1173 369.346 51.0039C369.192 52.8846 368.888 54.2272 368.306 55.3711C367.254 57.4342 365.577 59.1119 363.514 60.1631C362.37 60.7459 361.027 61.0495 359.146 61.2031C357.26 61.3573 354.876 61.3584 351.657 61.3584H342.483C339.265 61.3584 336.882 61.3572 334.995 61.2031C333.114 61.0495 331.771 60.746 330.627 60.1631C328.564 59.1119 326.887 57.4341 325.836 55.3711C325.253 54.2272 324.949 52.8846 324.795 51.0039C324.641 49.1173 324.641 46.7332 324.641 43.5146V34.3428C324.641 31.1246 324.641 28.741 324.795 26.8545C324.949 24.9737 325.253 23.6303 325.836 22.4863C326.887 20.4236 328.564 18.7465 330.627 17.6953C331.771 17.1124 333.114 16.808 334.995 16.6543C336.882 16.5002 339.265 16.5 342.483 16.5Z" stroke="black" stroke-opacity="0.11" style="stroke:black;stroke-opacity:0.11;"/>
<mask id="mask0_1567_50986" style="mask-type:alpha" maskUnits="userSpaceOnUse" x="335" y="26" width="25" height="25">
<rect x="335.07" y="26.9291" width="24" height="24" fill="#D9D9D9" style="fill:#D9D9D9;fill:color(display-p3 0.8510 0.8510 0.8510);fill-opacity:1;"/>
</mask>
<g mask="url(#mask0_1567_50986)">
<path d="M350.07 46.854L344.07 44.754L340.12 46.279C339.854 46.379 339.612 46.354 339.395 46.204C339.179 46.054 339.07 45.8374 339.07 45.554V33.329C339.07 33.1457 339.112 32.983 339.195 32.841C339.279 32.6997 339.404 32.5957 339.57 32.529L344.07 31.004L350.07 33.104L354.02 31.579C354.287 31.479 354.529 31.4957 354.745 31.629C354.962 31.7624 355.07 31.9624 355.07 32.229V44.604C355.07 44.7874 355.016 44.95 354.907 45.092C354.799 45.2334 354.662 45.3374 354.495 45.404L350.07 46.854ZM349.57 45.629V33.929L344.57 32.179V43.879L349.57 45.629ZM350.57 45.629L354.07 44.479V32.629L350.57 33.929V45.629ZM340.07 45.229L343.57 43.879V32.179L340.07 33.379V45.229Z" fill="black" fill-opacity="0.76" style="fill:black;fill-opacity:0.76;"/>
</g>
</svg>
