<svg width="1920" height="1080" viewBox="0 0 1920 1080" fill="none" xmlns="http://www.w3.org/2000/svg">
<rect width="1920" height="1080" fill="#EFE8C1" style="fill:#EFE8C1;fill:color(display-p3 0.9385 0.9110 0.7555);fill-opacity:1;"/>
<path d="M940.691 318.83V350.847C940.691 368.442 926.814 382.863 909.541 382.863C892.268 382.862 878.392 368.442 878.392 350.847C878.392 333.252 892.268 318.831 909.541 318.83H940.691Z" fill="#0ACF83" stroke="black" style="fill:#0ACF83;fill:color(display-p3 0.0392 0.8118 0.5137);fill-opacity:1;stroke:black;stroke-opacity:1;" stroke-width="5.5082"/>
<path d="M940.69 254.998V319.031H909.54C892.267 319.03 878.391 304.61 878.391 287.015C878.391 269.42 892.267 254.999 909.54 254.998H940.69Z" fill="#A259FF" stroke="black" style="fill:#A259FF;fill:color(display-p3 0.6353 0.3490 1.0000);fill-opacity:1;stroke:black;stroke-opacity:1;" stroke-width="5.5082"/>
<path d="M940.697 190.764V254.796H909.547C892.274 254.796 878.398 240.376 878.397 222.781C878.397 205.186 892.274 190.764 909.547 190.764H940.697Z" fill="#F24E1E" stroke="black" style="fill:#F24E1E;fill:color(display-p3 0.9490 0.3059 0.1176);fill-opacity:1;stroke:black;stroke-opacity:1;" stroke-width="5.5082"/>
<path d="M972.183 190.764C989.456 190.764 1003.33 205.185 1003.33 222.781C1003.33 240.376 989.456 254.796 972.183 254.796H941.033V190.764H972.183Z" fill="#FF7262" stroke="black" style="fill:#FF7262;fill:color(display-p3 1.0000 0.4471 0.3843);fill-opacity:1;stroke:black;stroke-opacity:1;" stroke-width="5.5082"/>
<path d="M972.183 254.797C989.456 254.797 1003.33 269.219 1003.33 286.814C1003.33 304.409 989.456 318.829 972.183 318.829C954.91 318.829 941.033 304.409 941.033 286.814C941.033 269.219 954.91 254.797 972.183 254.797Z" fill="#1ABCFE" stroke="black" style="fill:#1ABCFE;fill:color(display-p3 0.1020 0.7373 0.9961);fill-opacity:1;stroke:black;stroke-opacity:1;" stroke-width="5.5082"/>
<path d="M531.265 513.24C526.652 460.517 524.345 434.155 539.292 416.343C554.238 398.53 580.6 396.224 633.323 391.611L1247.96 337.838C1300.68 333.225 1327.04 330.919 1344.85 345.865C1362.67 360.811 1364.97 387.173 1369.58 439.897L1379.75 556.073L541.429 629.417L531.265 513.24Z" fill="#FBFF54" style="fill:#FBFF54;fill:color(display-p3 0.9843 1.0000 0.3294);fill-opacity:1;"/>
<path d="M651.025 537.471C666.916 536.08 677.881 532.171 683.92 525.743C690.099 519.304 692.707 510.577 691.743 499.565C690.694 487.577 686.487 478.816 679.12 473.28C671.74 467.605 660.454 465.432 645.26 466.761C631.32 467.98 620.798 472.132 613.692 479.215C606.574 486.158 603.528 495.484 604.552 507.194C605.54 518.484 609.838 526.677 617.447 531.77C625.057 536.863 636.249 538.763 651.025 537.471ZM664.613 565.147C651.231 566.317 639.921 565.481 630.683 562.637C621.584 559.781 614.284 555.012 608.783 548.33L614.125 609.385L579.415 612.421L565.147 449.33L595.674 446.659L600.104 468.394C604.924 459.264 612.023 452.111 621.403 446.936C630.922 441.749 641.954 438.607 654.499 437.509C675.409 435.68 692.409 439.741 705.499 449.692C718.59 459.643 726.062 475.213 727.916 496.401C728.843 506.995 727.766 516.359 724.685 524.495C721.744 532.618 717.229 539.614 711.141 545.485C705.18 551.203 698.204 555.747 690.211 559.115C682.206 562.343 673.673 564.354 664.613 565.147ZM785.639 550.976L749.884 554.105L735.981 395.195L771.736 392.067L785.639 550.976ZM917.336 539.454L911.821 512.547C908.747 522.367 903.07 530.519 894.788 537.003C886.494 543.347 875.656 547.104 862.274 548.275C843.734 549.897 829.059 545.913 818.247 536.325C807.563 526.584 801.44 512.793 799.879 494.951L794.135 429.296L830.099 426.149L835.221 484.695C836.257 496.544 839.768 505.366 845.753 511.164C851.726 516.821 861.264 519.077 874.367 517.931C885.798 516.931 894.211 512.753 899.608 505.398C904.992 497.904 907.166 488.233 906.129 476.384L901.19 419.93L937.363 416.765L947.863 536.784L917.336 539.454ZM1121.83 532.52C1122.23 537.12 1121.91 541.432 1120.85 545.457C1119.94 549.47 1118.3 553.195 1115.93 556.633C1111.07 563.66 1103 569.422 1091.74 573.919C1080.47 578.417 1065.43 581.488 1046.61 583.135L1037.41 583.94C1028.63 584.708 1020.66 585.124 1013.5 585.189C1006.5 585.38 1000.3 585.15 994.903 584.498C984.266 583.322 976.395 580.85 971.289 577.083C966.196 573.455 963.381 568.575 962.845 562.441C962.15 554.496 964.819 548.082 970.853 543.2C976.887 538.318 987.446 534.585 1002.53 532.001C988.579 533.081 977.857 532.544 970.365 530.39C962.872 528.237 958.736 522.699 957.955 513.778C957.345 506.808 959.97 500.679 965.828 495.391C971.674 489.963 982.239 486.3 997.523 484.401C985.807 483.741 976.6 481.245 969.9 476.915C963.328 472.434 959.59 465.035 958.688 454.72C957.578 442.035 962.542 431.347 973.581 422.656C984.758 413.953 1002.54 408.534 1026.94 406.4L1031.75 405.979C1035.79 405.625 1039.4 405.169 1042.58 404.61C1045.77 404.05 1048.58 403.312 1051.03 402.396C1055.81 400.854 1059.09 398.179 1060.86 394.372C1062.77 390.553 1063.41 385.019 1062.78 377.77L1062.63 376.098L1101.94 372.658L1102.07 374.122C1102.73 381.649 1102.47 387.501 1101.29 391.678C1100.11 395.855 1097.65 399.02 1093.9 401.173C1090.29 403.175 1085.01 404.69 1078.08 405.718C1071.13 406.607 1062.29 407.521 1051.56 408.46C1069.92 407.977 1083.41 410.449 1092.03 415.875C1100.65 421.301 1105.48 429.938 1106.52 441.787C1107.71 455.447 1102.73 465.926 1091.57 473.224C1080.4 480.381 1063.1 484.985 1039.68 487.033L1025.46 488.277C1019.75 488.777 1014.74 489.286 1010.43 489.804C1006.26 490.309 1002.79 490.823 1000.03 491.346C994.64 492.379 991.095 493.602 989.392 495.015C987.829 496.416 987.139 498.162 987.322 500.253C987.395 501.089 987.747 501.901 988.378 502.689C988.997 503.337 989.882 503.821 991.034 504.142C993.349 504.922 997.244 505.284 1002.72 505.227C1008.32 505.018 1015.86 504.498 1025.34 503.669L1057.95 500.815C1079.14 498.962 1094.78 500.263 1104.86 504.718C1114.94 509.174 1120.57 518.092 1121.74 531.474L1121.83 532.52ZM1033.91 464.363C1047.71 463.155 1057.7 460.947 1063.88 457.737C1070.06 454.528 1072.9 450.066 1072.4 444.35C1071.85 438.078 1068.53 433.873 1062.44 431.737C1056.5 429.588 1046.69 429.112 1033.03 430.307L1028.85 430.673C1015.47 431.843 1006.19 434.13 1001.01 437.533C995.815 440.797 993.5 445.635 994.061 452.047C994.61 458.319 997.972 462.239 1004.15 463.806C1010.47 465.36 1020.38 465.546 1033.91 464.363ZM1040.85 555.827L1048.38 555.169C1053.96 554.681 1058.82 554.115 1062.98 553.47C1067.28 552.813 1070.86 552.008 1073.73 551.055C1079.75 549.264 1083.85 547.15 1086.02 544.712C1088.21 542.414 1089.18 539.871 1088.94 537.083L1088.85 536.037C1088.74 534.783 1088.42 533.616 1087.91 532.538C1087.54 531.586 1086.98 530.723 1086.21 529.947C1084.67 528.397 1081.62 527.329 1077.08 526.743C1072.54 526.297 1065.54 526.488 1056.06 527.318L1027.83 529.787C1017.65 530.678 1010 532.33 1004.88 534.745C999.903 537.287 997.641 541.137 998.093 546.295L998.111 546.504C998.562 551.661 1002.21 554.784 1009.04 555.871C1016.03 557.086 1026.64 557.071 1040.85 555.827ZM1137.38 380.725C1129.3 381.432 1123.31 380.411 1119.41 377.661C1115.51 374.772 1113.2 369.285 1112.5 361.2C1111.81 353.394 1113.36 347.781 1117.13 344.361C1120.9 340.801 1126.4 338.704 1133.65 338.07C1141.04 337.424 1146.82 338.533 1151.01 341.397C1155.32 344.11 1157.81 349.37 1158.5 357.176C1159.16 364.703 1157.69 370.38 1154.09 374.206C1150.62 377.881 1145.05 380.054 1137.38 380.725ZM1167.05 517.607L1130.46 520.808L1119.96 400.789L1156.55 397.588L1167.05 517.607ZM1220.44 459.42L1225.09 512.53L1188.91 515.694L1178.41 395.676L1209.36 392.968L1214.57 418.849C1218.5 409.095 1224.75 401.103 1233.33 394.874C1241.91 388.505 1252.75 384.748 1265.85 383.602C1272.12 383.053 1277.96 383.174 1283.37 383.965C1288.9 384.605 1294.01 385.984 1298.69 388.103C1307.89 392.074 1315.17 398.249 1320.54 406.628C1326.04 414.996 1329.32 425.173 1330.37 437.161L1336.12 502.816L1300.15 505.962L1295.16 448.88C1294.1 436.753 1290.69 427.5 1284.93 421.121C1279.18 414.742 1269.68 412.131 1256.44 413.29C1242.64 414.497 1232.85 419.006 1227.07 426.815C1221.42 434.473 1219.21 445.341 1220.44 459.42Z" fill="black" style="fill:black;fill-opacity:1;"/>
<path d="M342.027 754.001C337.646 703.926 335.456 678.888 348.942 661.503C349.822 660.369 350.745 659.268 351.709 658.205C366.488 641.905 391.526 639.714 441.602 635.333L1479.08 544.565C1529.16 540.184 1554.2 537.993 1571.58 551.48C1572.72 552.36 1573.82 553.283 1574.88 554.247C1591.18 569.026 1593.37 594.064 1597.75 644.14V644.14C1602.13 694.211 1604.32 719.247 1590.84 736.631C1589.96 737.765 1589.04 738.865 1588.07 739.929C1573.29 756.227 1548.26 758.418 1498.19 762.798L460.686 853.568C410.614 857.949 385.579 860.139 368.195 846.654C367.061 845.774 365.961 844.851 364.897 843.887C348.598 829.109 346.408 804.073 342.027 754.001V754.001Z" fill="#F3C5D3" style="fill:#F3C5D3;fill:color(display-p3 0.9529 0.7725 0.8275);fill-opacity:1;"/>
<path d="M455.716 805.157C431.182 807.304 411.983 805.402 398.119 799.451C384.382 793.349 375.333 783.044 370.974 768.537L411.747 764.969C414.21 770.653 418.625 774.551 424.99 776.663C431.343 778.636 441.419 779.018 455.219 777.811C468.183 776.677 476.931 774.717 481.463 771.933C485.983 769.009 488.06 765.456 487.694 761.275C487.523 759.323 486.825 757.769 485.601 756.612C484.515 755.443 482.408 754.644 479.281 754.215C476.141 753.647 471.486 753.422 465.316 753.541C459.134 753.52 451.013 753.809 440.952 754.408C417.194 755.784 399.919 754.205 389.128 749.672C378.477 745.125 372.633 736.928 371.596 725.08C371.243 721.037 371.471 717.225 372.281 713.642C373.219 709.908 374.808 706.398 377.049 703.112C381.379 696.412 388.334 690.817 397.914 686.327C407.494 681.837 419.88 678.928 435.074 677.598C457.517 675.635 475.373 677.444 488.644 683.025C502.053 688.594 511.553 698.438 517.143 712.557L478.67 715.923C476.46 709.936 471.704 706.138 464.399 704.53C457.222 702.77 448.058 702.377 436.906 703.353C432.585 703.731 428.764 704.206 425.443 704.777C422.122 705.349 419.307 706.087 416.998 706.991C412.508 708.648 409.442 710.532 407.801 712.642C406.159 714.752 405.436 716.922 405.631 719.152C405.79 720.964 406.342 722.461 407.288 723.642C408.234 724.824 410.214 725.774 413.226 726.494C416.227 727.074 420.679 727.387 426.582 727.432C432.625 727.466 440.683 727.252 450.756 726.792C464.465 726.155 475.848 726.212 484.903 726.965C493.958 727.718 501.123 729.339 506.398 731.827C511.799 734.164 515.74 737.471 518.222 741.748C520.691 745.887 522.2 751.092 522.748 757.365C523.797 769.353 518.675 779.844 507.382 788.838C496.217 797.681 478.994 803.121 455.716 805.157ZM568.564 737.344L573.247 790.872L538.956 793.872L525.053 634.962L559.344 631.962L564.887 695.317C568.579 686.145 574.521 678.602 582.712 672.688C591.031 666.623 601.602 663.029 614.426 661.907C620.699 661.358 626.539 661.479 631.945 662.27C637.479 662.91 642.517 664.295 647.058 666.426C656.254 670.397 663.536 676.573 668.905 684.952C674.273 693.331 677.482 703.515 678.53 715.503L684.275 781.158L648.52 784.286L643.69 729.086C643.337 725.043 642.729 721.304 641.866 717.868C640.992 714.293 639.932 711.014 638.688 708.033C635.921 702.095 631.813 697.678 626.362 694.784C621.039 691.738 613.987 690.6 605.205 691.368C591.405 692.575 581.54 697.02 575.611 704.702C569.681 712.385 567.332 723.265 568.564 737.344ZM758.572 753.378C763.869 752.914 768.781 752.063 773.308 750.824C777.962 749.434 782.231 747.656 786.115 745.49C794.034 741.286 800.05 736.194 804.162 730.216C808.414 724.226 810.278 718.234 809.753 712.24L809.68 711.403C808.33 713.628 805.346 715.645 800.728 717.454C796.111 719.262 788.948 720.872 779.239 722.283C767.857 723.841 759.212 725.37 753.303 726.87C747.383 728.231 742.886 729.818 739.814 731.632C737.415 733.106 735.667 734.804 734.571 736.726C733.475 738.648 733.031 740.794 733.238 743.163L733.257 743.372C733.598 747.276 735.672 750.114 739.48 751.888C743.426 753.649 749.79 754.146 758.572 753.378ZM819.593 769.319L813.969 741.157C809.919 751.063 802.587 759.57 791.972 766.679C781.345 773.649 767.389 777.89 750.104 779.402C733.655 780.841 720.726 779.163 711.317 774.367C702.035 769.421 696.895 761.232 695.894 749.802L695.876 749.593C695.266 742.623 696.269 736.425 698.885 730.999C701.5 725.573 705.949 721.04 712.233 717.4C714.099 716.254 716.117 715.235 718.286 714.343C720.443 713.311 722.676 712.343 724.985 711.439C729.754 709.757 735.935 708.163 743.529 706.656C751.249 704.997 761.491 703.259 774.255 701.44C778.691 700.771 782.639 700.144 786.1 699.561C789.56 698.977 792.457 698.372 794.79 697.747C799.608 696.623 802.932 695.279 804.761 693.714C806.579 692.01 807.371 689.834 807.14 687.185L807.121 686.976C806.999 685.582 806.605 684.282 805.938 683.076C805.41 681.859 804.533 680.671 803.308 679.514C801.149 677.315 797.494 675.668 792.341 674.574C787.328 673.468 780.501 673.292 771.858 674.049C766.701 674.5 762.119 675.111 758.113 675.883C754.095 676.516 750.659 677.378 747.805 678.471C741.933 680.389 737.737 683.003 735.217 686.314C732.686 689.485 731.348 693.465 731.205 698.253L694.614 701.454C695.176 685.393 701.545 673.107 713.723 664.597C725.901 656.087 743.49 650.826 766.49 648.814C774.296 648.131 781.436 647.857 787.909 647.993C794.522 648.117 800.537 648.644 805.956 649.575C816.667 651.587 825.057 655.98 831.128 662.753C837.186 669.387 840.783 679.185 841.917 692.149L848.447 766.795L819.593 769.319ZM944.416 733.115C960.307 731.725 971.272 727.816 977.311 721.388C983.49 714.948 986.098 706.222 985.134 695.21C984.086 683.222 979.878 674.46 972.511 668.925C965.132 663.249 953.845 661.076 938.651 662.406C924.712 663.625 914.189 667.777 907.083 674.859C899.965 681.803 896.919 691.129 897.943 702.838C898.931 714.129 903.229 722.321 910.839 727.415C918.448 732.508 929.64 734.408 944.416 733.115ZM958.004 760.791C944.622 761.962 933.312 761.126 924.074 758.282C914.975 755.426 907.675 750.657 902.174 743.975L907.516 805.029L872.807 808.066L858.538 644.975L889.065 642.304L893.495 664.039C898.315 654.909 905.414 647.756 914.794 642.581C924.313 637.394 935.345 634.252 947.891 633.154C968.8 631.325 985.8 635.386 998.891 645.337C1011.98 655.288 1019.45 670.857 1021.31 692.045C1022.23 702.639 1021.16 712.004 1018.08 720.139C1015.14 728.263 1010.62 735.259 1004.53 741.13C998.571 746.848 991.595 751.391 983.602 754.759C975.597 757.988 967.065 759.999 958.004 760.791ZM1194.21 700.516C1189.09 715.853 1179.96 727.046 1166.81 734.096C1153.66 741.146 1137.19 745.536 1117.39 747.268C1107.91 748.097 1099.28 748.15 1091.49 747.427C1083.85 746.831 1077.07 745.529 1071.13 743.52C1059.38 739.21 1050.59 732.675 1044.77 723.914C1039.07 715.002 1035.69 704.482 1034.63 692.354C1034.11 686.361 1034.31 680.584 1035.22 675.026C1036.27 669.316 1038.04 663.824 1040.52 658.55C1045.63 647.849 1053.84 638.914 1065.15 631.744C1076.46 624.574 1091.04 620.209 1108.88 618.648C1117.24 617.916 1124.96 617.873 1132.04 618.518C1139.26 619.15 1145.99 620.528 1152.21 622.653C1164.37 626.786 1174.01 633.387 1181.12 642.456C1188.24 651.526 1192.38 662.752 1193.55 676.133L1194.67 688.888L1069.21 699.864C1071.98 707.487 1077.17 713.003 1084.78 716.411C1092.38 719.819 1103.43 720.889 1117.92 719.621C1128.8 718.67 1137.07 716.893 1142.74 714.289C1148.41 711.686 1152.53 708.235 1155.11 703.937L1194.21 700.516ZM1112.3 645.738C1099.06 646.897 1088.79 649.972 1081.51 654.964C1074.22 659.956 1069.66 666.465 1067.83 674.491L1157.33 666.661C1154.61 658.05 1149.6 652.168 1142.3 649.014C1135.13 645.708 1125.13 644.616 1112.3 645.738ZM1250.81 731.592L1215.06 734.72L1201.15 575.811L1236.91 572.683L1250.81 731.592ZM1324.21 703.891C1329.5 703.428 1334.42 702.577 1338.94 701.338C1343.6 699.947 1347.87 698.169 1351.75 696.004C1359.67 691.799 1365.68 686.708 1369.8 680.73C1374.05 674.739 1375.91 668.747 1375.39 662.753L1375.31 661.917C1373.96 664.142 1370.98 666.159 1366.36 667.967C1361.74 669.776 1354.58 671.386 1344.87 672.797C1333.49 674.355 1324.85 675.883 1318.94 677.384C1313.02 678.744 1308.52 680.332 1305.45 682.145C1303.05 683.62 1301.3 685.318 1300.21 687.239C1299.11 689.161 1298.67 691.307 1298.87 693.677L1298.89 693.886C1299.23 697.789 1301.31 700.627 1305.11 702.401C1309.06 704.163 1315.42 704.66 1324.21 703.891ZM1385.23 719.833L1379.6 691.67C1375.55 701.576 1368.22 710.083 1357.61 717.192C1346.98 724.162 1333.02 728.403 1315.74 729.915C1299.29 731.354 1286.36 729.676 1276.95 724.881C1267.67 719.934 1262.53 711.745 1261.53 700.315L1261.51 700.106C1260.9 693.136 1261.9 686.938 1264.52 681.513C1267.13 676.087 1271.58 671.554 1277.87 667.914C1279.73 666.767 1281.75 665.748 1283.92 664.856C1286.08 663.824 1288.31 662.857 1290.62 661.952C1295.39 660.271 1301.57 658.677 1309.16 657.17C1316.88 655.511 1327.13 653.772 1339.89 651.953C1344.32 651.284 1348.27 650.658 1351.73 650.074C1355.19 649.49 1358.09 648.886 1360.42 648.26C1365.24 647.136 1368.57 645.792 1370.4 644.227C1372.21 642.523 1373.01 640.347 1372.77 637.699L1372.76 637.489C1372.63 636.096 1372.24 634.796 1371.57 633.59C1371.04 632.372 1370.17 631.184 1368.94 630.027C1366.78 627.829 1363.13 626.182 1357.98 625.088C1352.96 623.981 1346.13 623.806 1337.49 624.562C1332.33 625.013 1327.75 625.625 1323.75 626.397C1319.73 627.029 1316.29 627.892 1313.44 628.984C1307.57 630.902 1303.37 633.517 1300.85 636.827C1298.32 639.999 1296.98 643.978 1296.84 648.767L1260.25 651.968C1260.81 635.906 1267.18 623.62 1279.36 615.11C1291.54 606.601 1309.12 601.339 1332.12 599.327C1339.93 598.644 1347.07 598.371 1353.54 598.507C1360.16 598.631 1366.17 599.158 1371.59 600.088C1382.3 602.101 1390.69 606.494 1396.76 613.267C1402.82 619.9 1406.42 629.699 1407.55 642.662L1414.08 717.308L1385.23 719.833ZM1537.39 706.52L1495.19 667.231L1459.19 713.362L1414.65 717.258L1472.07 648.606L1410.43 596.691L1454.54 592.831L1492.55 627.431L1524.17 586.739L1567.87 582.916L1515.78 644.992L1581.51 702.66L1537.39 706.52Z" fill="black" style="fill:black;fill-opacity:1;"/>
</svg>
