<svg width="1920" height="1080" viewBox="0 0 1920 1080" fill="none" xmlns="http://www.w3.org/2000/svg">
<rect width="1920" height="1080" fill="#BEB1CF" style="fill:#BEB1CF;fill:color(display-p3 0.7451 0.6941 0.8118);fill-opacity:1;"/>
<path d="M940.691 318.83V350.847C940.691 368.442 926.814 382.863 909.541 382.863C892.268 382.862 878.392 368.442 878.392 350.847C878.392 333.252 892.268 318.831 909.541 318.83H940.691Z" fill="#0ACF83" stroke="black" style="fill:#0ACF83;fill:color(display-p3 0.0392 0.8118 0.5137);fill-opacity:1;stroke:black;stroke-opacity:1;" stroke-width="5.5082"/>
<path d="M940.69 254.998V319.031H909.54C892.267 319.03 878.391 304.61 878.391 287.015C878.391 269.42 892.267 254.999 909.54 254.998H940.69Z" fill="#A259FF" stroke="black" style="fill:#A259FF;fill:color(display-p3 0.6353 0.3490 1.0000);fill-opacity:1;stroke:black;stroke-opacity:1;" stroke-width="5.5082"/>
<path d="M940.697 190.764V254.796H909.547C892.274 254.796 878.398 240.376 878.397 222.781C878.397 205.186 892.274 190.764 909.547 190.764H940.697Z" fill="#F24E1E" stroke="black" style="fill:#F24E1E;fill:color(display-p3 0.9490 0.3059 0.1176);fill-opacity:1;stroke:black;stroke-opacity:1;" stroke-width="5.5082"/>
<path d="M972.183 190.764C989.456 190.764 1003.33 205.185 1003.33 222.781C1003.33 240.376 989.456 254.796 972.183 254.796H941.033V190.764H972.183Z" fill="#FF7262" stroke="black" style="fill:#FF7262;fill:color(display-p3 1.0000 0.4471 0.3843);fill-opacity:1;stroke:black;stroke-opacity:1;" stroke-width="5.5082"/>
<path d="M972.183 254.797C989.456 254.797 1003.33 269.219 1003.33 286.814C1003.33 304.409 989.456 318.829 972.183 318.829C954.91 318.829 941.033 304.409 941.033 286.814C941.033 269.219 954.91 254.797 972.183 254.797Z" fill="#1ABCFE" stroke="black" style="fill:#1ABCFE;fill:color(display-p3 0.1020 0.7373 0.9961);fill-opacity:1;stroke:black;stroke-opacity:1;" stroke-width="5.5082"/>
<path d="M507.355 515.332C502.743 462.608 500.436 436.247 515.382 418.434C530.329 400.622 556.69 398.316 609.414 393.703L1271.86 335.746C1324.59 331.134 1350.95 328.827 1368.76 343.773C1386.57 358.72 1388.88 385.081 1393.49 437.805L1393.87 442.151C1398.48 494.868 1400.79 521.227 1385.85 539.037C1370.9 556.847 1344.54 559.153 1291.83 563.766L629.35 621.725C576.633 626.337 550.274 628.643 532.464 613.699C514.654 598.754 512.348 572.395 507.736 519.678L507.355 515.332Z" fill="#FBFF54" style="fill:#FBFF54;fill:color(display-p3 0.9843 1.0000 0.3294);fill-opacity:1;"/>
<path d="M621.295 569.358C596.761 571.504 577.562 569.602 563.698 563.652C549.961 557.549 540.912 547.245 536.553 532.737L577.326 529.17C579.79 534.854 584.204 538.752 590.569 540.864C596.922 542.836 606.998 543.219 620.798 542.011C633.762 540.877 642.51 538.918 647.042 536.134C651.562 533.21 653.639 529.657 653.273 525.475C653.102 523.524 652.405 521.969 651.18 520.812C650.094 519.643 647.988 518.844 644.86 518.416C641.72 517.848 637.065 517.623 630.895 517.741C624.713 517.72 616.592 518.009 606.531 518.609C582.773 519.985 565.498 518.406 554.708 513.872C544.056 509.326 538.212 501.129 537.175 489.28C536.822 485.238 537.05 481.425 537.86 477.843C538.798 474.109 540.387 470.599 542.628 467.312C546.958 460.613 553.913 455.018 563.493 450.528C573.073 446.038 585.46 443.128 600.654 441.799C623.096 439.835 640.952 441.644 654.223 447.225C667.632 452.794 677.132 462.638 682.722 476.757L644.249 480.123C642.039 474.136 637.283 470.338 629.978 468.73C622.801 466.97 613.637 466.578 602.485 467.554C598.164 467.932 594.343 468.406 591.022 468.978C587.701 469.549 584.886 470.287 582.577 471.192C578.087 472.849 575.021 474.732 573.38 476.842C571.738 478.952 571.015 481.122 571.21 483.353C571.369 485.165 571.921 486.662 572.867 487.843C573.814 489.024 575.793 489.975 578.806 490.695C581.806 491.275 586.258 491.588 592.161 491.633C598.204 491.666 606.262 491.453 616.335 490.993C630.044 490.355 641.427 490.413 650.482 491.166C659.538 491.919 666.702 493.539 671.977 496.027C677.378 498.364 681.32 501.671 683.801 505.949C686.27 510.087 687.779 515.293 688.327 521.566C689.376 533.553 684.254 544.045 672.961 553.039C661.796 561.882 644.574 567.321 621.295 569.358ZM734.143 501.545L738.826 555.072L704.535 558.072L690.632 399.162L724.923 396.162L730.466 459.517C734.158 450.345 740.1 442.802 748.291 436.888C756.61 430.823 767.181 427.229 780.005 426.107C786.278 425.559 792.118 425.68 797.525 426.471C803.059 427.11 808.096 428.496 812.637 430.627C821.833 434.598 829.116 440.773 834.484 449.153C839.852 457.532 843.061 467.716 844.11 479.704L849.854 545.358L814.099 548.487L809.27 493.286C808.916 489.244 808.308 485.505 807.445 482.069C806.571 478.493 805.511 475.215 804.267 472.233C801.5 466.295 797.392 461.879 791.941 458.985C786.618 455.939 779.566 454.8 770.784 455.568C756.984 456.776 747.119 461.221 741.19 468.903C735.26 476.585 732.911 487.466 734.143 501.545ZM924.151 517.578C929.448 517.115 934.36 516.264 938.887 515.025C943.541 513.635 947.81 511.856 951.694 509.691C959.613 505.486 965.629 500.395 969.741 494.417C973.993 488.426 975.857 482.434 975.332 476.44L975.259 475.604C973.909 477.829 970.925 479.846 966.307 481.654C961.69 483.463 954.527 485.073 944.818 486.484C933.436 488.042 924.791 489.57 918.883 491.071C912.962 492.431 908.465 494.019 905.393 495.833C902.994 497.307 901.246 499.005 900.15 500.926C899.054 502.848 898.61 504.994 898.817 507.364L898.836 507.573C899.177 511.476 901.252 514.314 905.059 516.088C909.005 517.85 915.369 518.347 924.151 517.578ZM985.172 533.52L979.548 505.357C975.498 515.263 968.166 523.77 957.551 530.879C946.924 537.849 932.968 542.09 915.683 543.602C899.234 545.041 886.305 543.363 876.896 538.568C867.615 533.621 862.474 525.432 861.474 514.002L861.455 513.793C860.846 506.823 861.848 500.625 864.464 495.2C867.079 489.774 871.529 485.241 877.812 481.601C879.678 480.454 881.696 479.435 883.865 478.543C886.022 477.512 888.255 476.544 890.564 475.639C895.333 473.958 901.514 472.364 909.108 470.857C916.828 469.198 927.07 467.459 939.834 465.64C944.27 464.971 948.218 464.345 951.679 463.761C955.139 463.177 958.036 462.573 960.369 461.947C965.187 460.823 968.511 459.479 970.34 457.915C972.158 456.21 972.951 454.034 972.719 451.386L972.701 451.177C972.579 449.783 972.184 448.483 971.517 447.277C970.989 446.059 970.112 444.872 968.887 443.715C966.728 441.516 963.073 439.869 957.921 438.775C952.908 437.668 946.08 437.493 937.437 438.249C932.28 438.7 927.698 439.312 923.692 440.084C919.674 440.716 916.238 441.579 913.384 442.671C907.512 444.589 903.316 447.204 900.797 450.515C898.265 453.686 896.927 457.665 896.785 462.454L860.193 465.655C860.755 449.593 867.124 437.307 879.302 428.797C891.48 420.288 909.069 415.027 932.069 413.014C939.875 412.331 947.015 412.058 953.488 412.194C960.101 412.318 966.116 412.845 971.535 413.775C982.246 415.788 990.637 420.181 996.707 426.954C1002.77 433.587 1006.36 443.386 1007.5 456.349L1014.03 530.995L985.172 533.52ZM1110 497.316C1125.89 495.926 1136.85 492.017 1142.89 485.589C1149.07 479.149 1151.68 470.423 1150.71 459.411C1149.66 447.423 1145.46 438.661 1138.09 433.125C1130.71 427.45 1119.42 425.277 1104.23 426.606C1090.29 427.826 1079.77 431.977 1072.66 439.06C1065.54 446.003 1062.5 455.33 1063.52 467.039C1064.51 478.33 1068.81 486.522 1076.42 491.615C1084.03 496.708 1095.22 498.609 1110 497.316ZM1123.58 524.992C1110.2 526.163 1098.89 525.326 1089.65 522.482C1080.55 519.627 1073.25 514.857 1067.75 508.175L1073.09 569.23L1038.39 572.267L1024.12 409.175L1054.64 406.504L1059.07 428.239C1063.89 419.109 1070.99 411.956 1080.37 406.782C1089.89 401.594 1100.92 398.452 1113.47 397.354C1134.38 395.525 1151.38 399.586 1164.47 409.537C1177.56 419.488 1185.03 435.058 1186.89 456.246C1187.81 466.84 1186.74 476.205 1183.66 484.34C1180.71 492.463 1176.2 499.46 1170.11 505.33C1164.15 511.049 1157.17 515.592 1149.18 518.96C1141.18 522.189 1132.64 524.199 1123.58 524.992ZM1359.79 464.717C1354.67 480.053 1345.53 491.247 1332.39 498.296C1319.24 505.346 1302.77 509.737 1282.97 511.469C1273.49 512.298 1264.86 512.351 1257.07 511.628C1249.43 511.032 1242.65 509.729 1236.71 507.72C1224.96 503.411 1216.17 496.876 1210.35 488.115C1204.65 479.202 1201.27 468.682 1200.21 456.555C1199.69 450.561 1199.88 444.785 1200.8 439.227C1201.85 433.517 1203.62 428.024 1206.1 422.75C1211.21 412.05 1219.41 403.115 1230.73 395.945C1242.04 388.775 1256.62 384.409 1274.46 382.848C1282.82 382.117 1290.54 382.073 1297.62 382.718C1304.84 383.351 1311.56 384.729 1317.79 386.853C1329.95 390.986 1339.59 397.588 1346.7 406.657C1353.82 415.726 1357.96 426.952 1359.13 440.334L1360.25 453.088L1234.79 464.064C1237.56 471.688 1242.75 477.203 1250.35 480.612C1257.96 484.02 1269.01 485.09 1283.5 483.821C1294.38 482.87 1302.65 481.093 1308.32 478.49C1313.99 475.887 1318.11 472.436 1320.69 468.137L1359.79 464.717ZM1277.88 409.939C1264.64 411.097 1254.37 414.173 1247.09 419.165C1239.8 424.157 1235.24 430.665 1233.41 438.691L1322.9 430.862C1320.18 422.251 1315.18 416.368 1307.88 413.214C1300.7 409.909 1290.71 408.817 1277.88 409.939Z" fill="black" style="fill:black;fill-opacity:1;"/>
<path d="M560.609 624.921L1360.08 554.977L1369.39 661.367C1374 714.091 1376.3 740.453 1361.36 758.265C1346.41 776.077 1320.05 778.383 1267.33 782.996L691.546 833.37C638.823 837.983 612.461 840.29 594.649 825.343C576.836 810.397 574.53 784.035 569.917 731.312L560.609 624.921Z" fill="#F3C5D3" style="fill:#F3C5D3;fill:color(display-p3 0.9529 0.7725 0.8275);fill-opacity:1;"/>
<path d="M645.532 730.189L650.251 784.135L614.288 787.281L603.787 667.262L634.315 664.592L639.474 689.845C642.748 680.709 648.044 673.012 655.362 666.753C662.82 660.482 672.473 656.829 684.322 655.792C697.285 654.658 707.92 656.607 716.226 661.639C724.66 666.52 731.039 673.617 735.366 682.93C738.579 673.098 744.123 665.028 751.999 658.72C760.002 652.261 770.207 648.489 782.613 647.403C788.746 646.867 794.447 647 799.714 647.803C804.982 648.607 809.746 650.086 814.008 652.242C822.544 656.692 829.23 663.27 834.065 671.977C838.888 680.545 841.824 690.823 842.873 702.811L848.47 766.793L812.716 769.921L807.667 712.212C807.325 708.309 806.729 704.709 805.879 701.412C805.168 698.103 804.273 695.091 803.192 692.377C800.88 686.82 797.22 682.716 792.213 680.064C787.332 677.26 780.71 676.224 772.346 676.956C761.613 677.895 754.06 682.278 749.689 690.105C745.317 697.932 743.655 707.839 744.704 719.827L749.57 775.445L713.815 778.574L708.602 718.982C708.297 715.498 707.801 712.24 707.115 709.21C706.428 706.18 705.545 703.307 704.465 700.593C702.456 695.291 699.087 691.301 694.358 688.625C689.756 685.797 683.204 684.755 674.7 685.499C663.131 686.511 655.096 691.006 650.597 698.985C646.086 706.824 644.398 717.225 645.532 730.189ZM943.327 762.497C933.849 763.326 925.221 763.449 917.444 762.865C909.668 762.281 902.737 760.921 896.65 758.785C884.781 754.767 875.853 748.244 869.866 739.216C863.879 730.189 860.319 719.193 859.184 706.23C858.599 699.539 858.893 693.262 860.065 687.401C861.226 681.4 863.196 675.82 865.975 670.66C871.673 660.33 880.284 651.991 891.809 645.646C903.333 639.3 917.11 635.426 933.141 634.023C941.365 633.304 949.017 633.266 956.096 633.911C963.315 634.544 970.038 635.922 976.263 638.046C988.702 642.155 998.555 648.808 1005.82 658.004C1013.21 667.049 1017.51 678.472 1018.72 692.272C1019.27 698.545 1019.09 704.53 1018.19 710.228C1017.27 715.786 1015.55 721.063 1013.04 726.058C1008.29 736.025 1000.16 744.181 988.632 750.527C977.247 756.861 962.146 760.851 943.327 762.497ZM941.83 733.342C957.721 731.951 968.686 728.042 974.726 721.615C980.904 715.175 983.512 706.449 982.548 695.437C981.5 683.449 977.292 674.687 969.925 669.151C962.546 663.476 951.259 661.303 936.065 662.632C921.429 663.913 910.685 667.943 903.834 674.723C897.109 681.351 894.284 690.798 895.357 703.065C896.345 714.356 900.504 722.56 907.834 727.678C915.304 732.783 926.636 734.671 941.83 733.342ZM1118.08 743.205L1084.42 746.15L1008.68 631.839L1047.99 628.399L1099.05 708.631L1136.65 620.643L1176.38 617.167L1118.08 743.205ZM1336.11 688.101C1330.99 703.438 1321.86 714.631 1308.71 721.681C1295.56 728.731 1279.09 733.122 1259.3 734.853C1249.82 735.683 1241.18 735.736 1233.39 735.012C1225.76 734.416 1218.97 733.114 1213.04 731.105C1201.28 726.796 1192.49 720.261 1186.67 711.5C1180.98 702.587 1177.6 692.067 1176.54 679.94C1176.01 673.946 1176.21 668.17 1177.13 662.611C1178.17 656.901 1179.94 651.409 1182.43 646.135C1187.53 635.435 1195.74 626.5 1207.05 619.33C1218.36 612.16 1232.94 607.794 1250.78 606.233C1259.15 605.501 1266.87 605.458 1273.95 606.103C1281.17 606.735 1287.89 608.114 1294.11 610.238C1306.27 614.371 1315.91 620.972 1323.03 630.042C1330.14 639.111 1334.28 650.337 1335.45 663.719L1336.57 676.473L1211.11 687.449C1213.89 695.072 1219.08 700.588 1226.68 703.996C1234.28 707.405 1245.33 708.475 1259.83 707.206C1270.7 706.255 1278.97 704.478 1284.64 701.875C1290.32 699.272 1294.44 695.821 1297.01 691.522L1336.11 688.101ZM1254.21 633.324C1240.96 634.482 1230.7 637.557 1223.41 642.549C1216.12 647.541 1211.56 654.05 1209.74 662.076L1299.23 654.246C1296.51 645.635 1291.5 639.753 1284.2 636.599C1277.03 633.293 1267.03 632.202 1254.21 633.324Z" fill="black" style="fill:black;fill-opacity:1;"/>
</svg>
