<svg width="1920" height="1080" viewBox="0 0 1920 1080" fill="none" xmlns="http://www.w3.org/2000/svg">
<rect width="1920" height="1080" fill="#C1EFED" style="fill:#C1EFED;fill:color(display-p3 0.7555 0.9385 0.9293);fill-opacity:1;"/>
<path d="M940.691 318.83V350.847C940.691 368.442 926.814 382.863 909.541 382.863C892.268 382.862 878.392 368.442 878.392 350.847C878.392 333.252 892.268 318.831 909.541 318.83H940.691Z" fill="#0ACF83" stroke="black" style="fill:#0ACF83;fill:color(display-p3 0.0392 0.8118 0.5137);fill-opacity:1;stroke:black;stroke-opacity:1;" stroke-width="5.5082"/>
<path d="M940.69 254.998V319.031H909.54C892.267 319.03 878.391 304.61 878.391 287.015C878.391 269.42 892.267 254.999 909.54 254.998H940.69Z" fill="#A259FF" stroke="black" style="fill:#A259FF;fill:color(display-p3 0.6353 0.3490 1.0000);fill-opacity:1;stroke:black;stroke-opacity:1;" stroke-width="5.5082"/>
<path d="M940.697 190.764V254.796H909.547C892.274 254.796 878.398 240.376 878.397 222.781C878.397 205.186 892.274 190.764 909.547 190.764H940.697Z" fill="#F24E1E" stroke="black" style="fill:#F24E1E;fill:color(display-p3 0.9490 0.3059 0.1176);fill-opacity:1;stroke:black;stroke-opacity:1;" stroke-width="5.5082"/>
<path d="M972.183 190.764C989.456 190.764 1003.33 205.185 1003.33 222.781C1003.33 240.376 989.456 254.796 972.183 254.796H941.033V190.764H972.183Z" fill="#FF7262" stroke="black" style="fill:#FF7262;fill:color(display-p3 1.0000 0.4471 0.3843);fill-opacity:1;stroke:black;stroke-opacity:1;" stroke-width="5.5082"/>
<path d="M972.183 254.797C989.456 254.797 1003.33 269.219 1003.33 286.814C1003.33 304.409 989.456 318.829 972.183 318.829C954.91 318.829 941.033 304.409 941.033 286.814C941.033 269.219 954.91 254.797 972.183 254.797Z" fill="#1ABCFE" stroke="black" style="fill:#1ABCFE;fill:color(display-p3 0.1020 0.7373 0.9961);fill-opacity:1;stroke:black;stroke-opacity:1;" stroke-width="5.5082"/>
<path d="M531.264 513.24C526.651 460.517 524.344 434.155 539.291 416.343C554.237 398.53 580.599 396.224 633.322 391.611L1247.95 337.838C1300.68 333.225 1327.04 330.919 1344.85 345.865C1362.66 360.811 1364.97 387.173 1369.58 439.897L1379.75 556.073L541.428 629.417L531.264 513.24Z" fill="#FBFF54" style="fill:#FBFF54;fill:color(display-p3 0.9843 1.0000 0.3294);fill-opacity:1;"/>
<path d="M651.024 537.471C666.915 536.08 677.88 532.171 683.919 525.744C690.098 519.304 692.706 510.578 691.742 499.565C690.693 487.578 686.486 478.816 679.119 473.28C671.74 467.605 660.453 465.432 645.259 466.761C631.319 467.981 620.797 472.132 613.691 479.215C606.573 486.158 603.527 495.485 604.551 507.194C605.539 518.485 609.837 526.677 617.446 531.77C625.056 536.863 636.248 538.763 651.024 537.471ZM664.612 565.147C651.23 566.317 639.92 565.481 630.682 562.637C621.583 559.781 614.283 555.012 608.782 548.33L614.124 609.385L579.414 612.421L565.146 449.33L595.673 446.659L600.103 468.394C604.923 459.264 612.022 452.111 621.402 446.936C630.921 441.749 641.953 438.607 654.498 437.509C675.408 435.68 692.408 439.741 705.498 449.692C718.589 459.643 726.061 475.213 727.915 496.401C728.842 506.995 727.765 516.359 724.684 524.495C721.743 532.618 717.228 539.615 711.14 545.485C705.179 551.203 698.203 555.747 690.21 559.115C682.205 562.343 673.673 564.354 664.612 565.147ZM785.638 550.977L749.883 554.105L735.98 395.195L771.735 392.067L785.638 550.977ZM917.335 539.455L911.82 512.547C908.746 522.367 903.069 530.519 894.787 537.003C886.493 543.347 875.655 547.104 862.273 548.275C843.733 549.897 829.058 545.914 818.246 536.325C807.562 526.585 801.439 512.793 799.878 494.951L794.134 429.296L830.098 426.149L835.22 484.695C836.256 496.544 839.767 505.367 845.752 511.164C851.725 516.821 861.263 519.077 874.367 517.931C885.797 516.931 894.21 512.753 899.607 505.399C904.991 497.904 907.165 488.233 906.128 476.385L901.189 419.93L937.362 416.765L947.862 536.784L917.335 539.455ZM1121.83 532.52C1122.23 537.12 1121.9 541.432 1120.85 545.457C1119.94 549.47 1118.3 553.195 1115.93 556.633C1111.07 563.66 1103 569.423 1091.74 573.92C1080.47 578.417 1065.43 581.488 1046.61 583.135L1037.41 583.94C1028.63 584.708 1020.66 585.124 1013.5 585.189C1006.5 585.38 1000.3 585.15 994.902 584.499C984.265 583.322 976.394 580.851 971.288 577.083C966.195 573.456 963.38 568.575 962.844 562.442C962.149 554.496 964.818 548.082 970.852 543.2C976.886 538.318 987.445 534.585 1002.53 532.001C988.578 533.081 977.856 532.544 970.364 530.391C962.871 528.237 958.735 522.699 957.954 513.778C957.344 506.808 959.969 500.679 965.827 495.391C971.673 489.964 982.238 486.3 997.522 484.401C985.806 483.741 976.599 481.245 969.899 476.915C963.327 472.434 959.589 465.035 958.687 454.72C957.577 442.035 962.541 431.347 973.58 422.656C984.757 413.953 1002.54 408.534 1026.94 406.4L1031.75 405.979C1035.79 405.626 1039.4 405.169 1042.58 404.61C1045.76 404.05 1048.58 403.313 1051.03 402.396C1055.81 400.854 1059.09 398.18 1060.86 394.372C1062.77 390.553 1063.41 385.019 1062.78 377.77L1062.63 376.098L1101.94 372.659L1102.07 374.122C1102.73 381.65 1102.47 387.502 1101.29 391.678C1100.11 395.855 1097.65 399.02 1093.9 401.173C1090.28 403.175 1085.01 404.69 1078.08 405.718C1071.13 406.607 1062.29 407.521 1051.56 408.46C1069.92 407.977 1083.41 410.449 1092.03 415.875C1100.65 421.301 1105.48 429.938 1106.51 441.787C1107.71 455.448 1102.73 465.927 1091.57 473.224C1080.39 480.381 1063.1 484.985 1039.68 487.034L1025.46 488.278C1019.75 488.778 1014.74 489.286 1010.43 489.804C1006.26 490.309 1002.79 490.823 1000.03 491.346C994.639 492.379 991.094 493.602 989.391 495.015C987.828 496.416 987.138 498.162 987.321 500.253C987.394 501.089 987.746 501.901 988.377 502.689C988.996 503.337 989.881 503.821 991.033 504.142C993.348 504.923 997.243 505.284 1002.72 505.227C1008.32 505.018 1015.86 504.499 1025.33 503.669L1057.95 500.816C1079.14 498.962 1094.78 500.263 1104.86 504.718C1114.94 509.174 1120.56 518.092 1121.74 531.474L1121.83 532.52ZM1033.9 464.363C1047.7 463.155 1057.69 460.947 1063.88 457.738C1070.06 454.528 1072.9 450.066 1072.4 444.351C1071.85 438.078 1068.53 433.873 1062.44 431.737C1056.5 429.589 1046.69 429.112 1033.03 430.307L1028.85 430.673C1015.47 431.844 1006.19 434.13 1001.01 437.533C995.815 440.797 993.499 445.635 994.06 452.047C994.609 458.32 997.971 462.239 1004.15 463.806C1010.46 465.36 1020.38 465.546 1033.9 464.363ZM1040.85 555.827L1048.38 555.169C1053.96 554.681 1058.82 554.115 1062.98 553.47C1067.28 552.813 1070.86 552.008 1073.73 551.055C1079.75 549.264 1083.85 547.15 1086.02 544.712C1088.21 542.414 1089.18 539.871 1088.94 537.083L1088.85 536.037C1088.74 534.783 1088.42 533.616 1087.91 532.538C1087.54 531.586 1086.98 530.723 1086.21 529.948C1084.67 528.397 1081.62 527.329 1077.08 526.743C1072.54 526.297 1065.54 526.489 1056.06 527.318L1027.83 529.787C1017.65 530.678 1010 532.33 1004.88 534.745C999.902 537.287 997.64 541.137 998.092 546.295L998.11 546.504C998.561 551.662 1002.21 554.784 1009.04 555.871C1016.03 557.086 1026.64 557.071 1040.85 555.827ZM1137.38 380.725C1129.3 381.432 1123.31 380.411 1119.41 377.661C1115.51 374.772 1113.2 369.286 1112.5 361.201C1111.81 353.395 1113.36 347.781 1117.13 344.361C1120.89 340.801 1126.4 338.704 1133.65 338.07C1141.04 337.424 1146.82 338.533 1151.01 341.397C1155.32 344.11 1157.81 349.37 1158.5 357.176C1159.15 364.703 1157.68 370.38 1154.09 374.207C1150.62 377.881 1145.05 380.054 1137.38 380.725ZM1167.05 517.607L1130.46 520.808L1119.96 400.79L1156.55 397.588L1167.05 517.607ZM1220.44 459.42L1225.09 512.53L1188.91 515.694L1178.41 395.676L1209.36 392.968L1214.57 418.849C1218.5 409.095 1224.75 401.103 1233.33 394.874C1241.91 388.506 1252.74 384.748 1265.85 383.602C1272.12 383.053 1277.96 383.174 1283.37 383.965C1288.9 384.605 1294.01 385.984 1298.69 388.103C1307.88 392.074 1315.17 398.249 1320.54 406.629C1326.04 414.996 1329.32 425.173 1330.37 437.161L1336.11 502.816L1300.15 505.963L1295.16 448.88C1294.1 436.753 1290.69 427.5 1284.93 421.121C1279.18 414.742 1269.68 412.131 1256.44 413.29C1242.64 414.497 1232.85 419.006 1227.07 426.815C1221.42 434.473 1219.21 445.342 1220.44 459.42Z" fill="black" style="fill:black;fill-opacity:1;"/>
<path d="M421.225 747.073C416.844 696.997 414.653 671.959 428.139 654.574C429.019 653.44 429.942 652.339 430.907 651.276C445.686 634.976 470.723 632.785 520.799 628.404L1399.89 551.494C1449.96 547.113 1475 544.922 1492.39 558.409C1493.52 559.289 1494.62 560.212 1495.68 561.176C1511.98 575.955 1514.17 600.993 1518.55 651.069V651.069C1522.94 701.14 1525.13 726.176 1511.64 743.56C1510.76 744.694 1509.84 745.794 1508.87 746.858C1494.1 763.156 1469.06 765.347 1418.99 769.727L539.884 846.639C489.812 851.02 464.776 853.21 447.392 839.725C446.258 838.845 445.158 837.922 444.094 836.958C427.796 822.18 425.605 797.144 421.225 747.073V747.073Z" fill="#F3C5D3" style="fill:#F3C5D3;fill:color(display-p3 0.9529 0.7725 0.8275);fill-opacity:1;"/>
<path d="M540.734 768.433C556.625 767.043 567.59 763.134 573.629 756.706C579.808 750.266 582.416 741.54 581.452 730.528C580.403 718.54 576.196 709.778 568.829 704.242C561.449 698.567 550.163 696.394 534.969 697.724C521.029 698.943 510.507 703.094 503.401 710.177C496.283 717.121 493.237 726.447 494.261 738.156C495.249 749.447 499.547 757.639 507.156 762.732C514.766 767.826 525.958 769.726 540.734 768.433ZM554.322 796.109C540.94 797.28 529.63 796.443 520.392 793.6C511.293 790.744 503.993 785.975 498.492 779.292L503.834 840.347L469.124 843.384L454.856 680.292L485.383 677.621L489.813 699.357C494.633 690.226 501.732 683.074 511.112 677.899C520.631 672.712 531.663 669.569 544.208 668.472C565.118 666.642 582.118 670.703 595.208 680.654C608.299 690.606 615.771 706.175 617.625 727.363C618.552 737.957 617.475 747.322 614.394 755.457C611.453 763.58 606.938 770.577 600.85 776.447C594.889 782.166 587.912 786.709 579.92 790.077C571.915 793.306 563.382 795.316 554.322 796.109ZM692.737 759.138C698.034 758.674 702.946 757.823 707.472 756.584C712.126 755.194 716.395 753.416 720.279 751.25C728.199 747.046 734.214 741.954 738.327 735.976C742.578 729.986 744.442 723.994 743.917 718L743.844 717.163C742.494 719.388 739.51 721.405 734.892 723.214C730.275 725.022 723.112 726.632 713.403 728.043C702.021 729.601 693.376 731.13 687.468 732.63C681.547 733.991 677.051 735.578 673.979 737.392C671.579 738.866 669.832 740.564 668.736 742.486C667.64 744.408 667.195 746.554 667.403 748.923L667.421 749.132C667.762 753.035 669.837 755.874 673.644 757.648C677.591 759.409 683.955 759.906 692.737 759.138ZM753.757 775.079L748.133 746.917C744.083 756.823 736.751 765.33 726.136 772.439C715.509 779.409 701.553 783.649 684.268 785.162C667.82 786.601 654.891 784.923 645.482 780.127C636.2 775.181 631.059 766.992 630.059 755.562L630.041 755.352C629.431 748.383 630.434 742.185 633.049 736.759C635.665 731.333 640.114 726.8 646.397 723.16C648.263 722.014 650.281 720.995 652.45 720.103C654.607 719.071 656.84 718.103 659.149 717.199C663.918 715.517 670.099 713.923 677.693 712.416C685.414 710.757 695.656 709.019 708.419 707.2C712.855 706.531 716.804 705.904 720.264 705.32C723.725 704.737 726.621 704.132 728.955 703.507C733.772 702.383 737.096 701.039 738.926 699.474C740.743 697.77 741.536 695.594 741.304 692.945L741.286 692.736C741.164 691.342 740.769 690.042 740.102 688.836C739.574 687.619 738.698 686.431 737.473 685.274C735.314 683.075 731.658 681.428 726.506 680.334C721.493 679.228 714.665 679.052 706.023 679.809C700.865 680.26 696.283 680.871 692.277 681.643C688.259 682.276 684.823 683.138 681.969 684.231C676.097 686.149 671.901 688.763 669.382 692.074C666.85 695.245 665.513 699.225 665.37 704.013L628.779 707.214C629.34 691.153 635.71 678.867 647.887 670.357C660.065 661.847 677.654 656.586 700.655 654.574C708.461 653.891 715.6 653.617 722.073 653.753C728.686 653.877 734.702 654.404 740.121 655.335C750.831 657.347 759.222 661.74 765.292 668.513C771.351 675.147 774.947 684.945 776.081 697.909L782.612 772.555L753.757 775.079ZM839.784 767.553L803.611 770.717L793.111 650.699L823.847 648.01L830.747 681.117C833.014 670.103 837.782 661.188 845.052 654.371C852.309 647.416 862.838 643.334 876.638 642.127L891.901 640.792L894.938 675.501L878.838 676.909C872.565 677.458 867.02 678.294 862.202 679.418C857.524 680.53 853.579 681.999 850.367 683.825C843.933 687.337 839.69 692.625 837.639 699.687C835.727 706.737 835.284 716.116 836.308 727.825L839.784 767.553ZM966.671 735.172C971.968 734.708 976.88 733.857 981.407 732.618C986.061 731.228 990.33 729.45 994.214 727.284C1002.13 723.08 1008.15 717.988 1012.26 712.01C1016.51 706.02 1018.38 700.027 1017.85 694.033L1017.78 693.197C1016.43 695.422 1013.44 697.439 1008.83 699.247C1004.21 701.056 997.047 702.666 987.338 704.077C975.956 705.635 967.311 707.164 961.403 708.664C955.482 710.025 950.985 711.612 947.913 713.426C945.514 714.9 943.766 716.598 942.67 718.52C941.574 720.442 941.13 722.587 941.337 724.957L941.356 725.166C941.697 729.069 943.771 731.908 947.579 733.682C951.525 735.443 957.889 735.94 966.671 735.172ZM1027.69 751.113L1022.07 722.951C1018.02 732.856 1010.69 741.364 1000.07 748.473C989.444 755.442 975.488 759.683 958.203 761.196C941.754 762.635 928.825 760.956 919.416 756.161C910.135 751.214 904.994 743.026 903.994 731.595L903.975 731.386C903.365 724.417 904.368 718.219 906.984 712.793C909.599 707.367 914.049 702.834 920.332 699.194C922.198 698.048 924.216 697.028 926.385 696.136C928.542 695.105 930.775 694.137 933.084 693.233C937.853 691.551 944.034 689.957 951.628 688.45C959.348 686.791 969.59 685.052 982.354 683.233C986.79 682.564 990.738 681.938 994.199 681.354C997.659 680.771 1000.56 680.166 1002.89 679.541C1007.71 678.417 1011.03 677.072 1012.86 675.508C1014.68 673.804 1015.47 671.627 1015.24 668.979L1015.22 668.77C1015.1 667.376 1014.7 666.076 1014.04 664.87C1013.51 663.652 1012.63 662.465 1011.41 661.308C1009.25 659.109 1005.59 657.462 1000.44 656.368C995.428 655.261 988.6 655.086 979.957 655.842C974.8 656.294 970.218 656.905 966.212 657.677C962.194 658.309 958.758 659.172 955.904 660.264C950.032 662.183 945.836 664.797 943.317 668.108C940.785 671.279 939.447 675.259 939.304 680.047L902.713 683.248C903.275 667.186 909.644 654.901 921.822 646.391C934 637.881 951.589 632.62 974.589 630.608C982.395 629.925 989.535 629.651 996.008 629.787C1002.62 629.911 1008.64 630.438 1014.06 631.369C1024.77 633.381 1033.16 637.774 1039.23 644.547C1045.29 651.18 1048.88 660.979 1050.02 673.943L1056.55 748.588L1027.69 751.113ZM1113.51 743.605L1077.75 746.733L1063.85 587.823L1099.61 584.695L1113.51 743.605ZM1171.35 738.544L1135.6 741.672L1121.7 582.763L1157.45 579.634L1171.35 738.544ZM1244.75 710.843C1250.04 710.38 1254.96 709.529 1259.48 708.29C1264.14 706.899 1268.41 705.121 1272.29 702.955C1280.21 698.751 1286.22 693.66 1290.34 687.681C1294.59 681.691 1296.45 675.699 1295.93 669.705L1295.85 668.869C1294.5 671.094 1291.52 673.11 1286.9 674.919C1282.29 676.728 1275.12 678.338 1265.41 679.749C1254.03 681.306 1245.39 682.835 1239.48 684.335C1233.56 685.696 1229.06 687.284 1225.99 689.097C1223.59 690.571 1221.84 692.269 1220.75 694.191C1219.65 696.113 1219.21 698.259 1219.41 700.629L1219.43 700.838C1219.77 704.741 1221.85 707.579 1225.65 709.353C1229.6 711.115 1235.97 711.611 1244.75 710.843ZM1305.77 726.784L1300.14 698.622C1296.09 708.528 1288.76 717.035 1278.15 724.144C1267.52 731.114 1253.56 735.355 1236.28 736.867C1219.83 738.306 1206.9 736.628 1197.49 731.833C1188.21 726.886 1183.07 718.697 1182.07 707.267L1182.05 707.058C1181.44 700.088 1182.44 693.89 1185.06 688.464C1187.67 683.038 1192.12 678.506 1198.41 674.866C1200.27 673.719 1202.29 672.7 1204.46 671.808C1206.62 670.776 1208.85 669.808 1211.16 668.904C1215.93 667.223 1222.11 665.629 1229.7 664.121C1237.42 662.463 1247.67 660.724 1260.43 658.905C1264.87 658.236 1268.81 657.61 1272.27 657.026C1275.74 656.442 1278.63 655.838 1280.96 655.212C1285.78 654.088 1289.11 652.744 1290.94 651.179C1292.75 649.475 1293.55 647.299 1293.31 644.65L1293.3 644.441C1293.17 643.047 1292.78 641.748 1292.11 640.542C1291.58 639.324 1290.71 638.136 1289.48 636.979C1287.32 634.78 1283.67 633.134 1278.52 632.039C1273.5 630.933 1266.68 630.758 1258.03 631.514C1252.88 631.965 1248.29 632.577 1244.29 633.349C1240.27 633.981 1236.83 634.843 1233.98 635.936C1228.11 637.854 1223.91 640.469 1221.39 643.779C1218.86 646.951 1217.52 650.93 1217.38 655.718L1180.79 658.92C1181.35 642.858 1187.72 630.572 1199.9 622.062C1212.08 613.552 1229.66 608.291 1252.66 606.279C1260.47 605.596 1267.61 605.323 1274.08 605.459C1280.7 605.582 1286.71 606.11 1292.13 607.04C1302.84 609.053 1311.23 613.446 1317.3 620.218C1323.36 626.852 1326.96 636.65 1328.09 649.614L1334.62 724.26L1305.77 726.784ZM1457.93 713.472L1415.73 674.183L1379.73 720.313L1335.19 724.21L1392.61 655.558L1330.97 603.642L1375.08 599.783L1413.09 634.382L1444.71 593.691L1488.41 589.868L1436.32 651.944L1502.05 709.612L1457.93 713.472Z" fill="black" style="fill:black;fill-opacity:1;"/>
</svg>
