<svg width="1024" height="1024" viewBox="0 0 1024 1024" fill="none" xmlns="http://www.w3.org/2000/svg">
<g id="Frame 1430101905">
<path id="Vector 523" d="M233 349C189.5 433 256.008 490.999 302.008 490.999C308.139 490.999 311.257 484.625 311.508 478.499C311.854 470.055 306.461 464.499 298.01 464.499C275.506 464.499 256.006 494.999 256.008 518.999C256.009 531.899 264.107 544.499 277.008 544.499C315.504 544.499 370.004 499.499 372.008 478.499C372.598 472.312 367.223 466.999 361.008 466.999C340.004 466.998 324.008 495.435 324.008 520.999C324.008 532.499 330.065 544.499 341.508 544.499C365.004 544.499 410.008 494.498 413.508 469.999C413.868 467.478 412.335 463.466 410.008 464.499C401.008 468.493 401.008 494.351 401.008 513.999C401.008 526.493 397.504 545.493 390.008 544.499C387.375 544.149 385.876 541.651 386.008 538.999C387.254 513.999 432.504 465.995 448.508 466.999C457.004 467.531 455.508 478.499 455.508 478.499C455.508 478.499 448.508 481.995 448.508 469.999C448.508 458.002 409.604 494.195 402.004 506.995C394.404 519.795 405.504 500.995 415.504 501.995C425.504 502.995 425.569 507.347 425.004 512.995C424.004 522.995 419.087 542.142 431.004 542.995C452.004 544.499 489.504 494.995 491.504 474.495C491.775 471.713 491.504 465.494 488.504 467.995C469.859 483.539 467.004 541.494 484.504 537.495C499.045 534.172 534.004 493.994 535.004 475.495C535.136 473.052 534.388 470.545 532.004 469.995C519.004 467 504.504 621.495 464.504 624.495C453.33 625.333 442.67 616.695 443.004 605.495C444.004 571.995 568.004 502.995 569.004 471.495C569.143 467.11 565.207 465.741 561.004 466.999C556.004 468.495 551.004 548.495 542.504 542.995C539.636 541.14 539.895 539.495 540.504 532.995C543.504 500.995 612.004 505.495 612.004 475.495C612.004 472.08 610.696 469.211 607.504 467.995C597.004 463.995 570.306 541.636 599.004 541.495C616.304 541.41 627.73 523.535 631.504 507.495C637.504 481.995 654.504 466.37 667.504 467.995C675.504 468.995 683.004 473.995 682.504 484.995C681.284 511.843 658.504 542.495 642.504 540.995C630.418 539.862 627.078 524.981 629.004 512.995C633.504 484.995 651.949 467.014 669.504 467.495C706.004 468.495 655.004 623.995 621.004 625.995C611.768 626.539 604.004 618.747 604.004 609.495C604.004 567.495 729.004 508.495 725.504 473.995C725.247 471.462 724.528 468.166 722.004 468.495C710.504 469.995 703.004 497.495 705.004 520.495C705.694 528.435 707.534 537.995 715.504 537.995C741.004 537.995 770.504 482.496 769.004 475.495C768.47 473.006 768.05 469.995 765.504 469.995C747.504 469.996 734.504 630.496 700.004 625.995C689.187 624.584 680.504 616.904 680.504 605.995C680.504 567.496 791.004 510.995 819.504 510.995C842.504 510.995 847.834 526.852 848.504 543.995C849.228 562.534 836.504 579.995 817.504 579.995C808.099 579.995 799.504 573.4 799.504 563.995C799.504 534.496 876.004 531.496 883.004 510.995C893.948 478.942 835.504 481 835.504 424.496C835.504 359.741 910.004 302.496 952.504 306.996C961.877 307.989 971.004 312.996 971.004 322.496C971.004 327.055 967.014 329.833 962.504 330.496C945.504 332.996 960.004 303.091 933.504 291.996C918.348 285.651 893.004 278.496 891.504 294.496C891.194 297.807 894.807 299.083 898.004 299.996C912.004 303.996 932.004 244 932.004 235.5C932.004 228.039 922.732 219.774 919.504 226.501C913.504 239.001 930.78 251.693 945.504 256.996C957.284 261.239 983.191 266.151 977.504 254.996C975.809 251.673 971.004 247.996 971.004 247.996C967.337 250.331 959.404 259.1 957.004 275.5C954.604 291.9 982.504 294.004 989.004 275.5C995.504 256.996 992.504 231 963.504 220.5C936.505 210.725 913.004 215 891.504 231C868.373 248.214 857.334 269.95 828.504 269.5C807.609 269.174 796.004 247.996 779.504 247.996C774.929 247.996 772.004 252.421 772.004 256.996C772.004 279 809.54 294.496 837.504 294.496C860.004 294.496 863.504 278.601 863.504 262.5C863.504 207 816.277 153.555 760.504 161.5C691.735 171.296 749.004 339 749.004 339V412.5L765.504 396.5L781.504 431.5L794.004 425.5L776.504 391L803.004 389L746.004 337H701.004V364H723.504L721.504 306.5H749.004C749.004 306.5 834.412 263.803 835.504 214.5C836.991 147.356 741.675 112.275 680.504 140C631.343 162.282 616.504 262.5 616.504 262.5L558.504 293.5L616.504 331.5L660.004 304L676.504 317L616.504 355.5L576.504 331.5L558.504 342.5L614.504 376C614.504 376 621.504 408.5 569.004 412.5C499.479 417.796 442.504 336 442.504 286.5C442.504 239 523.004 238.5 523.004 208.5C523.004 191.911 509.004 180 491.504 180C478.11 180 462.982 193.196 467.504 204.5C484.504 247 564.504 170.5 564.504 134.5C564.504 109.721 523.004 111.28 523.004 86.5005C523.004 71.5005 542.304 61.36 558.504 64.0005C581.004 67.6679 558.504 103.188 583.504 105C601.861 106.331 614.504 87.9059 614.504 69.5005C614.504 34.5005 567.269 27.68 532.004 31.5005C492.395 35.7915 455.508 99.0005 455.508 99.0005L474.004 129.5L478.004 114L495.504 107.5C495.504 107.5 465.023 100.982 446.004 95.0005C421.342 87.2442 410.276 72.5415 384.504 70.5C344.63 67.3414 312.342 76.8199 290.004 110C272.5 136 294.5 189.5 256.004 209C243.46 215.354 224 192.5 224 192.5C216.667 192.667 200.4 197.5 194 215.5C213.6 209.1 216.5 195.5 215.5 189.5C211.167 183 202.9 166.9 204.5 154.5C190.1 153.3 148.5 133.667 129.5 124L172 167C175.833 166.333 183.5 167 183.5 175C183.5 181.4 177.5 182.667 174.5 182.5C172 182.833 167 181 167 171C160.2 164.2 136.5 140.5 125.5 129.5C133.5 148.833 150.1 190.7 152.5 203.5C160.5 203 180.5 207 190.5 217C198.5 225 209 225.5 215.5 246.5C222 267.5 154.5 302 157.5 337.5C158.609 350.629 170.352 359.854 183.5 359C222 356.5 209 296 239 273.5C280.983 242.013 304 246.5 307.5 204.5C311 162.501 377.5 182 377.5 182H422V224.5H377.5V204.5H344.5V123H424.5C424.5 123 424.5 134 424.5 143.5C436.101 143.5 445 153.5 445 165C445 177.326 437 189 424.5 189C410.966 189 398.714 178.511 399.5 165C403.5 162.333 409.1 163 399.5 187C389.9 211 357.167 278 342 308.5C331.333 331.167 310 377.7 310 382.5C310 388.5 314.5 399.5 327 400.5C338 400.5 419.5 389.5 424.5 387.5C429.5 385.5 433.5 380 433.5 375.5C433.5 371 430.5 352.5 419.5 352.5C408.5 352.5 324.5 365.5 321 367C317.5 368.5 308 378.5 310 388.5C312 398.5 320 401.5 324 401.5C331 401.5 415.5 336.5 421 330C425.4 324.8 420.167 316.5 417 313C413 307.667 403.3 298.4 396.5 304C388 311 309 373.5 304.5 378C300.9 381.6 256.008 429.5 233 427C209.992 424.5 231 386.5 202.5 388.5C174.254 390.482 149 415 149 447C149 469.769 160.734 493.631 183.5 494C201.826 494.297 220 483.999 220 464.499C220 456.904 217.5 450.5 206.5 450.5C171 450.5 180 506.995 215 506.995C250 506.995 474.913 314.016 542.504 427C595.2 515.087 362.28 668.707 464.504 678C552.5 686 509.8 554.309 564.504 571C604.004 583.052 535.004 726.5 599.004 706C718.682 667.666 811 720 811 720H836.5C834 718.167 829 713.2 829 708C829 701.5 829 680.5 829 676C829 672.4 831.333 671.833 832.5 672H842.5C844.167 672.5 847.5 674.5 847.5 678.5C848.7 678.5 850.667 678.5 851.5 678.5V662.5H796V678.5H800.5C800.5 676.333 801.4 672 805 672C808.6 672 813.5 672 815.5 672C816.333 672 818 672.8 818 676C818 679.2 818 698.667 818 708C815 715.667 803.9 731 783.5 731C783.5 704.2 783.5 662.833 783.5 645.5H866.5V737C866.5 737 774.519 752.34 767.5 797C758.335 855.312 860.68 796.905 918 811C948.5 818.5 970 846.259 970 880C970 938.5 923.888 986.909 866.5 984.5C824.498 982.737 802.5 920 778.5 922.5C751 925.365 750.5 984.5 774.5 964.5C818 864.5 710.5 866 707.5 836.5C706.677 828.404 709.862 818.5 718 818.5C778.5 818.5 759.416 964.5 677.5 982.5C628 971 697 922.5 697 922.5L677.5 890.5H705.5L640.5 836.5L646.5 918L665.5 897L683 929.5C670.167 941.167 629.8 963.4 571 959C512.2 954.6 510.508 873.5 491.504 869.5C472.5 865.5 460.642 901.955 437.5 897C425.157 894.357 414.83 891.666 410.008 880C400.5 857 611.5 814.5 588.5 767.5C585.685 761.747 575.5 757.5 575.5 757.5L523.5 785L466 754.5L482.5 746L523.5 765.5L578 737L561.5 729L523.5 748L466 720.5L519 692C519 692 606.598 718.728 647.5 749.5C662.428 760.731 669.428 761.268 673.5 779.5C677.897 799.187 670.111 827.073 650 825.5C633.412 824.203 641.602 792.106 625 791C619.23 790.616 618.503 797.628 614 794C591 742 630.5 759.5 635.5 726C657.5 720.5 669.044 739.257 684.5 757.5C745.5 829.5 491.504 978.5 491.504 978.5C473.836 981.833 436.9 982.6 430.5 959C426.1 942.2 430.333 935 433 933.5C433.833 942 437.9 958.5 447.5 956.5C459.5 954 431 932.5 435.5 917.5C439.1 905.5 445 900.833 447.5 900C444.833 913.833 443.8 941.1 461 939.5C478.2 937.9 459.167 899.167 447.5 880C455.833 883.333 472.7 895.5 473.5 917.5C474.5 945 482 949 488.5 942.5C495 936 497 922.5 495.5 917.5C494 912.5 507.5 925 505 939.5C503 951.1 488.5 1001 378 969.5H347.5V965C350.167 964.667 355.5 962.5 355.5 956.5C355.5 950.5 355.5 921.333 355.5 907.5H340.5C337.833 908.167 332.5 911.2 332.5 918C330.1 917.872 328.167 917.947 327.5 918V895.5H399.5V918H394.5C394 914.5 391.3 907.5 384.5 907.5C377.7 907.5 323.5 974 295.5 969.5C267.5 965 267.042 958.276 265 942.5C259.5 900 330.702 903.265 340.5 861C349.979 820.109 353.182 752.48 311.508 757.5C270 762.5 285.5 928 211 911.5C167.485 901.862 166 818.5 189.5 800C209.509 784.248 245.791 799 238.5 815.5C235.628 822 231.776 827.544 220 826C189.5 822 190.309 781.75 157 777.5C90.5197 769.017 58 923 58 923C68.5 920.167 89.5 908.8 89.5 886C76.3 886.063 63 886.026 58 886V970.5H104V954.5C97 948.833 82.6 935.1 81 925.5C69.4 932.3 62.8333 936.667 61 938V972.5H141V930C137.5 924.5 128.1 913.5 118.5 913.5C106.5 913.5 96 895.5 96.5 872C97 848.5 95 830.5 85 838.5C75 846.5 87.5 883 116 884.5C138.8 885.7 142.167 888 141 889C139.5 902.667 142.5 930 166.5 930C196.5 930 249.5 856.5 247 800C244.5 743.5 183.5 748 183.5 670.5C211 670.5 255.52 697.5 298.01 670.5C332.002 648.9 319.167 688.167 308.5 710.5C306.497 722.333 317.794 746 379 746C397.5 746 401.5 737 401.5 729.5C401.5 722 399.5 711.5 392 711.5C396 701.5 402.519 692 405.279 688.5L418.558 711.5C415.039 710.667 408.5 713.1 410.5 729.5C413 750 433 744.5 435 738C436.6 732.8 435.667 693.167 435 674H371.5V720.5L315 783C308.167 795.333 299.8 821.2 321 826C339 814 303.833 799.333 282 783C260.167 766.667 278.597 732.516 262.5 706C241.32 671.112 216.973 632.381 178 644.5C160.354 649.987 141 674 141 674H61.5V754.5H141V724H55V700.5H143.5C143.5 700.5 190.919 657.261 206.5 611C220.819 568.486 204.106 522.563 189.5 524C159 527.001 138.5 607.5 220 538.999" stroke="white" style="stroke: white; stroke-opacity: 1; stroke-dashoffset: 20479.2px; stroke-dasharray: 1966px, 18513.2px; animation: 16.6667s linear 0s infinite normal forwards running id_anim_stroke-property0;" stroke-width="2" class="id_anim_stroke-property0" data-duration="16.666666666666668" data-offset="0"></path>
</g>
<style>
        @keyframes id_anim_stroke-property0{
        
            0%{
                stroke-dashoffset: 20479.16015625px; 
        stroke-dasharray: 1965.9993750000003px, 18513.16078125px;
            }
        
            100%{
                stroke-dashoffset: 0px; 
        stroke-dasharray: 1965.9993750000003px, 18513.16078125px;
            }
        
        }
        </style></svg>
