<svg width="585" height="283" viewBox="0 0 585 283" fill="none" xmlns="http://www.w3.org/2000/svg">
<g id="Frame 1430101907">
<g id="Group 384">
<path id="Vector 525" d="M212.33 191.489C212.33 191.489 155.227 284.807 98.9622 280.95C48.2812 277.475 2.28642 246.129 1.01827 195.345C-0.137231 149.073 53.8465 85.4477 70.0417 85.4477C93.565 85.4477 97.0355 136.733 124.413 130.949C131.603 129.43 132.51 119.767 132.51 119.767C132.51 119.767 128.268 112.523 128.268 107.427C128.268 90.4606 156.033 64.2394 165.286 65.0106C171.447 65.524 174.948 64.8829 181.096 64.2394C199.221 59.2266 231.998 1.00007 285.21 1C307.211 0.99997 328.012 15.6312 328.012 37.6326C328.012 81.2061 238.553 142.517 242.408 188.79C243.74 204.788 250.647 221.952 266.701 221.952C298.322 221.952 326.471 141.361 383.925 141.361C389.948 141.361 396.264 144.592 396.264 150.615C396.264 159.099 388.552 177.222 388.552 177.222L473 127.093L387.395 80.4348L398.578 114.368C398.578 114.368 388.108 111.283 381.226 111.283C311.047 111.283 315.674 184.163 270.942 184.163C238.167 184.163 245.492 151.772 245.492 151.772C245.492 151.772 217.686 181.037 192.279 179.536C107.447 174.523 74.669 97.4016 74.669 83.9053C74.669 57.2986 132.51 24.5763 153.334 25.2933C171.425 25.9162 194.207 40.7174 194.207 40.7174C207.318 49.4578 233.54 74.1881 233.54 103.186C233.54 139.433 173 195.345 171.457 195.345C169.915 195.345 90.8658 241.233 95.8786 267.839C100.892 288.662 186.11 216.939 171.457 186.477C156.804 156.014 131.354 159.099 131.354 139.433C131.354 127.864 155.262 130.949 171.457 107.427C196.907 74.6508 189.197 58.4554 200.763 54.9849" stroke="white" style="stroke:white;stroke-opacity:1;" stroke-width="2"></path>
<path id="Vector 527" d="M135.981 102.8C132.511 109.355 133.668 114.754 138.68 118.996C145.775 122.389 151.405 116.296 153.334 112.826C154.876 109.998 158.886 103.263 162.588 98.944C167.215 93.5455 178.398 86.219 179.169 81.2061C179.94 76.1932 174.928 72.3372 168.758 71.9516C162.588 71.566 139.452 96.2448 135.981 102.8Z" stroke="white" style="stroke: white; stroke-opacity: 1; stroke-dashoffset: 138.188px; stroke-dasharray: 110.55px, 27.6376px; animation: 1.35185s linear 0.240871s infinite normal forwards running id_anim_stroke-property1;" stroke-width="2" class="id_anim_stroke-property1" data-duration="1.3518535676412287" data-offset="0.24087065078731432"></path>
</g>
<path id="mojno lrxskrolitlr" d="M501.5 101.727L505.307 93.0909H506.898L502.182 104H500.818L496.188 93.0909H497.75L501.5 101.727ZM497.21 93.0909V104H495.534V93.0909H497.21ZM505.79 104V93.0909H507.466V104H505.79ZM513.744 104.256C513.053 104.256 512.426 104.125 511.862 103.865C511.299 103.6 510.851 103.219 510.52 102.722C510.188 102.22 510.023 101.614 510.023 100.903C510.023 100.278 510.146 99.7718 510.392 99.3835C510.638 98.9905 510.967 98.6828 511.379 98.4602C511.791 98.2377 512.246 98.072 512.743 97.9631C513.245 97.8494 513.749 97.7595 514.256 97.6932C514.919 97.608 515.456 97.544 515.868 97.5014C516.285 97.4541 516.588 97.3759 516.777 97.267C516.971 97.1581 517.068 96.9687 517.068 96.6989V96.642C517.068 95.9413 516.876 95.3968 516.493 95.0085C516.114 94.6203 515.539 94.4261 514.767 94.4261C513.967 94.4261 513.339 94.6013 512.885 94.9517C512.43 95.3021 512.111 95.6761 511.926 96.0739L510.335 95.5057C510.619 94.8428 510.998 94.3267 511.472 93.9574C511.95 93.5833 512.471 93.3229 513.034 93.1761C513.602 93.0246 514.161 92.9489 514.71 92.9489C515.061 92.9489 515.463 92.9915 515.918 93.0767C516.377 93.1572 516.82 93.3253 517.246 93.581C517.677 93.8366 518.034 94.2225 518.318 94.7386C518.602 95.2547 518.744 95.946 518.744 96.8125V104H517.068V102.523H516.983C516.869 102.759 516.68 103.013 516.415 103.283C516.15 103.553 515.797 103.782 515.357 103.972C514.916 104.161 514.379 104.256 513.744 104.256ZM514 102.75C514.663 102.75 515.222 102.62 515.676 102.359C516.135 102.099 516.481 101.763 516.713 101.351C516.95 100.939 517.068 100.506 517.068 100.051V98.517C516.997 98.6023 516.841 98.6804 516.599 98.7514C516.363 98.8177 516.088 98.8769 515.776 98.929C515.468 98.9763 515.167 99.0189 514.874 99.0568C514.585 99.09 514.35 99.1184 514.17 99.142C513.735 99.1989 513.328 99.2912 512.949 99.419C512.575 99.5421 512.272 99.7292 512.04 99.9801C511.813 100.226 511.699 100.562 511.699 100.989C511.699 101.571 511.914 102.011 512.345 102.31C512.781 102.603 513.332 102.75 514 102.75ZM521.804 104V93.0909H523.48V97.8352H524.588L528.508 93.0909H530.667L526.264 98.3466L530.724 104H528.565L524.985 99.3977H523.48V104H521.804ZM536.67 104.227C535.619 104.227 534.713 103.995 533.95 103.531C533.193 103.062 532.608 102.409 532.196 101.571C531.789 100.728 531.585 99.7481 531.585 98.6307C531.585 97.5133 531.789 96.5284 532.196 95.6761C532.608 94.8191 533.181 94.1515 533.915 93.6733C534.653 93.1903 535.515 92.9489 536.5 92.9489C537.068 92.9489 537.629 93.0436 538.183 93.233C538.737 93.4223 539.241 93.7301 539.696 94.1562C540.151 94.5777 540.513 95.1364 540.783 95.8324C541.053 96.5284 541.188 97.3854 541.188 98.4034V99.1136H532.778V97.6648H539.483C539.483 97.0492 539.36 96.5 539.114 96.017C538.872 95.5341 538.527 95.1529 538.077 94.8736C537.632 94.5942 537.106 94.4545 536.5 94.4545C535.832 94.4545 535.255 94.6203 534.767 94.9517C534.284 95.2784 533.912 95.7045 533.652 96.2301C533.392 96.7557 533.261 97.3191 533.261 97.9205V98.8864C533.261 99.7102 533.403 100.409 533.688 100.982C533.976 101.55 534.376 101.983 534.888 102.281C535.399 102.575 535.993 102.722 536.67 102.722C537.111 102.722 537.509 102.66 537.864 102.537C538.223 102.409 538.534 102.22 538.794 101.969C539.054 101.713 539.256 101.396 539.398 101.017L541.017 101.472C540.847 102.021 540.56 102.504 540.158 102.92C539.755 103.332 539.258 103.654 538.666 103.886C538.074 104.114 537.409 104.227 536.67 104.227ZM542.722 94.6534V93.0909H551.585V94.6534H548.006V104H546.33V94.6534H542.722ZM501.5 129.727L505.307 121.091H506.898L502.182 132H500.818L496.188 121.091H497.75L501.5 129.727ZM497.21 121.091V132H495.534V121.091H497.21ZM505.79 132V121.091H507.466V132H505.79ZM514.966 132.227C513.981 132.227 513.117 131.993 512.374 131.524C511.635 131.055 511.057 130.4 510.641 129.557C510.229 128.714 510.023 127.729 510.023 126.602C510.023 125.466 510.229 124.474 510.641 123.626C511.057 122.779 511.635 122.121 512.374 121.652C513.117 121.183 513.981 120.949 514.966 120.949C515.951 120.949 516.813 121.183 517.551 121.652C518.295 122.121 518.872 122.779 519.284 123.626C519.701 124.474 519.909 125.466 519.909 126.602C519.909 127.729 519.701 128.714 519.284 129.557C518.872 130.4 518.295 131.055 517.551 131.524C516.813 131.993 515.951 132.227 514.966 132.227ZM514.966 130.722C515.714 130.722 516.33 130.53 516.812 130.146C517.295 129.763 517.653 129.259 517.885 128.634C518.117 128.009 518.233 127.331 518.233 126.602C518.233 125.873 518.117 125.194 517.885 124.564C517.653 123.934 517.295 123.425 516.812 123.037C516.33 122.649 515.714 122.455 514.966 122.455C514.218 122.455 513.602 122.649 513.119 123.037C512.636 123.425 512.279 123.934 512.047 124.564C511.815 125.194 511.699 125.873 511.699 126.602C511.699 127.331 511.815 128.009 512.047 128.634C512.279 129.259 512.636 129.763 513.119 130.146C513.602 130.53 514.218 130.722 514.966 130.722ZM521.337 132L525.768 126.46L521.393 121.091H523.382L527.018 125.75H527.928V121.091H529.604V125.75H530.484L534.121 121.091H536.109L531.763 126.46L536.166 132H534.149L530.456 127.312H529.604V132H527.928V127.312H527.075L523.354 132H521.337ZM545.863 125.778V127.341H539.84V125.778H545.863ZM540.238 121.091V132H538.561V121.091H540.238ZM547.141 121.091V132H545.465V121.091H547.141ZM554.634 132.227C553.649 132.227 552.785 131.993 552.042 131.524C551.303 131.055 550.725 130.4 550.309 129.557C549.897 128.714 549.691 127.729 549.691 126.602C549.691 125.466 549.897 124.474 550.309 123.626C550.725 122.779 551.303 122.121 552.042 121.652C552.785 121.183 553.649 120.949 554.634 120.949C555.619 120.949 556.48 121.183 557.219 121.652C557.962 122.121 558.54 122.779 558.952 123.626C559.369 124.474 559.577 125.466 559.577 126.602C559.577 127.729 559.369 128.714 558.952 129.557C558.54 130.4 557.962 131.055 557.219 131.524C556.48 131.993 555.619 132.227 554.634 132.227ZM554.634 130.722C555.382 130.722 555.998 130.53 556.48 130.146C556.963 129.763 557.321 129.259 557.553 128.634C557.785 128.009 557.901 127.331 557.901 126.602C557.901 125.873 557.785 125.194 557.553 124.564C557.321 123.934 556.963 123.425 556.48 123.037C555.998 122.649 555.382 122.455 554.634 122.455C553.886 122.455 553.27 122.649 552.787 123.037C552.304 123.425 551.947 123.934 551.715 124.564C551.483 125.194 551.367 125.873 551.367 126.602C551.367 127.331 551.483 128.009 551.715 128.634C551.947 129.259 552.304 129.763 552.787 130.146C553.27 130.53 553.886 130.722 554.634 130.722ZM499.966 160.227C498.943 160.227 498.063 159.986 497.324 159.503C496.585 159.02 496.017 158.355 495.619 157.507C495.222 156.66 495.023 155.691 495.023 154.602C495.023 153.494 495.226 152.517 495.634 151.669C496.045 150.817 496.618 150.152 497.352 149.673C498.091 149.19 498.953 148.949 499.938 148.949C500.705 148.949 501.396 149.091 502.011 149.375C502.627 149.659 503.131 150.057 503.524 150.568C503.917 151.08 504.161 151.676 504.256 152.358H502.58C502.452 151.861 502.168 151.42 501.727 151.037C501.292 150.649 500.705 150.455 499.966 150.455C499.313 150.455 498.74 150.625 498.247 150.966C497.759 151.302 497.378 151.778 497.104 152.393C496.834 153.004 496.699 153.722 496.699 154.545C496.699 155.388 496.831 156.122 497.097 156.747C497.366 157.372 497.745 157.857 498.233 158.203C498.725 158.549 499.303 158.722 499.966 158.722C500.402 158.722 500.797 158.646 501.152 158.494C501.507 158.343 501.808 158.125 502.054 157.841C502.3 157.557 502.475 157.216 502.58 156.818H504.256C504.161 157.462 503.927 158.042 503.553 158.558C503.183 159.07 502.693 159.477 502.082 159.78C501.476 160.078 500.771 160.227 499.966 160.227ZM506.706 160V149.091H508.382V153.835H509.49L513.411 149.091H515.57L511.166 154.347L515.626 160H513.467L509.888 155.398H508.382V160H506.706ZM517.448 164.091V149.091H519.067V150.824H519.266C519.389 150.634 519.56 150.393 519.778 150.099C520 149.801 520.317 149.536 520.729 149.304C521.146 149.067 521.71 148.949 522.42 148.949C523.338 148.949 524.148 149.179 524.849 149.638C525.549 150.097 526.096 150.748 526.489 151.591C526.882 152.434 527.079 153.428 527.079 154.574C527.079 155.729 526.882 156.731 526.489 157.578C526.096 158.421 525.552 159.074 524.856 159.538C524.16 159.998 523.357 160.227 522.448 160.227C521.747 160.227 521.186 160.111 520.765 159.879C520.344 159.643 520.019 159.375 519.792 159.077C519.565 158.774 519.389 158.523 519.266 158.324H519.124V164.091H517.448ZM519.096 154.545C519.096 155.369 519.217 156.096 519.458 156.726C519.7 157.351 520.052 157.841 520.516 158.196C520.98 158.546 521.549 158.722 522.221 158.722C522.922 158.722 523.506 158.537 523.975 158.168C524.449 157.794 524.804 157.292 525.04 156.662C525.282 156.027 525.403 155.322 525.403 154.545C525.403 153.778 525.284 153.087 525.048 152.472C524.816 151.851 524.463 151.361 523.989 151.001C523.521 150.637 522.931 150.455 522.221 150.455C521.539 150.455 520.966 150.627 520.502 150.973C520.038 151.314 519.688 151.792 519.451 152.408C519.214 153.018 519.096 153.731 519.096 154.545ZM534.067 160.227C533.083 160.227 532.219 159.993 531.475 159.524C530.737 159.055 530.159 158.4 529.742 157.557C529.33 156.714 529.124 155.729 529.124 154.602C529.124 153.466 529.33 152.474 529.742 151.626C530.159 150.779 530.737 150.121 531.475 149.652C532.219 149.183 533.083 148.949 534.067 148.949C535.052 148.949 535.914 149.183 536.653 149.652C537.396 150.121 537.974 150.779 538.386 151.626C538.802 152.474 539.011 153.466 539.011 154.602C539.011 155.729 538.802 156.714 538.386 157.557C537.974 158.4 537.396 159.055 536.653 159.524C535.914 159.993 535.052 160.227 534.067 160.227ZM534.067 158.722C534.816 158.722 535.431 158.53 535.914 158.146C536.397 157.763 536.754 157.259 536.987 156.634C537.219 156.009 537.335 155.331 537.335 154.602C537.335 153.873 537.219 153.194 536.987 152.564C536.754 151.934 536.397 151.425 535.914 151.037C535.431 150.649 534.816 150.455 534.067 150.455C533.319 150.455 532.704 150.649 532.221 151.037C531.738 151.425 531.38 151.934 531.148 152.564C530.916 153.194 530.8 153.873 530.8 154.602C530.8 155.331 530.916 156.009 531.148 156.634C531.38 157.259 531.738 157.763 532.221 158.146C532.704 158.53 533.319 158.722 534.067 158.722ZM540.603 160V158.438H541.001C541.328 158.438 541.6 158.374 541.818 158.246C542.036 158.113 542.211 157.884 542.343 157.557C542.481 157.225 542.585 156.766 542.656 156.179C542.732 155.587 542.786 154.834 542.819 153.92L543.018 149.091H550.291V160H548.615V150.653H544.609L544.439 154.545C544.401 155.44 544.32 156.229 544.197 156.911C544.079 157.588 543.896 158.156 543.65 158.615C543.409 159.074 543.087 159.42 542.684 159.652C542.282 159.884 541.778 160 541.172 160H540.603ZM555.042 157.528L560.298 149.091H562.23V160H560.554V151.562L555.326 160H553.366V149.091H555.042V157.528ZM563.815 150.653V149.091H572.679V150.653H569.099V160H567.423V150.653H563.815ZM576.573 153.04H579.698C580.976 153.04 581.954 153.364 582.631 154.013C583.308 154.661 583.647 155.483 583.647 156.477C583.647 157.131 583.495 157.725 583.192 158.26C582.889 158.79 582.444 159.214 581.857 159.531C581.27 159.844 580.55 160 579.698 160H575.124V149.091H576.8V158.438H579.698C580.361 158.438 580.905 158.262 581.331 157.912C581.757 157.562 581.971 157.112 581.971 156.562C581.971 155.985 581.757 155.514 581.331 155.149C580.905 154.785 580.361 154.602 579.698 154.602H576.573V153.04Z" fill="white" style="fill:white;fill-opacity:1;"></path>
</g>
<style>
        @keyframes id_anim_stroke-property1{
        
            0%{
                stroke-dashoffset: 138.18807983398438px; 
        stroke-dasharray: 110.5504638671875px, 27.63761596679687px;
            }
        
            100%{
                stroke-dashoffset: 0px; 
        stroke-dasharray: 110.5504638671875px, 27.63761596679687px;
            }
        
        }
        </style></svg>
