<svg width="44" height="44" viewBox="0 0 44 44" fill="none" xmlns="http://www.w3.org/2000/svg">
<path d="M25.5254 36.5617V33.7435C28.1479 32.9093 30.2603 31.3941 31.8627 29.1981C33.4654 27.0023 34.2668 24.5268 34.2668 21.7717C34.2668 19.0165 33.4654 16.5411 31.8627 14.3453C30.2603 12.1493 28.1479 10.6341 25.5254 9.79987V6.98169C28.91 7.88836 31.6676 9.70533 33.7982 12.4326C35.9285 15.1599 36.9936 18.2729 36.9936 21.7717C36.9936 25.2705 35.9285 28.3835 33.7982 31.1108C31.6676 33.8381 28.91 35.655 25.5254 36.5617ZM6.64453 26.3626V17.2717H13.3927L21.1895 9.47487V34.1594L13.3927 26.3626H6.64453ZM25.5254 28.4603V15.0831C26.7515 15.7497 27.6991 16.6885 28.3682 17.8994C29.037 19.1103 29.3713 20.4162 29.3713 21.8171C29.3713 23.1993 29.0339 24.4853 28.3591 25.6753C27.6842 26.8653 26.7397 27.7937 25.5254 28.4603ZM18.4623 16.0899L14.5532 19.999H9.37135V23.6353H14.5532L18.4623 27.5444V16.0899Z" fill="#F3F0ED" style="fill:#F3F0ED;fill:color(display-p3 0.9529 0.9412 0.9294);fill-opacity:1;"/>
</svg>
