<svg width="1920" height="1080" viewBox="0 0 1920 1080" fill="none" xmlns="http://www.w3.org/2000/svg">
<rect width="1920" height="1080" fill="#B8D5BE" style="fill:#B8D5BE;fill:color(display-p3 0.7216 0.8353 0.7451);fill-opacity:1;"/>
<path d="M940.691 210.443V242.459C940.691 260.054 926.814 274.475 909.541 274.475C892.268 274.475 878.392 260.054 878.392 242.459C878.392 224.864 892.268 210.443 909.541 210.443H940.691Z" fill="#0ACF83" stroke="black" style="fill:#0ACF83;fill:color(display-p3 0.0392 0.8118 0.5137);fill-opacity:1;stroke:black;stroke-opacity:1;" stroke-width="5.5082"/>
<path d="M940.691 146.612V210.644H909.541C892.268 210.643 878.391 196.223 878.391 178.628C878.391 161.033 892.268 146.612 909.541 146.612H940.691Z" fill="#A259FF" stroke="black" style="fill:#A259FF;fill:color(display-p3 0.6353 0.3490 1.0000);fill-opacity:1;stroke:black;stroke-opacity:1;" stroke-width="5.5082"/>
<path d="M940.697 82.3773V146.409H909.547C892.274 146.409 878.398 131.989 878.397 114.394C878.397 96.7988 892.274 82.3775 909.547 82.3773H940.697Z" fill="#F24E1E" stroke="black" style="fill:#F24E1E;fill:color(display-p3 0.9490 0.3059 0.1176);fill-opacity:1;stroke:black;stroke-opacity:1;" stroke-width="5.5082"/>
<path d="M972.183 82.3773C989.456 82.3773 1003.33 96.7986 1003.33 114.394C1003.33 131.989 989.456 146.409 972.183 146.409H941.033V82.3773H972.183Z" fill="#FF7262" stroke="black" style="fill:#FF7262;fill:color(display-p3 1.0000 0.4471 0.3843);fill-opacity:1;stroke:black;stroke-opacity:1;" stroke-width="5.5082"/>
<path d="M972.183 146.41C989.456 146.41 1003.33 160.831 1003.33 178.427C1003.33 196.022 989.456 210.442 972.183 210.442C954.91 210.442 941.033 196.022 941.033 178.427C941.033 160.832 954.91 146.41 972.183 146.41Z" fill="#1ABCFE" stroke="black" style="fill:#1ABCFE;fill:color(display-p3 0.1020 0.7373 0.9961);fill-opacity:1;stroke:black;stroke-opacity:1;" stroke-width="5.5082"/>
<path d="M394.141 427.18C389.528 374.457 387.222 348.095 402.168 330.283C417.114 312.471 443.476 310.164 496.2 305.551L1363.87 229.641C1416.59 225.028 1442.95 222.721 1460.76 237.668C1478.58 252.614 1480.88 278.976 1485.49 331.699L1495.66 447.876L404.305 543.357L394.141 427.18Z" fill="#FBFF54" style="fill:#FBFF54;fill:color(display-p3 0.9843 1.0000 0.3294);fill-opacity:1;"/>
<path d="M513.902 451.411C529.793 450.02 540.758 446.111 546.797 439.684C552.976 433.244 555.584 424.518 554.62 413.506C553.571 401.518 549.363 392.756 541.997 387.22C534.617 381.545 523.331 379.372 508.137 380.701C494.197 381.921 483.675 386.072 476.569 393.155C469.451 400.098 466.404 409.425 467.429 421.134C468.417 432.425 472.715 440.617 480.324 445.71C487.933 450.803 499.126 452.703 513.902 451.411ZM527.49 479.087C514.108 480.258 502.798 479.421 493.559 476.577C484.461 473.721 477.161 468.952 471.66 462.27L477.002 523.325L442.292 526.361L428.024 363.27L458.551 360.599L462.981 382.334C467.801 373.204 474.9 366.051 484.28 360.876C493.799 355.689 504.831 352.547 517.376 351.449C538.286 349.62 555.286 353.681 568.376 363.632C581.467 373.583 588.939 389.153 590.793 410.341C591.72 420.935 590.643 430.299 587.562 438.435C584.621 446.558 580.106 453.555 574.018 459.425C568.057 465.143 561.08 469.687 553.088 473.055C545.083 476.283 536.55 478.294 527.49 479.087ZM642.369 411.517L647.052 465.045L612.761 468.045L598.858 309.135L633.149 306.135L638.692 369.49C642.384 360.318 648.326 352.775 656.517 346.861C664.836 340.796 675.407 337.202 688.232 336.08C694.504 335.531 700.344 335.652 705.751 336.444C711.285 337.083 716.322 338.468 720.863 340.599C730.059 344.571 737.342 350.746 742.71 359.125C748.078 367.505 751.287 377.688 752.336 389.676L758.08 455.331L722.325 458.459L717.496 403.259C717.142 399.216 716.534 395.477 715.672 392.041C714.797 388.466 713.738 385.187 712.493 382.206C709.727 376.268 705.618 371.851 700.168 368.957C694.845 365.911 687.792 364.773 679.01 365.541C665.21 366.748 655.345 371.193 649.416 378.875C643.486 386.558 641.137 397.438 642.369 411.517ZM784.767 507.355L769.085 508.727L766.396 477.99L783.751 476.472C787.236 476.167 790.354 475.684 793.105 475.021C795.869 474.499 798.259 473.728 800.277 472.708C804.476 470.936 807.893 468.25 810.528 464.648C813.314 461.174 816.009 456.654 818.612 451.089L821.963 443.632L746.547 335.403L785.438 332L836.035 407.004L837.828 410.64L838.999 407.167L875.557 324.116L913.821 320.768L851.988 454.489C847.151 465.026 842.701 473.562 838.637 480.098C834.574 486.633 830.249 491.788 825.663 495.56C820.925 499.205 815.329 501.872 808.875 503.56C802.421 505.248 794.385 506.513 784.767 507.355ZM1002.19 437.977C977.657 440.124 958.458 438.222 944.594 432.271C930.857 426.169 921.808 415.864 917.449 401.357L958.222 397.789C960.686 403.473 965.1 407.371 971.465 409.483C977.818 411.455 987.894 411.838 1001.69 410.631C1014.66 409.496 1023.41 407.537 1027.94 404.753C1032.46 401.829 1034.54 398.276 1034.17 394.095C1034 392.143 1033.3 390.589 1032.08 389.432C1030.99 388.263 1028.88 387.464 1025.76 387.035C1022.62 386.467 1017.96 386.242 1011.79 386.36C1005.61 386.339 997.488 386.629 987.427 387.228C963.669 388.604 946.394 387.025 935.604 382.491C924.952 377.945 919.108 369.748 918.072 357.899C917.718 353.857 917.946 350.045 918.756 346.462C919.694 342.728 921.283 339.218 923.524 335.932C927.854 329.232 934.809 323.637 944.389 319.147C953.969 314.657 966.356 311.747 981.55 310.418C1003.99 308.455 1021.85 310.263 1035.12 315.845C1048.53 321.414 1058.03 331.258 1063.62 345.377L1025.14 348.742C1022.94 342.755 1018.18 338.958 1010.87 337.349C1003.7 335.589 994.533 335.197 983.382 336.173C979.06 336.551 975.239 337.026 971.918 337.597C968.597 338.169 965.782 338.907 963.473 339.811C958.983 341.468 955.917 343.351 954.276 345.462C952.634 347.572 951.911 349.742 952.106 351.972C952.265 353.784 952.817 355.281 953.763 356.462C954.71 357.644 956.689 358.594 959.702 359.314C962.702 359.894 967.154 360.207 973.057 360.252C979.1 360.286 987.158 360.072 997.231 359.612C1010.94 358.975 1022.32 359.032 1031.38 359.785C1040.43 360.538 1047.6 362.159 1052.87 364.647C1058.27 366.983 1062.22 370.291 1064.7 374.568C1067.17 378.707 1068.67 383.912 1069.22 390.185C1070.27 402.173 1065.15 412.664 1053.86 421.658C1042.69 430.501 1025.47 435.941 1002.19 437.977ZM1094.19 286.447C1086.1 287.155 1080.11 286.134 1076.22 283.384C1072.32 280.495 1070.01 275.008 1069.3 266.923C1068.62 259.117 1070.16 253.504 1073.94 250.083C1077.7 246.524 1083.21 244.427 1090.45 243.793C1097.84 243.146 1103.63 244.255 1107.81 247.12C1112.12 249.833 1114.62 255.093 1115.3 262.899C1115.96 270.426 1114.49 276.103 1110.89 279.929C1107.42 283.604 1101.85 285.777 1094.19 286.447ZM1123.86 423.329L1087.27 426.531L1076.77 306.512L1113.36 303.311L1123.86 423.329ZM1295.63 354.996C1295.7 360.609 1295.05 366.003 1293.67 371.18C1292.44 376.345 1290.47 381.152 1287.77 385.602C1282.38 394.642 1273.98 402.119 1262.56 408.035C1251.26 413.799 1236.69 417.461 1218.85 419.022C1209.37 419.851 1200.74 419.974 1192.97 419.39C1185.19 418.806 1178.26 417.446 1172.17 415.31C1160.3 411.292 1151.38 404.769 1145.39 395.741C1139.4 386.714 1135.84 375.718 1134.71 362.754C1134.12 356.064 1134.42 349.787 1135.59 343.926C1136.75 337.925 1138.72 332.345 1141.5 327.185C1147.2 316.855 1155.81 308.516 1167.33 302.171C1178.86 295.825 1192.63 291.951 1208.66 290.548C1232.78 288.438 1252.09 291.665 1266.61 300.227C1281.25 308.638 1290.46 321.597 1294.24 339.105L1255.98 342.453C1253.66 333.666 1248.96 327.335 1241.88 323.46C1234.93 319.433 1224.83 317.999 1211.59 319.157C1196.95 320.438 1186.21 324.468 1179.36 331.247C1172.63 337.876 1169.81 347.323 1170.88 359.59C1171.87 370.881 1176.03 379.085 1183.36 384.203C1190.83 389.308 1202.16 391.196 1217.35 389.867C1231.29 388.647 1241.26 385.387 1247.26 380.087C1253.38 374.635 1256.75 367.387 1257.37 358.344L1295.63 354.996ZM1389.1 404.127C1364.57 406.273 1345.37 404.371 1331.5 398.421C1317.77 392.319 1308.72 382.014 1304.36 367.506L1345.13 363.939C1347.6 369.623 1352.01 373.521 1358.37 375.633C1364.73 377.605 1374.8 377.988 1388.6 376.78C1401.57 375.646 1410.32 373.687 1414.85 370.903C1419.37 367.979 1421.44 364.426 1421.08 360.244C1420.91 358.293 1420.21 356.739 1418.99 355.582C1417.9 354.412 1415.79 353.613 1412.67 353.185C1409.53 352.617 1404.87 352.392 1398.7 352.51C1392.52 352.489 1384.4 352.778 1374.34 353.378C1350.58 354.754 1333.3 353.175 1322.51 348.641C1311.86 344.095 1306.02 335.898 1304.98 324.049C1304.63 320.007 1304.86 316.194 1305.67 312.612C1306.6 308.878 1308.19 305.368 1310.43 302.082C1314.76 295.382 1321.72 289.787 1331.3 285.297C1340.88 280.807 1353.27 277.897 1368.46 276.568C1390.9 274.604 1408.76 276.413 1422.03 281.994C1435.44 287.563 1444.94 297.407 1450.53 311.526L1412.05 314.892C1409.85 308.905 1405.09 305.108 1397.78 303.499C1390.61 301.739 1381.44 301.347 1370.29 302.323C1365.97 302.701 1362.15 303.176 1358.83 303.747C1355.51 304.319 1352.69 305.056 1350.38 305.961C1345.89 307.618 1342.83 309.501 1341.19 311.611C1339.54 313.721 1338.82 315.892 1339.02 318.122C1339.17 319.934 1339.73 321.431 1340.67 322.612C1341.62 323.794 1343.6 324.744 1346.61 325.464C1349.61 326.044 1354.06 326.357 1359.97 326.402C1366.01 326.435 1374.07 326.222 1384.14 325.762C1397.85 325.124 1409.23 325.182 1418.29 325.935C1427.34 326.688 1434.51 328.308 1439.78 330.797C1445.18 333.133 1449.13 336.44 1451.61 340.718C1454.08 344.856 1455.58 350.062 1456.13 356.335C1457.18 368.323 1452.06 378.814 1440.77 387.808C1429.6 396.651 1412.38 402.09 1389.1 404.127Z" fill="black" style="fill:black;fill-opacity:1;"/>
<path d="M266.668 662.533C262.287 612.457 260.096 587.42 273.584 570.035C274.462 568.903 275.384 567.805 276.347 566.743C291.125 550.441 316.163 548.251 366.239 543.87L1533.24 441.771C1583.31 437.39 1608.35 435.199 1625.73 448.687C1626.87 449.565 1627.96 450.487 1629.03 451.45C1645.33 466.228 1647.52 491.266 1651.9 541.341V541.341C1656.28 591.417 1658.47 616.455 1644.98 633.84C1644.1 634.972 1643.18 636.07 1642.22 637.132C1627.44 653.433 1602.4 655.624 1552.33 660.005L385.332 762.104C335.256 766.485 310.218 768.676 292.834 755.188C291.701 754.31 290.603 753.388 289.541 752.425C273.24 737.647 271.049 712.609 266.668 662.533V662.533Z" fill="#F3C5D3" style="fill:#F3C5D3;fill:color(display-p3 0.9529 0.7725 0.8275);fill-opacity:1;"/>
<path d="M364.153 689.829C369.45 689.365 374.362 688.514 378.889 687.275C383.543 685.885 387.812 684.107 391.696 681.941C399.615 677.737 405.631 672.645 409.743 666.667C413.995 660.677 415.858 654.684 415.334 648.69L415.261 647.854C413.91 650.079 410.926 652.096 406.309 653.905C401.691 655.713 394.528 657.323 384.819 658.734C373.438 660.292 364.793 661.821 358.884 663.321C352.963 664.682 348.467 666.269 345.395 668.083C342.996 669.557 341.248 671.255 340.152 673.177C339.056 675.099 338.612 677.244 338.819 679.614L338.837 679.823C339.179 683.726 341.253 686.565 345.06 688.339C349.007 690.1 355.371 690.597 364.153 689.829ZM425.173 705.77L419.549 677.608C415.5 687.514 408.167 696.021 397.552 703.13C386.925 710.099 372.969 714.34 355.684 715.853C339.236 717.292 326.307 715.614 316.898 710.818C307.616 705.871 302.475 697.683 301.475 686.252L301.457 686.043C300.847 679.074 301.85 672.876 304.465 667.45C307.081 662.024 311.53 657.491 317.813 653.851C319.68 652.705 321.697 651.685 323.867 650.793C326.024 649.762 328.257 648.794 330.565 647.89C335.334 646.208 341.516 644.614 349.109 643.107C356.83 641.448 367.072 639.709 379.835 637.89C384.272 637.221 388.22 636.595 391.68 636.011C395.141 635.428 398.038 634.823 400.371 634.198C405.189 633.074 408.512 631.73 410.342 630.165C412.159 628.461 412.952 626.284 412.72 623.636L412.702 623.427C412.58 622.033 412.185 620.733 411.518 619.527C410.99 618.309 410.114 617.122 408.889 615.965C406.73 613.766 403.074 612.119 397.922 611.025C392.909 609.918 386.081 609.743 377.439 610.499C372.281 610.951 367.7 611.562 363.694 612.334C359.676 612.967 356.24 613.829 353.386 614.921C347.513 616.84 343.318 619.454 340.798 622.765C338.266 625.936 336.929 629.916 336.786 634.704L300.195 637.905C300.756 621.844 307.126 609.558 319.304 601.048C331.482 592.538 349.071 587.277 372.071 585.265C379.877 584.582 387.016 584.308 393.49 584.444C400.102 584.568 406.118 585.095 411.537 586.026C422.247 588.038 430.638 592.431 436.709 599.204C442.767 605.837 446.363 615.636 447.497 628.6L454.028 703.245L425.173 705.77ZM506.554 645.134L511.2 698.244L475.027 701.408L464.527 581.39L495.472 578.682L500.686 604.563C504.609 594.809 510.862 586.817 519.447 580.588C528.02 574.219 538.858 570.462 551.961 569.316C558.234 568.767 564.074 568.888 569.481 569.679C575.014 570.319 580.121 571.698 584.802 573.817C593.998 577.788 601.281 583.963 606.649 592.342C612.157 600.71 615.435 610.887 616.484 622.875L622.228 688.53L586.264 691.676L581.27 634.594C580.209 622.467 576.801 613.214 571.046 606.835C565.29 600.456 555.792 597.845 542.549 599.004C528.749 600.211 518.96 604.72 513.182 612.529C507.531 620.187 505.322 631.055 506.554 645.134ZM649.852 546.635C641.767 547.342 635.778 546.321 631.885 543.571C627.981 540.683 625.675 535.196 624.967 527.111C624.284 519.305 625.83 513.691 629.604 510.271C633.366 506.711 638.871 504.614 646.12 503.98C653.508 503.334 659.293 504.443 663.477 507.308C667.788 510.021 670.285 515.28 670.968 523.086C671.626 530.613 670.156 536.29 666.558 540.117C663.087 543.791 657.518 545.964 649.852 546.635ZM679.525 683.517L642.934 686.718L632.434 566.7L669.025 563.498L679.525 683.517ZM732.629 624.512L737.349 678.458L701.385 681.605L690.885 561.586L721.412 558.915L726.571 584.168C729.846 575.033 735.142 567.335 742.46 561.077C749.918 554.806 759.571 551.152 771.419 550.115C784.383 548.981 795.018 550.93 803.324 555.963C811.757 560.843 818.137 567.94 822.464 577.254C825.677 567.421 831.221 559.351 839.097 553.044C847.1 546.584 857.305 542.812 869.711 541.727C875.844 541.19 881.545 541.324 886.812 542.127C892.079 542.93 896.844 544.41 901.106 546.565C909.642 551.015 916.328 557.594 921.163 566.301C925.986 574.868 928.922 585.146 929.97 597.134L935.568 661.116L899.813 664.244L894.764 606.535C894.423 602.632 893.827 599.032 892.977 595.735C892.266 592.426 891.37 589.415 890.29 586.7C887.978 581.143 884.318 577.039 879.31 574.387C874.43 571.583 867.808 570.547 859.444 571.279C848.711 572.218 841.158 576.601 836.786 584.428C832.414 592.255 830.753 602.163 831.802 614.15L836.668 669.769L800.913 672.897L795.699 613.306C795.395 609.821 794.899 606.563 794.212 603.533C793.526 600.503 792.643 597.631 791.562 594.916C789.553 589.614 786.184 585.625 781.455 582.948C776.854 580.12 770.301 579.078 761.798 579.822C750.228 580.834 742.194 585.33 737.695 593.308C733.184 601.147 731.495 611.549 732.629 624.512ZM1009.83 633.339C1015.13 632.876 1020.04 632.025 1024.57 630.786C1029.22 629.395 1033.49 627.617 1037.37 625.452C1045.29 621.247 1051.31 616.156 1055.42 610.178C1059.67 604.187 1061.54 598.195 1061.01 592.201L1060.94 591.365C1059.59 593.59 1056.6 595.607 1051.99 597.415C1047.37 599.224 1040.21 600.834 1030.5 602.245C1019.11 603.803 1010.47 605.331 1004.56 606.832C998.64 608.192 994.144 609.78 991.072 611.593C988.673 613.068 986.925 614.766 985.829 616.687C984.733 618.609 984.289 620.755 984.496 623.125L984.514 623.334C984.856 627.237 986.93 630.075 990.737 631.849C994.684 633.611 1001.05 634.108 1009.83 633.339ZM1070.85 649.281L1065.23 621.118C1061.18 631.024 1053.84 639.531 1043.23 646.64C1032.6 653.61 1018.65 657.851 1001.36 659.363C984.913 660.802 971.984 659.124 962.575 654.329C953.293 649.382 948.152 641.193 947.152 629.763L947.134 629.554C946.524 622.584 947.527 616.386 950.142 610.961C952.758 605.535 957.207 601.002 963.49 597.362C965.356 596.215 967.374 595.196 969.544 594.304C971.701 593.272 973.934 592.305 976.242 591.4C981.011 589.719 987.193 588.125 994.786 586.618C1002.51 584.959 1012.75 583.22 1025.51 581.401C1029.95 580.732 1033.9 580.106 1037.36 579.522C1040.82 578.938 1043.71 578.334 1046.05 577.708C1050.87 576.584 1054.19 575.24 1056.02 573.675C1057.84 571.971 1058.63 569.795 1058.4 567.147L1058.38 566.937C1058.26 565.544 1057.86 564.244 1057.2 563.038C1056.67 561.82 1055.79 560.632 1054.57 559.475C1052.41 557.277 1048.75 555.63 1043.6 554.536C1038.59 553.429 1031.76 553.254 1023.12 554.01C1017.96 554.461 1013.38 555.073 1009.37 555.845C1005.35 556.477 1001.92 557.34 999.062 558.432C993.19 560.35 988.995 562.965 986.475 566.275C983.943 569.447 982.606 573.426 982.463 578.215L945.872 581.416C946.433 565.354 952.803 553.068 964.981 544.558C977.159 536.049 994.748 530.787 1017.75 528.775C1025.55 528.092 1032.69 527.819 1039.17 527.955C1045.78 528.079 1051.79 528.606 1057.21 529.536C1067.92 531.549 1076.32 535.942 1082.39 542.715C1088.44 549.348 1092.04 559.147 1093.17 572.11L1099.71 646.756L1070.85 649.281ZM1222.19 605.068L1224.88 635.805L1197.07 638.238C1189.68 638.884 1183.09 638.969 1177.29 638.493C1171.49 638.018 1166.49 637.051 1162.29 635.592C1153.72 632.409 1147.39 626.642 1143.29 618.292C1139.18 609.942 1136.5 598.519 1135.23 584.022L1132.54 553.286L1099.09 556.212L1096.6 527.776C1100.36 527.447 1104.34 527.099 1108.52 526.733C1112.83 526.216 1116.5 525.614 1119.53 524.927C1123.23 523.901 1125.84 522.478 1127.37 520.659C1129.04 518.828 1130.27 516.121 1131.08 512.539C1131.79 509.387 1132.03 505.644 1131.79 501.311C1131.69 496.965 1131.43 493.195 1131.01 490.001L1160.7 487.404L1163.57 520.231L1214.38 515.786L1217.01 545.895L1166.21 550.34L1168.38 575.222C1169.05 582.889 1169.94 588.992 1171.04 593.531C1172.28 598.058 1174.18 601.333 1176.74 603.356C1179.18 605.53 1182.52 606.783 1186.76 607.114C1191.15 607.433 1196.82 607.288 1203.79 606.678L1222.19 605.068ZM1248.77 494.236C1240.68 494.944 1234.7 493.923 1230.8 491.173C1226.9 488.284 1224.59 482.797 1223.88 474.712C1223.2 466.906 1224.75 461.293 1228.52 457.873C1232.28 454.313 1237.79 452.216 1245.04 451.582C1252.42 450.935 1258.21 452.044 1262.39 454.909C1266.7 457.622 1269.2 462.882 1269.88 470.688C1270.54 478.215 1269.07 483.892 1265.48 487.718C1262 491.393 1256.44 493.566 1248.77 494.236ZM1278.44 631.119L1241.85 634.32L1231.35 514.301L1267.94 511.1L1278.44 631.119ZM1373.43 626.811C1363.95 627.64 1355.33 627.763 1347.55 627.179C1339.77 626.595 1332.84 625.235 1326.76 623.099C1314.89 619.081 1305.96 612.558 1299.97 603.53C1293.99 594.503 1290.42 583.507 1289.29 570.544C1288.71 563.853 1289 557.576 1290.17 551.715C1291.33 545.714 1293.3 540.134 1296.08 534.975C1301.78 524.644 1310.39 516.305 1321.91 509.96C1333.44 503.614 1347.22 499.74 1363.25 498.337C1371.47 497.618 1379.12 497.58 1386.2 498.225C1393.42 498.858 1400.14 500.236 1406.37 502.36C1418.81 506.469 1428.66 513.122 1435.93 522.318C1443.32 531.363 1447.62 542.786 1448.83 556.586C1449.38 562.859 1449.2 568.844 1448.29 574.542C1447.37 580.1 1445.66 585.377 1443.15 590.372C1438.4 600.339 1430.26 608.495 1418.74 614.841C1407.35 621.175 1392.25 625.165 1373.43 626.811ZM1371.94 597.656C1387.83 596.266 1398.79 592.357 1404.83 585.929C1411.01 579.489 1413.62 570.763 1412.65 559.751C1411.61 547.763 1407.4 539.001 1400.03 533.465C1392.65 527.79 1381.37 525.617 1366.17 526.946C1351.53 528.227 1340.79 532.257 1333.94 539.037C1327.22 545.665 1324.39 555.112 1325.46 567.379C1326.45 578.67 1330.61 586.874 1337.94 591.992C1345.41 597.097 1356.74 598.985 1371.94 597.656ZM1502.18 558.028L1506.83 611.137L1470.66 614.302L1460.15 494.283L1491.1 491.576L1496.31 517.456C1500.24 507.702 1506.49 499.711 1515.08 493.482C1523.65 487.113 1534.49 483.356 1547.59 482.209C1553.86 481.661 1559.7 481.782 1565.11 482.573C1570.64 483.212 1575.75 484.592 1580.43 486.71C1589.63 490.682 1596.91 496.857 1602.28 505.236C1607.78 513.603 1611.06 523.781 1612.11 535.769L1617.86 601.424L1581.89 604.57L1576.9 547.488C1575.84 535.361 1572.43 526.108 1566.67 519.728C1560.92 513.349 1551.42 510.739 1538.18 511.898C1524.38 513.105 1514.59 517.613 1508.81 525.423C1503.16 533.081 1500.95 543.949 1502.18 558.028Z" fill="black" style="fill:black;fill-opacity:1;"/>
<path d="M609.496 881.394L612.185 912.131L584.376 914.564C576.988 915.21 570.394 915.295 564.593 914.819C558.792 914.344 553.792 913.377 549.591 911.918C541.025 908.735 534.691 902.968 530.59 894.618C526.488 886.268 523.803 874.845 522.535 860.348L519.846 829.612L486.391 832.538L483.903 804.102C487.667 803.773 491.64 803.425 495.821 803.059C500.13 802.542 503.8 801.94 506.83 801.253C510.533 800.227 513.147 798.804 514.674 796.985C516.34 795.154 517.578 792.447 518.388 788.865C519.095 785.713 519.33 781.97 519.091 777.637C518.992 773.291 518.732 769.521 518.312 766.327L548.003 763.73L550.875 796.557L601.685 792.112L604.319 822.221L553.51 826.666L555.686 851.548C556.357 859.215 557.242 865.318 558.342 869.857C559.58 874.384 561.482 877.659 564.047 879.682C566.485 881.856 569.825 883.109 574.068 883.44C578.45 883.759 584.126 883.614 591.096 883.004L609.496 881.394ZM739.989 900.949L734.474 874.042C731.401 883.862 725.723 892.014 717.441 898.497C709.147 904.841 698.309 908.599 684.927 909.77C666.388 911.392 651.712 907.408 640.901 897.82C630.216 888.079 624.093 874.288 622.532 856.445L616.788 790.791L652.752 787.644L657.874 846.19C658.911 858.038 662.422 866.861 668.407 872.658C674.38 878.316 683.918 880.572 697.021 879.425C708.451 878.425 716.865 874.248 722.261 866.893C727.645 859.399 729.819 849.728 728.782 837.879L723.843 781.424L760.016 778.26L770.516 898.278L739.989 900.949ZM900.378 855.945L903.067 886.682L875.258 889.115C867.87 889.761 861.276 889.846 855.476 889.371C849.675 888.895 844.674 887.928 840.473 886.469C831.908 883.286 825.574 877.519 821.472 869.169C817.371 860.82 814.686 849.396 813.417 834.899L810.728 804.163L777.274 807.09L774.786 778.653C778.549 778.324 782.522 777.976 786.704 777.61C791.013 777.093 794.683 776.491 797.713 775.804C801.415 774.778 804.03 773.356 805.556 771.536C807.222 769.705 808.46 766.998 809.27 763.416C809.978 760.264 810.212 756.521 809.974 752.188C809.874 747.842 809.615 744.072 809.195 740.878L838.886 738.281L841.758 771.108L892.567 766.663L895.201 796.772L844.392 801.217L846.569 826.099C847.24 833.766 848.125 839.869 849.224 844.408C850.463 848.935 852.365 852.21 854.93 854.233C857.367 856.407 860.708 857.66 864.95 857.991C869.333 858.31 875.009 858.165 881.978 857.555L900.378 855.945ZM990.51 883.035C981.031 883.864 972.403 883.987 964.627 883.403C956.851 882.819 949.919 881.459 943.833 879.323C931.963 875.304 923.035 868.782 917.048 859.754C911.062 850.726 907.501 839.731 906.367 826.767C905.781 820.076 906.075 813.8 907.248 807.938C908.408 801.937 910.378 796.357 913.158 791.198C918.855 780.867 927.467 772.529 938.991 766.183C950.516 759.837 964.293 755.963 980.323 754.561C988.548 753.841 996.2 753.804 1003.28 754.449C1010.5 755.081 1017.22 756.46 1023.45 758.584C1035.88 762.692 1045.74 769.345 1053 778.542C1060.4 787.587 1064.7 799.009 1065.9 812.809C1066.45 819.082 1066.27 825.067 1065.37 830.765C1064.45 836.323 1062.73 841.6 1060.22 846.596C1055.47 856.563 1047.34 864.719 1035.81 871.065C1024.43 877.398 1009.33 881.388 990.51 883.035ZM989.013 853.879C1004.9 852.489 1015.87 848.58 1021.91 842.152C1028.09 835.712 1030.69 826.986 1029.73 815.974C1028.68 803.986 1024.47 795.224 1017.11 789.689C1009.73 784.013 998.442 781.84 983.248 783.17C968.611 784.45 957.867 788.48 951.016 795.26C944.292 801.888 941.467 811.336 942.54 823.602C943.528 834.893 947.687 843.098 955.017 848.215C962.487 853.321 973.819 855.209 989.013 853.879ZM1123.9 867.361L1087.73 870.526L1077.23 750.507L1107.97 747.818L1114.87 780.925C1117.13 769.911 1121.9 760.996 1129.17 754.18C1136.43 747.224 1146.96 743.142 1160.76 741.935L1176.02 740.6L1179.06 775.309L1162.96 776.718C1156.69 777.266 1151.14 778.103 1146.32 779.226C1141.64 780.338 1137.7 781.807 1134.49 783.633C1128.05 787.146 1123.81 792.433 1121.76 799.495C1119.85 806.545 1119.4 815.924 1120.43 827.633L1123.9 867.361ZM1209.26 720.415C1201.18 721.122 1195.19 720.101 1191.3 717.351C1187.39 714.462 1185.09 708.976 1184.38 700.891C1183.69 693.085 1185.24 687.471 1189.01 684.051C1192.78 680.491 1198.28 678.394 1205.53 677.76C1212.92 677.114 1218.7 678.223 1222.89 681.087C1227.2 683.801 1229.69 689.06 1230.38 696.866C1231.04 704.393 1229.57 710.07 1225.97 713.897C1222.5 717.571 1216.93 719.744 1209.26 720.415ZM1238.94 857.297L1202.34 860.498L1191.84 740.48L1228.44 737.278L1238.94 857.297ZM1313.74 829.473C1319.04 829.009 1323.95 828.158 1328.48 826.919C1333.13 825.529 1337.4 823.751 1341.28 821.585C1349.2 817.38 1355.22 812.289 1359.33 806.311C1363.58 800.321 1365.45 794.328 1364.92 788.334L1364.85 787.498C1363.5 789.723 1360.51 791.74 1355.9 793.548C1351.28 795.357 1344.12 796.967 1334.41 798.378C1323.02 799.936 1314.38 801.465 1308.47 802.965C1302.55 804.326 1298.05 805.913 1294.98 807.727C1292.58 809.201 1290.84 810.899 1289.74 812.821C1288.64 814.743 1288.2 816.888 1288.41 819.258L1288.42 819.467C1288.77 823.37 1290.84 826.209 1294.65 827.983C1298.59 829.744 1304.96 830.241 1313.74 829.473ZM1374.76 845.414L1369.14 817.252C1365.09 827.157 1357.75 835.665 1347.14 842.774C1336.51 849.743 1322.56 853.984 1305.27 855.497C1288.82 856.936 1275.89 855.257 1266.49 850.462C1257.2 845.515 1252.06 837.327 1251.06 825.896L1251.04 825.687C1250.43 818.718 1251.44 812.52 1254.05 807.094C1256.67 801.668 1261.12 797.135 1267.4 793.495C1269.27 792.349 1271.28 791.329 1273.45 790.437C1275.61 789.406 1277.84 788.438 1280.15 787.534C1284.92 785.852 1291.1 784.258 1298.7 782.751C1306.42 781.092 1316.66 779.353 1329.42 777.534C1333.86 776.865 1337.81 776.239 1341.27 775.655C1344.73 775.072 1347.62 774.467 1349.96 773.842C1354.78 772.718 1358.1 771.373 1359.93 769.809C1361.75 768.105 1362.54 765.928 1362.31 763.28L1362.29 763.071C1362.17 761.677 1361.77 760.377 1361.11 759.171C1360.58 757.953 1359.7 756.766 1358.48 755.609C1356.32 753.41 1352.66 751.763 1347.51 750.669C1342.5 749.562 1335.67 749.387 1327.03 750.143C1321.87 750.595 1317.29 751.206 1313.28 751.978C1309.26 752.61 1305.83 753.473 1302.97 754.565C1297.1 756.484 1292.9 759.098 1290.39 762.409C1287.85 765.58 1286.52 769.56 1286.37 774.348L1249.78 777.549C1250.34 761.487 1256.71 749.202 1268.89 740.692C1281.07 732.182 1298.66 726.921 1321.66 724.909C1329.46 724.226 1336.6 723.952 1343.08 724.088C1349.69 724.212 1355.7 724.739 1361.12 725.67C1371.83 727.682 1380.23 732.075 1386.3 738.848C1392.35 745.481 1395.95 755.28 1397.08 768.244L1403.62 842.889L1374.76 845.414ZM1460.58 837.906L1424.82 841.034L1410.92 682.124L1446.68 678.996L1460.58 837.906Z" fill="black" style="fill:black;fill-opacity:1;"/>
</svg>
